<?xml version="1.0" encoding="UTF-8" standalone="no"?>
<!-- Created with Inkscape (http://www.inkscape.org/) -->

<svg
   xmlns:dc="http://purl.org/dc/elements/1.1/"
   xmlns:cc="http://creativecommons.org/ns#"
   xmlns:rdf="http://www.w3.org/1999/02/22-rdf-syntax-ns#"
   xmlns:svg="http://www.w3.org/2000/svg"
   xmlns="http://www.w3.org/2000/svg"
   xmlns:sodipodi="http://sodipodi.sourceforge.net/DTD/sodipodi-0.dtd"
   xmlns:inkscape="http://www.inkscape.org/namespaces/inkscape"
   id="svg2"
   version="1.1"
   inkscape:version="0.48.4 r9939"
   width="354.325"
   height="177.1625"
   xml:space="preserve"
   sodipodi:docname="basf-seeklogo.com.eps"><metadata
     id="metadata8"><rdf:RDF><cc:Work
         rdf:about=""><dc:format>image/svg+xml</dc:format><dc:type
           rdf:resource="http://purl.org/dc/dcmitype/StillImage" /><dc:title></dc:title></cc:Work></rdf:RDF></metadata><defs
     id="defs6" /><sodipodi:namedview
     pagecolor="#ffffff"
     bordercolor="#666666"
     borderopacity="1"
     objecttolerance="10"
     gridtolerance="10"
     guidetolerance="10"
     inkscape:pageopacity="0"
     inkscape:pageshadow="2"
     inkscape:window-width="640"
     inkscape:window-height="480"
     id="namedview4"
     showgrid="false"
     inkscape:zoom="0.9059479"
     inkscape:cx="177.16251"
     inkscape:cy="88.581253"
     inkscape:window-x="314"
     inkscape:window-y="139"
     inkscape:window-maximized="0"
     inkscape:current-layer="g10" /><g
     id="g10"
     inkscape:groupmode="layer"
     inkscape:label="ink_ext_XXXXXX"
     transform="matrix(1.25,0,0,-1.25,0,177.1625)"><g
       id="g12"
       transform="scale(0.1,0.1)"><path
         d="m 0,0 2834.64,0 0,1417.32 L 0,1417.32 0,0 z"
         style="fill:#214ca1;fill-opacity:1;fill-rule:nonzero;stroke:none"
         id="path14" /><path
         d="m 1232.3,910.898 61.64,0 c 28.17,0 39.42,13.118 39.42,32.348 0,4.465 -1.41,29.305 -31.34,29.305 l -69.72,0 0,-61.653 z m -0.28,-144.742 76.71,0 c 27.34,0 39.61,19.52 39.61,36.809 0,-7.988 3.53,31.504 -35.71,31.504 l -80.61,0 0,-68.313 z m -115.74,294.524 211.98,0 c 77.79,0 113.32,-51.88 113.32,-99.297 0,-34.16 -13.11,-56.223 -48.37,-76.699 44.44,-16.442 68.61,-46.055 68.61,-91.762 0,-54.656 -39.67,-112.656 -133.28,-112.656 l -212.35,0 0.09,380.414"
         style="fill:#ffffff;fill-opacity:1;fill-rule:nonzero;stroke:none"
         id="path16" /><path
         d="m 1638.67,947.895 -32.34,-126.887 69.12,0 -36.78,126.887 z m -56.31,112.775 122.6,0 139.59,-379.975 -125.83,0 -18.41,56.922 -117.43,0 -15.61,-56.648 -124.86,0 139.95,379.701"
         style="fill:#ffffff;fill-opacity:1;fill-rule:nonzero;stroke:none"
         id="path18" /><path
         d="m 2040.02,947.676 116.83,0 c 0,64.504 -48.52,124.384 -163.69,124.384 -126.36,0 -165.46,-69.72 -165.46,-120.755 0,-82.289 100.73,-104.176 103.83,-105.16 15.07,-4.743 77.52,-21.481 93.15,-27.051 13.51,-4.836 26.43,-15.66 26.43,-30.133 0,-22.188 -26.43,-32.887 -48.47,-32.887 -14.11,0 -61.68,4.684 -61.68,55.082 l -120.75,0 c 0,-66.918 46.04,-141.789 175.17,-141.789 142.53,0 172.36,85.02 172.36,130.219 0,36.883 -20.93,77.797 -69.17,97.297 -29.01,11.711 -77.07,21.969 -101.21,29.019 -12.17,3.559 -52.77,11.786 -52.77,36.532 0,31.722 52.28,27.652 44.64,27.652 23.64,0 50.79,-13.328 50.79,-42.41"
         style="fill:#ffffff;fill-opacity:1;fill-rule:nonzero;stroke:none"
         id="path20" /><path
         d="m 2187.56,1060.76 291.72,0 0,-100.397 -175.18,0 0,-66.961 156.2,0 0,-95.937 -156.76,0 0,-117.133 -116.55,0 0.57,380.428"
         style="fill:#ffffff;fill-opacity:1;fill-rule:nonzero;stroke:none"
         id="path22" /><path
         d="m 618.77,797.289 -146.321,0 0,146.328 146.321,0 0,-146.328 z m -263.399,-117.082 380.449,0 0,380.463 -380.449,0 0,-380.463"
         style="fill:#949cd4;fill-opacity:1;fill-rule:nonzero;stroke:none"
         id="path24" /><path
         d="m 852.898,797.289 146.34,0 0,146.328 -146.34,0 0,-146.328 z"
         style="fill:#949cd4;fill-opacity:1;fill-rule:nonzero;stroke:none"
         id="path26" /><path
         d="m 498.645,353.52 -38.157,140.476 -0.476,0 -38.617,-140.476 -23.172,0 -42.832,167.156 22.695,0 32.773,-139.047 0.481,0 37.437,139.047 24.114,0 36.992,-139.047 0.461,0 33.941,139.047 22.258,0 -44.727,-167.156 -23.171,0"
         style="fill:#ffffff;fill-opacity:1;fill-rule:nonzero;stroke:none"
         id="path28" /><path
         d="m 650.227,438.977 c -1.789,4.199 -4.219,7.851 -7.278,10.898 -3.027,3.027 -6.609,5.43 -10.754,7.246 -4.136,1.805 -8.687,2.695 -13.699,2.695 -5.137,0 -9.785,-0.89 -13.918,-2.695 -4.148,-1.816 -7.691,-4.258 -10.652,-7.383 -2.969,-3.125 -5.305,-6.738 -7.031,-10.871 -1.719,-4.129 -2.723,-8.562 -3.047,-13.25 l 69.531,0 c -0.293,4.688 -1.359,9.16 -3.152,13.36 m 4.793,-77.739 c -9.051,-6.867 -20.45,-10.269 -34.18,-10.269 -9.688,0 -18.067,1.562 -25.156,4.672 -7.098,3.121 -13.079,7.5 -17.918,13.097 -4.817,5.633 -8.457,12.332 -10.879,20.141 -2.422,7.801 -3.782,16.312 -4.106,25.531 0,9.195 1.399,17.613 4.223,25.27 2.82,7.644 6.758,14.277 11.824,19.883 5.059,5.644 11.067,10 18.008,13.125 6.973,3.144 14.57,4.687 22.852,4.687 10.773,0 19.675,-2.227 26.796,-6.672 7.09,-4.473 12.793,-10.105 17.102,-16.992 4.266,-6.844 7.227,-14.324 8.855,-22.469 1.653,-8.125 2.325,-15.832 2,-23.172 l -90.593,0 c -0.157,-5.308 0.476,-10.332 1.875,-15.07 1.425,-4.789 3.672,-8.988 6.797,-12.672 3.125,-3.656 7.097,-6.598 11.921,-8.777 4.856,-2.192 10.532,-3.281 17.09,-3.281 8.449,0 15.332,1.96 20.715,5.851 5.41,3.899 8.938,9.84 10.676,17.777 l 19.644,0 c -2.644,-13.546 -8.503,-23.757 -17.546,-30.66"
         style="fill:#ffffff;fill-opacity:1;fill-rule:nonzero;stroke:none"
         id="path30" /><path
         d="m 838.555,453.508 c -5,4.199 -11.719,6.308 -20.149,6.308 -7.156,0 -13.172,-1.328 -18.015,-3.976 -4.844,-2.664 -8.711,-6.172 -11.602,-10.535 -2.891,-4.356 -4.961,-9.414 -6.191,-15.098 -1.25,-5.723 -1.868,-11.602 -1.868,-17.676 0,-5.633 0.657,-11.09 1.985,-16.39 1.328,-5.313 3.379,-10.039 6.203,-14.18 2.82,-4.121 6.492,-7.449 11.016,-9.941 4.519,-2.5 9.902,-3.75 16.129,-3.75 9.843,0 17.531,2.582 23.07,7.742 5.535,5.148 8.926,12.398 10.183,21.769 l 20.364,0 c -2.18,-14.98 -7.746,-26.519 -16.742,-34.64 -8.961,-8.129 -21.168,-12.172 -36.637,-12.172 -9.199,0 -17.363,1.461 -24.453,4.453 -7.102,2.949 -13.032,7.18 -17.805,12.637 -4.758,5.453 -8.359,11.953 -10.773,19.543 -2.411,7.558 -3.614,15.886 -3.614,24.929 0,9.043 1.172,17.528 3.508,25.379 2.344,7.891 5.899,14.778 10.664,20.617 4.735,5.86 10.703,10.45 17.91,13.809 7.168,3.34 15.52,5.039 25.039,5.039 6.868,0 13.301,-0.82 19.297,-2.461 6.016,-1.66 11.328,-4.199 15.918,-7.598 4.641,-3.457 8.406,-7.785 11.36,-13 2.976,-5.222 4.863,-11.453 5.64,-18.621 l -20.613,0 c -1.563,7.645 -4.844,13.582 -9.824,17.813"
         style="fill:#ffffff;fill-opacity:1;fill-rule:nonzero;stroke:none"
         id="path32" /><path
         d="m 903.613,474.563 0,-25.528 0.481,0 c 4.824,9.824 10.769,17.09 17.793,21.778 7.031,4.667 15.906,6.875 26.687,6.542 l 0,-21.074 c -7.969,0 -14.758,-1.074 -20.351,-3.261 -5.645,-2.2 -10.164,-5.391 -13.594,-9.59 -3.438,-4.219 -5.938,-9.336 -7.481,-15.344 -1.562,-6.004 -2.343,-12.895 -2.343,-20.734 l 0,-53.832 -19.895,0 0,121.043 18.703,0"
         style="fill:#ffffff;fill-opacity:1;fill-rule:nonzero;stroke:none"
         id="path34" /><path
         d="m 1043.27,438.977 c -1.79,4.199 -4.22,7.851 -7.26,10.898 -3.06,3.027 -6.63,5.43 -10.78,7.246 -4.13,1.805 -8.68,2.695 -13.68,2.695 -5.14,0 -9.79,-0.89 -13.921,-2.695 -4.152,-1.816 -7.688,-4.258 -10.656,-7.383 -2.957,-3.125 -5.301,-6.738 -7.024,-10.871 -1.726,-4.129 -2.73,-8.562 -3.054,-13.25 l 69.545,0 c -0.31,4.688 -1.37,9.16 -3.17,13.36 m 4.8,-77.739 c -9.06,-6.867 -20.46,-10.269 -34.18,-10.269 -9.69,0 -18.077,1.562 -25.16,4.672 -7.097,3.121 -13.078,7.5 -17.917,13.097 -4.829,5.633 -8.458,12.332 -10.891,20.141 -2.402,7.801 -3.77,16.312 -4.07,25.531 0,9.195 1.382,17.613 4.187,25.27 2.82,7.644 6.746,14.277 11.836,19.883 5.059,5.644 11.063,10 18.02,13.125 6.953,3.144 14.555,4.687 22.835,4.687 10.77,0 19.69,-2.227 26.78,-6.672 7.13,-4.473 12.8,-10.105 17.11,-16.992 4.28,-6.844 7.24,-14.324 8.87,-22.469 1.67,-8.125 2.31,-15.832 2.01,-23.172 l -90.605,0 c -0.157,-5.308 0.476,-10.332 1.882,-15.07 1.418,-4.789 3.672,-8.988 6.789,-12.672 3.125,-3.656 7.09,-6.598 11.914,-8.777 4.86,-2.192 10.58,-3.281 17.12,-3.281 8.42,0 15.31,1.96 20.69,5.851 5.41,3.899 8.94,9.84 10.68,17.777 l 19.66,0 c -2.66,-13.546 -8.53,-23.757 -17.56,-30.66"
         style="fill:#ffffff;fill-opacity:1;fill-rule:nonzero;stroke:none"
         id="path36" /><path
         d="m 1156.22,411.93 c -4.06,-0.852 -8.32,-1.559 -12.77,-2.102 -4.46,-0.539 -8.92,-1.168 -13.44,-1.867 -4.54,-0.699 -8.6,-1.852 -12.19,-3.391 -3.58,-1.57 -6.53,-3.82 -8.78,-6.691 -2.26,-2.891 -3.4,-6.809 -3.4,-11.801 0,-3.277 0.68,-6.066 2,-8.308 1.32,-2.27 3.03,-4.11 5.14,-5.532 2.13,-1.386 4.61,-2.41 7.5,-3.027 2.9,-0.621 5.8,-0.941 8.77,-0.941 6.57,0 12.18,0.902 16.86,2.699 4.71,1.769 8.51,4.043 11.48,6.801 2.98,2.718 5.16,5.679 6.55,8.871 1.39,3.187 2.1,6.211 2.1,9.031 l 0,20.359 c -2.48,-1.859 -5.76,-3.25 -9.82,-4.101 m 27.85,-60.961 c -5.15,0 -9.24,1.429 -12.28,4.32 -3.04,2.859 -4.56,7.59 -4.56,14.152 -5.46,-6.562 -11.83,-11.293 -19.09,-14.152 -7.27,-2.891 -15.08,-4.32 -23.54,-4.32 -5.47,0 -10.61,0.562 -15.45,1.742 -4.81,1.187 -9.07,3.117 -12.74,5.859 -3.68,2.711 -6.58,6.231 -8.67,10.539 -2.11,4.27 -3.15,9.481 -3.15,15.551 0,6.871 1.15,12.5 3.5,16.84 2.33,4.398 5.42,7.941 9.23,10.68 3.83,2.73 8.22,4.781 13.12,6.211 4.91,1.394 9.97,2.586 15.12,3.504 5.46,1.085 10.66,1.906 15.54,2.453 4.94,0.527 9.28,1.308 13.01,2.343 3.74,0.997 6.7,2.481 8.9,4.442 2.19,1.972 3.26,4.797 3.26,8.535 0,4.387 -0.81,7.871 -2.44,10.547 -1.63,2.648 -3.76,4.668 -6.32,6.086 -2.59,1.406 -5.46,2.344 -8.65,2.82 -3.22,0.442 -6.39,0.695 -9.51,0.695 -8.4,0 -15.42,-1.601 -21.07,-4.785 -5.6,-3.222 -8.65,-9.277 -9.13,-18.164 l -19.88,0 c 0.3,7.481 1.86,13.828 4.69,18.973 2.8,5.129 6.56,9.308 11.23,12.519 4.66,3.196 10.06,5.5 16.15,6.895 6.08,1.398 12.5,2.121 19.18,2.121 5.48,0 10.91,-0.391 16.29,-1.172 5.39,-0.781 10.25,-2.383 14.62,-4.805 4.36,-2.421 7.88,-5.8 10.53,-10.168 2.67,-4.382 4,-10.066 4,-17.097 l 0,-62.274 c 0,-4.679 0.26,-8.129 0.82,-10.308 0.52,-2.192 2.37,-3.281 5.5,-3.281 1.71,0 3.74,0.39 6.07,1.171 l 0,-15.453 c -3.44,-2.027 -8.19,-3.019 -14.28,-3.019"
         style="fill:#ffffff;fill-opacity:1;fill-rule:nonzero;stroke:none"
         id="path38" /><path
         d="m 1271.63,474.563 0,-17.571 -24.12,0 0,-75.133 c 0,-2.328 0.21,-4.23 0.59,-5.609 l 2.23,-3.281 c 1.1,-0.797 2.63,-1.297 4.55,-1.528 1.96,-0.222 4.49,-0.371 7.61,-0.371 l 9.14,0 0,-17.55 -15.22,0 c -5.16,0 -9.55,0.378 -13.23,1.082 -3.67,0.687 -6.64,1.968 -8.88,3.828 -2.28,1.89 -3.95,4.539 -5.04,8 -1.11,3.398 -1.65,7.941 -1.65,13.539 l 0,77.023 -20.59,0 0,17.571 20.59,0 0,36.289 19.9,0 0,-36.289 24.12,0"
         style="fill:#ffffff;fill-opacity:1;fill-rule:nonzero;stroke:none"
         id="path40" /><path
         d="m 1372.89,438.977 c -1.82,4.199 -4.22,7.851 -7.27,10.898 -3.05,3.027 -6.64,5.43 -10.78,7.246 -4.15,1.805 -8.71,2.695 -13.68,2.695 -5.14,0 -9.79,-0.89 -13.94,-2.695 -4.13,-1.816 -7.68,-4.258 -10.66,-7.383 -2.97,-3.125 -5.3,-6.738 -7,-10.871 -1.72,-4.129 -2.74,-8.562 -3.05,-13.25 l 69.53,0 c -0.33,4.688 -1.37,9.16 -3.15,13.36 m 4.78,-77.739 c -9.04,-6.867 -20.44,-10.269 -34.17,-10.269 -9.68,0 -18.07,1.562 -25.19,4.672 -7.08,3.121 -13.06,7.5 -17.88,13.097 -4.84,5.633 -8.47,12.332 -10.92,20.141 -2.41,7.801 -3.77,16.312 -4.07,25.531 0,9.195 1.4,17.613 4.22,25.27 2.8,7.644 6.74,14.277 11.81,19.883 5.07,5.644 11.09,10 18.03,13.125 6.94,3.144 14.55,4.687 22.83,4.687 10.77,0 19.68,-2.227 26.81,-6.672 7.09,-4.473 12.78,-10.105 17.08,-16.992 4.29,-6.844 7.26,-14.324 8.89,-22.469 1.65,-8.125 2.3,-15.832 2,-23.172 l -90.6,0 c -0.16,-5.308 0.46,-10.332 1.86,-15.07 1.42,-4.789 3.67,-8.988 6.79,-12.672 3.12,-3.656 7.12,-6.598 11.94,-8.777 4.84,-2.192 10.55,-3.281 17.1,-3.281 8.43,0 15.33,1.96 20.7,5.851 5.4,3.899 8.94,9.84 10.66,17.777 l 19.67,0 c -2.64,-13.546 -8.51,-23.757 -17.56,-30.66"
         style="fill:#ffffff;fill-opacity:1;fill-rule:nonzero;stroke:none"
         id="path42" /><path
         d="m 1561.21,453.508 c -5,4.199 -11.7,6.308 -20.13,6.308 -7.17,0 -13.21,-1.328 -18.01,-3.976 -4.86,-2.664 -8.72,-6.172 -11.61,-10.535 -2.88,-4.356 -4.96,-9.414 -6.2,-15.098 -1.24,-5.723 -1.86,-11.602 -1.86,-17.676 0,-5.633 0.66,-11.09 1.97,-16.39 1.33,-5.313 3.41,-10.039 6.23,-14.18 2.8,-4.121 6.46,-7.449 10.99,-9.941 4.52,-2.5 9.91,-3.75 16.16,-3.75 9.82,0 17.51,2.582 23.05,7.742 5.53,5.148 8.94,12.398 10.18,21.769 l 20.35,0 c -2.15,-14.98 -7.75,-26.519 -16.71,-34.64 -9,-8.129 -21.21,-12.172 -36.65,-12.172 -9.2,0 -17.36,1.461 -24.45,4.453 -7.11,2.949 -13.04,7.18 -17.81,12.637 -4.75,5.453 -8.32,11.953 -10.75,19.543 -2.42,7.558 -3.63,15.886 -3.63,24.929 0,9.043 1.16,17.528 3.52,25.379 2.34,7.891 5.86,14.778 10.63,20.617 4.76,5.86 10.74,10.45 17.92,13.809 7.17,3.34 15.53,5.039 25.03,5.039 6.88,0 13.32,-0.82 19.32,-2.461 6.01,-1.66 11.33,-4.199 15.93,-7.598 4.6,-3.457 8.38,-7.785 11.36,-13 2.94,-5.222 4.82,-11.453 5.6,-18.621 l -20.59,0 c -1.57,7.645 -4.84,13.582 -9.84,17.813"
         style="fill:#ffffff;fill-opacity:1;fill-rule:nonzero;stroke:none"
         id="path44" /><path
         d="m 1632.84,520.676 0,-63.906 0.46,0 c 1.54,3.75 3.75,6.914 6.55,9.46 2.81,2.59 5.99,4.7 9.5,6.36 3.51,1.621 7.16,2.832 10.99,3.613 3.82,0.762 7.53,1.172 11.12,1.172 7.96,0 14.59,-1.113 19.91,-3.301 5.28,-2.168 9.6,-5.215 12.86,-9.121 3.3,-3.906 5.57,-8.527 6.9,-13.926 1.33,-5.39 2,-11.347 2,-17.91 l 0,-79.578 -19.89,0 0,81.941 c 0,7.469 -2.2,13.407 -6.56,17.793 -4.39,4.336 -10.4,6.543 -18.04,6.543 -6.08,0 -11.35,-0.918 -15.78,-2.824 -4.45,-1.863 -8.17,-4.5 -11.12,-7.957 -2.95,-3.418 -5.19,-7.453 -6.68,-12.031 -1.49,-4.629 -2.22,-9.649 -2.22,-15.109 l 0,-68.356 -19.9,0 0,167.137 19.9,0"
         style="fill:#ffffff;fill-opacity:1;fill-rule:nonzero;stroke:none"
         id="path46" /><path
         d="m 1822.33,438.977 c -1.76,4.199 -4.2,7.851 -7.25,10.898 -3.02,3.027 -6.6,5.43 -10.75,7.246 -4.14,1.805 -8.7,2.695 -13.7,2.695 -5.14,0 -9.78,-0.89 -13.93,-2.695 -4.12,-1.816 -7.69,-4.258 -10.65,-7.383 -2.98,-3.125 -5.32,-6.738 -7.03,-10.871 -1.72,-4.129 -2.71,-8.562 -3.04,-13.25 l 69.52,0 c -0.3,4.688 -1.35,9.16 -3.17,13.36 m 4.82,-77.739 c -9.05,-6.867 -20.45,-10.269 -34.18,-10.269 -9.68,0 -18.05,1.562 -25.18,4.672 -7.1,3.121 -13.06,7.5 -17.87,13.097 -4.86,5.633 -8.51,12.332 -10.91,20.141 -2.42,7.801 -3.8,16.312 -4.08,25.531 0,9.195 1.4,17.613 4.18,25.27 2.84,7.644 6.76,14.277 11.84,19.883 5.07,5.644 11.09,10 18.02,13.125 6.95,3.144 14.56,4.687 22.83,4.687 10.77,0 19.7,-2.227 26.79,-6.672 7.11,-4.473 12.82,-10.105 17.1,-16.992 4.3,-6.844 7.28,-14.324 8.9,-22.469 1.63,-8.125 2.3,-15.832 1.98,-23.172 l -90.59,0 c -0.17,-5.308 0.48,-10.332 1.87,-15.07 1.41,-4.789 3.66,-8.988 6.78,-12.672 3.12,-3.656 7.1,-6.598 11.96,-8.777 4.83,-2.192 10.51,-3.281 17.07,-3.281 8.45,0 15.36,1.96 20.74,5.851 5.39,3.899 8.93,9.84 10.63,17.777 l 19.68,0 c -2.67,-13.546 -8.5,-23.757 -17.56,-30.66"
         style="fill:#ffffff;fill-opacity:1;fill-rule:nonzero;stroke:none"
         id="path48" /><path
         d="m 1884.25,474.563 0,-17.793 0.48,0 c 9.04,13.718 22.07,20.585 39.08,20.585 7.49,0 14.28,-1.542 20.36,-4.667 6.08,-3.125 10.39,-8.438 12.89,-15.918 4.06,6.55 9.4,11.621 16.04,15.214 6.63,3.594 13.91,5.371 21.89,5.371 6.08,0 11.58,-0.644 16.49,-1.972 4.92,-1.328 9.13,-3.399 12.64,-6.211 3.52,-2.793 6.25,-6.438 8.21,-10.879 1.93,-4.434 2.91,-9.797 2.91,-16.035 l 0,-88.738 -19.89,0 0,79.371 c 0,3.722 -0.33,7.257 -0.96,10.539 -0.61,3.261 -1.78,6.093 -3.47,8.543 -1.74,2.414 -4.11,4.308 -7.15,5.715 -3.07,1.433 -6.99,2.128 -11.84,2.128 -9.81,0 -17.56,-2.824 -23.17,-8.429 -5.62,-5.614 -8.42,-13.106 -8.42,-22.469 l 0,-75.398 -19.9,0 0,79.371 c 0,3.898 -0.37,7.492 -1.06,10.754 -0.71,3.289 -1.9,6.132 -3.62,8.554 -1.72,2.422 -4.02,4.278 -6.91,5.625 -2.89,1.317 -6.59,1.992 -11.14,1.992 -5.77,0 -10.73,-1.171 -14.82,-3.535 -4.17,-2.324 -7.52,-5.117 -10.12,-8.398 -2.56,-3.281 -4.41,-6.692 -5.6,-10.195 -1.15,-3.497 -1.75,-6.446 -1.75,-8.77 l 0,-75.398 -19.88,0 0,121.043 18.71,0"
         style="fill:#ffffff;fill-opacity:1;fill-rule:nonzero;stroke:none"
         id="path50" /><path
         d="m 2075.27,353.539 -19.88,0 0,121.024 19.88,0 0,-121.024 z m -19.88,167.137 19.88,0 0,-24.356 -19.88,0 0,24.356"
         style="fill:#ffffff;fill-opacity:1;fill-rule:nonzero;stroke:none"
         id="path52" /><path
         d="m 2119.75,380.559 c 1.88,-3.028 4.32,-5.457 7.38,-7.25 3.05,-1.797 6.49,-3.079 10.32,-3.868 3.79,-0.781 7.76,-1.171 11.81,-1.171 3.11,0 6.38,0.242 9.82,0.71 3.44,0.461 6.6,1.309 9.47,2.551 2.91,1.27 5.28,3.09 7.16,5.528 1.89,2.421 2.81,5.492 2.81,9.242 0,5.168 -1.96,9.027 -5.89,11.719 -3.86,2.628 -8.75,4.789 -14.61,6.421 -5.85,1.637 -12.21,3.129 -19.07,4.438 -6.86,1.351 -13.25,3.211 -19.1,5.641 -5.82,2.402 -10.7,5.785 -14.61,10.179 -3.9,4.364 -5.85,10.469 -5.85,18.27 0,6.066 1.35,11.308 4.08,15.676 2.77,4.355 6.25,7.929 10.56,10.644 4.26,2.723 9.12,4.746 14.51,6.094 5.37,1.308 10.72,1.972 16.03,1.972 6.85,0 13.2,-0.558 18.98,-1.738 5.79,-1.172 10.84,-3.215 15.32,-6.125 4.47,-2.851 7.99,-6.758 10.64,-11.668 2.67,-4.922 4.22,-11.066 4.69,-18.371 l -19.9,0 c -0.33,3.887 -1.32,7.129 -3.06,9.699 -1.69,2.578 -3.89,4.649 -6.55,6.211 -2.66,1.543 -5.57,2.676 -8.76,3.387 -3.2,0.715 -6.47,1.066 -9.73,1.066 -2.98,0 -5.95,-0.253 -8.99,-0.695 -3.06,-0.476 -5.82,-1.297 -8.31,-2.469 -2.52,-1.183 -4.54,-2.746 -6.07,-4.679 -1.59,-1.953 -2.37,-4.5 -2.37,-7.625 0,-3.418 1.2,-6.27 3.61,-8.547 2.41,-2.254 5.54,-4.149 9.27,-5.594 3.72,-1.484 7.97,-2.734 12.65,-3.75 4.64,-1.016 9.37,-2.07 14.02,-3.176 5,-1.082 9.88,-2.41 14.64,-3.972 4.75,-1.563 8.97,-3.618 12.66,-6.2 3.66,-2.558 6.64,-5.82 8.87,-9.718 2.28,-3.891 3.4,-8.731 3.4,-14.512 0,-7.348 -1.51,-13.41 -4.57,-18.258 -3.05,-4.871 -7.02,-8.73 -11.95,-11.711 -4.9,-2.98 -10.47,-5.012 -16.6,-6.199 -6.17,-1.16 -12.31,-1.762 -18.37,-1.762 -6.74,0 -13.12,0.699 -19.19,2.11 -6.07,1.382 -11.5,3.73 -16.18,6.91 -4.67,3.191 -8.43,7.383 -11.24,12.633 -2.8,5.238 -4.36,11.597 -4.68,19.078 l 19.9,0 c 0.18,-4.36 1.17,-8.071 3.05,-11.121"
         style="fill:#ffffff;fill-opacity:1;fill-rule:nonzero;stroke:none"
         id="path54" /><path
         d="m 2271.69,474.563 0,-17.571 -24.12,0 0,-75.133 c 0,-2.328 0.18,-4.23 0.6,-5.609 l 2.2,-3.281 c 1.1,-0.797 2.63,-1.297 4.58,-1.528 1.95,-0.222 4.46,-0.371 7.62,-0.371 l 9.12,0 0,-17.55 -15.22,0 c -5.13,0 -9.58,0.378 -13.26,1.082 -3.66,0.687 -6.64,1.968 -8.87,3.828 -2.27,1.89 -3.94,4.539 -5.04,8 -1.1,3.398 -1.62,7.941 -1.62,13.539 l 0,77.023 -20.62,0 0,17.571 20.62,0 0,36.289 19.89,0 0,-36.289 24.12,0"
         style="fill:#ffffff;fill-opacity:1;fill-rule:nonzero;stroke:none"
         id="path56" /><path
         d="m 2310.07,474.563 0,-25.528 0.5,0 c 4.82,9.824 10.73,17.09 17.76,21.778 7.02,4.667 15.93,6.875 26.71,6.542 l 0,-21.074 c -7.99,0 -14.76,-1.074 -20.36,-3.261 -5.65,-2.2 -10.18,-5.391 -13.59,-9.59 -3.47,-4.219 -5.95,-9.336 -7.52,-15.344 -1.55,-6.004 -2.33,-12.895 -2.33,-20.734 l 0,-53.832 -19.87,0 0,121.043 18.7,0"
         style="fill:#ffffff;fill-opacity:1;fill-rule:nonzero;stroke:none"
         id="path58" /><path
         d="m 2418.34,322.629 c -2.27,-4.059 -4.75,-7.391 -7.48,-9.949 -2.73,-2.571 -5.74,-4.45 -9,-5.621 -3.31,-1.149 -7.2,-1.739 -11.74,-1.739 -2.35,0 -4.65,0.141 -7.03,0.442 -2.35,0.34 -4.57,0.867 -6.78,1.648 l 0,18.262 c 1.88,-0.633 3.8,-1.242 5.75,-1.852 1.95,-0.629 3.94,-0.941 5.96,-0.941 4.08,0 7.34,0.941 9.83,2.793 2.51,1.84 4.68,4.609 6.56,8.199 l 8.19,20.359 -47.99,120.313 22.49,0 35.36,-99.023 0.43,0 33.94,99.023 21.1,0 -52.71,-136.934 c -2.33,-5.937 -4.64,-10.898 -6.88,-14.98"
         style="fill:#ffffff;fill-opacity:1;fill-rule:nonzero;stroke:none"
         id="path60" /></g></g></svg>