<?xml version="1.0" encoding="UTF-8" standalone="no"?>
<!-- Created with Inkscape (http://www.inkscape.org/) -->

<svg
   xmlns:dc="http://purl.org/dc/elements/1.1/"
   xmlns:cc="http://creativecommons.org/ns#"
   xmlns:rdf="http://www.w3.org/1999/02/22-rdf-syntax-ns#"
   xmlns:svg="http://www.w3.org/2000/svg"
   xmlns="http://www.w3.org/2000/svg"
   xmlns:sodipodi="http://sodipodi.sourceforge.net/DTD/sodipodi-0.dtd"
   xmlns:inkscape="http://www.inkscape.org/namespaces/inkscape"
   id="svg2"
   version="1.1"
   inkscape:version="0.48.4 r9939"
   width="242.5"
   height="242.5"
   xml:space="preserve"
   sodipodi:docname="Termidor.eps"><metadata
     id="metadata8"><rdf:RDF><cc:Work
         rdf:about=""><dc:format>image/svg+xml</dc:format><dc:type
           rdf:resource="http://purl.org/dc/dcmitype/StillImage" /><dc:title></dc:title></cc:Work></rdf:RDF></metadata><defs
     id="defs6" /><sodipodi:namedview
     pagecolor="#ffffff"
     bordercolor="#666666"
     borderopacity="1"
     objecttolerance="10"
     gridtolerance="10"
     guidetolerance="10"
     inkscape:pageopacity="0"
     inkscape:pageshadow="2"
     inkscape:window-width="640"
     inkscape:window-height="480"
     id="namedview4"
     showgrid="false"
     inkscape:zoom="0.97319588"
     inkscape:cx="121.25"
     inkscape:cy="121.25"
     inkscape:window-x="278"
     inkscape:window-y="100"
     inkscape:window-maximized="0"
     inkscape:current-layer="g10" /><g
     id="g10"
     inkscape:groupmode="layer"
     inkscape:label="ink_ext_XXXXXX"
     transform="matrix(1.25,0,0,-1.25,0,242.5)"><g
       id="g12"
       transform="scale(0.1,0.1)"><path
         d="m 547.719,443.18 -50.102,0 0,183.129 -32.824,0 0,29.371 115.75,0 0,-29.371 -32.824,0 0,-183.129"
         style="fill:#231f20;fill-opacity:1;fill-rule:evenodd;stroke:none"
         id="path14" /><path
         d="m 596.094,443.18 0,212.5 91.566,0 0,-29.371 -43.191,0 0,-50.102 41.461,0 0,-29.371 -41.461,0 0,-72.563 43.191,0 0,-31.093 -91.566,0"
         style="fill:#231f20;fill-opacity:1;fill-rule:evenodd;stroke:none"
         id="path16" /><path
         d="m 755.039,626.309 5.184,0 c 8.636,0 10.363,-3.454 10.363,-13.821 l 0,-31.097 c 0,-10.368 -1.727,-13.821 -10.363,-13.821 l -5.184,0 0,58.739 z m 0,-183.129 0,100.203 c 15.547,0 15.547,-10.367 15.547,-24.188 l 0,-48.375 c 0,-13.824 3.457,-22.461 6.91,-27.64 l 50.106,0 c -3.457,8.636 -6.911,17.273 -6.911,38.008 l 0,41.464 c 0,24.184 -8.64,34.551 -38.011,36.282 l 0,0 c 29.371,1.722 38.011,19 38.011,34.55 l 0,19.004 c 0,32.828 -27.644,43.192 -57.015,43.192 l -58.738,0 0,-212.5 50.101,0"
         style="fill:#231f20;fill-opacity:1;fill-rule:evenodd;stroke:none"
         id="path18" /><path
         d="m 843.148,443.18 0,212.5 74.29,0 22.46,-141.668 24.188,141.668 67.374,0 0,-212.5 -43.187,0 0,155.488 -1.73,0 -29.367,-155.488 -41.465,0 -29.371,153.758 0,-153.758 -43.192,0"
         style="fill:#231f20;fill-opacity:1;fill-rule:evenodd;stroke:none"
         id="path20" /><path
         d="m 1059.11,443.18 48.375,0 0,212.5 -48.375,0 0,-212.5 z"
         style="fill:#231f20;fill-opacity:1;fill-rule:evenodd;stroke:none"
         id="path22" /><path
         d="m 1181.77,626.309 8.64,0 c 8.64,0 8.64,-8.637 8.64,-15.547 l 0,-122.664 c 0,-6.91 0,-13.825 -8.64,-13.825 l -8.64,0 0,152.036 z m -48.38,-183.129 57.02,0 c 31.09,0 57.01,10.363 57.01,38.008 l 0,136.484 c 0,27.644 -25.92,38.008 -57.01,38.008 l -57.02,0 0,-212.5"
         style="fill:#231f20;fill-opacity:1;fill-rule:evenodd;stroke:none"
         id="path24" /><path
         d="m 1335.53,484.641 c 0,-5.18 0,-13.821 -8.64,-13.821 -6.91,0 -8.64,8.641 -8.64,13.821 l 0,129.574 c 0,5.187 1.73,13.824 8.64,13.824 8.64,0 8.64,-8.637 8.64,-13.824 l 0,-129.574 z m -65.65,-6.911 c 0,-27.644 27.64,-38.007 57.01,-38.007 29.38,0 57.02,10.363 57.02,38.007 l 0,143.395 c 0,27.645 -27.64,38.012 -57.02,38.012 -29.37,0 -57.01,-10.367 -57.01,-38.012 l 0,-143.395"
         style="fill:#231f20;fill-opacity:1;fill-rule:evenodd;stroke:none"
         id="path26" /><path
         d="m 1454.74,626.309 5.19,0 c 8.63,0 12.09,-3.454 12.09,-13.821 l 0,-31.097 c 0,-10.368 -3.46,-13.821 -12.09,-13.821 l -5.19,0 0,58.739 z m 0,-183.129 0,100.203 c 17.28,0 17.28,-10.367 17.28,-24.188 l 0,-48.375 c 0,-13.824 3.45,-22.461 6.91,-27.64 l 48.37,0 c -1.73,8.636 -6.91,17.273 -6.91,38.008 l 0,41.464 c 0,24.184 -6.91,34.551 -38.01,36.282 l 0,0 c 29.37,1.722 38.01,19 38.01,34.55 l 0,19.004 c 0,32.828 -27.64,43.192 -57.01,43.192 l -57.01,0 0,-212.5 48.37,0"
         style="fill:#231f20;fill-opacity:1;fill-rule:evenodd;stroke:none"
         id="path28" /><path
         d="m 1587.77,641.859 c 0,-13.82 -8.64,-22.457 -20.73,-22.457 -10.36,0 -20.73,8.637 -20.73,22.457 0,12.094 10.37,20.735 20.73,20.735 12.09,0 20.73,-8.641 20.73,-20.735 z m -20.73,-31.097 c 15.55,0 31.1,12.093 31.1,31.097 0,17.278 -15.55,29.371 -31.1,29.371 -15.55,0 -31.1,-12.093 -31.1,-29.371 0,-19.004 15.55,-31.097 31.1,-31.097 z m -5.18,27.64 3.45,0 6.91,-13.82 6.91,0 -6.91,13.82 c 5.18,1.727 8.64,3.457 8.64,8.641 0,6.91 -5.18,10.363 -13.82,10.363 l -12.09,0 0,-32.824 6.91,0 0,13.82 z m 0,5.184 0,6.91 5.18,0 c 1.73,0 5.18,0 5.18,-3.453 0,-3.457 -1.73,-3.457 -3.45,-3.457 l -6.91,0"
         style="fill:#231f20;fill-opacity:1;fill-rule:evenodd;stroke:none"
         id="path30" /><path
         d="m 1537.67,1358.84 0,-3.46 -12.1,0 0,-32.82 -5.18,0 0,32.82 -12.09,0 0,3.46 29.37,0 z m -744.623,-461.285 0,0 -1.727,0 0,0 -6.91,1.726 -22.461,3.453 c -3.453,0 -6.91,0 -10.367,1.731 1.727,6.91 -6.91,5.18 -10.363,5.18 l 0,1.73 -8.641,0 c 0,3.457 -5.183,1.727 -6.91,3.457 l -12.094,1.723 c 0,1.73 3.457,0 3.457,1.73 l -8.64,1.727 -1.727,27.644 c 0,8.637 0,13.821 0,22.457 -1.726,0 -19.004,0 -20.734,0 l 1.73,1.731 c -1.73,1.726 -5.183,1.726 -6.91,5.179 l -3.457,-3.453 c -1.727,-1.726 0,-5.183 -1.727,-6.91 -6.91,0 -1.726,6.91 -3.453,10.363 3.453,3.457 12.09,1.731 15.547,1.731 l 0,-3.457 19.004,0 -1.726,38.003 1.726,1.74 c 1.727,0 3.453,-1.74 3.453,0 -1.726,0 -1.726,5.17 0,8.63 l 0,0 c -3.453,0 -1.726,5.19 0,6.91 -3.453,6.91 0,19.01 -3.453,27.65 -1.726,3.45 0,6.91 1.727,8.63 l 0,10.37 -58.743,0 -6.91,-5.18 0,0 c -1.726,1.72 0,5.18 0,5.18 -3.453,0 -12.09,-1.73 -13.816,3.45 l 0,3.46 c 5.18,-5.18 6.91,1.73 12.09,0 l -1.727,3.46 c 6.91,3.45 15.551,6.91 22.461,8.63 6.91,0 -8.641,1.73 -1.73,1.73 17.277,8.64 39.738,10.37 55.289,22.46 3.453,3.46 6.91,3.46 10.363,5.18 8.641,0 15.551,12.1 25.914,12.1 1.727,1.73 3.457,3.45 5.184,1.73 6.91,5.18 15.547,10.36 20.73,12.09 10.367,1.73 13.824,6.91 22.461,10.36 5.184,6.91 13.82,8.64 20.734,10.37 0,5.18 -1.73,6.91 -3.457,8.64 1.727,1.73 5.18,1.73 6.911,1.73 -1.731,-3.46 0,-6.91 1.726,-6.91 6.91,1.72 10.367,1.72 15.551,5.18 12.094,1.73 20.73,15.55 34.551,15.55 8.64,0 13.824,6.91 22.461,6.91 1.726,1.72 3.453,5.18 8.64,5.18 3.453,3.45 24.188,8.64 27.641,13.82 3.457,1.73 3.457,-3.45 6.914,-1.72 l 1.723,-1.73 c 6.914,-3.46 19.003,-3.46 22.461,-8.64 5.183,0 6.91,-5.19 8.64,-3.46 l 1.727,0 c 3.453,-1.73 8.64,-6.91 10.363,-5.18 1.73,-3.45 6.914,0 6.914,-3.45 3.453,-5.19 10.363,-5.19 15.543,-8.64 6.91,0 3.46,-8.64 12.1,-6.91 0,-3.46 3.45,0 3.45,-1.73 6.91,0 10.37,-3.46 13.83,-6.91 3.45,-1.73 1.72,-6.91 6.91,-3.46 0,5.19 6.91,0 5.18,-3.45 5.18,-5.19 12.09,-5.19 20.73,-10.37 l 12.09,-6.91 10.37,-6.91 c 17.28,-10.36 8.64,1.73 22.46,-6.91 3.45,-1.73 8.64,-5.18 10.36,-8.64 0,0 10.37,-5.18 15.56,-8.64 1.72,0 31.09,-17.27 36.27,-17.27 5.19,-5.19 10.37,-3.46 17.28,-6.91 3.46,0 8.64,-5.19 12.1,-5.19 0,0 3.45,-1.72 1.72,-1.72 1.73,-1.73 8.64,-1.73 6.91,-5.19 l -57.01,0 c 1.73,1.73 -6.91,0 -8.64,0 -5.18,0 -1.72,-8.64 -1.72,-12.09 l 0,-3.46 0,0 0,-3.45 c 0,-1.73 1.72,-5.18 0,-3.46 l 3.45,-8.63 c -5.18,-3.46 1.73,-6.91 1.73,-10.37 0,-8.64 -1.73,-15.55 0,-20.74 0,-3.45 6.91,-1.72 10.37,-3.45 0,-3.46 -5.19,0 -6.91,-1.72 -5.19,-1.74 -1.73,-6.91 -1.73,-12.1 1.73,-5.182 0,-13.823 0,-22.46 l 15.54,0 c 13.83,1.727 29.38,0 43.19,1.727 l 0,43.193 c 1.73,3.46 -1.72,-1.73 0,3.46 -1.72,1.72 -1.72,13.82 -1.72,15.55 0,6.91 -3.46,10.36 -1.73,13.82 5.18,0 5.18,-8.64 6.91,-13.82 1.73,3.45 -1.73,-1.73 1.73,0 l 24.19,0 -1.73,5.18 0,0 10.37,-3.46 0,-3.45 25.91,3.45 c 8.64,-1.72 6.91,3.46 15.55,0 l 0,53.56 c -3.46,1.73 -6.91,5.19 -10.37,6.91 -12.09,5.18 -10.36,6.91 -22.46,13.82 -3.45,0 -8.63,1.73 -10.36,5.18 -5.18,1.73 -17.28,10.37 -20.74,12.1 -15.55,8.64 -29.36,13.82 -41.46,24.18 -3.45,3.46 -15.55,5.19 -17.28,8.64 l -1.72,0 c -1.73,0 -1.73,0 -1.73,1.73 -6.91,0 -8.64,5.18 -12.09,5.18 -1.73,0 -5.19,0 -5.19,-5.18 -1.72,5.18 -5.18,0 -3.45,8.64 -1.73,1.73 -5.18,5.18 -8.64,6.91 -5.19,-1.73 -12.1,10.37 -17.28,10.37 -24.18,10.36 -27.64,13.81 -39.73,24.18 -5.19,0 -5.19,3.46 -12.1,3.46 -1.72,3.45 -5.18,1.73 -6.91,5.18 -5.18,0 -8.63,6.91 -12.09,1.73 -12.09,6.91 -19.01,8.64 -31.1,13.82 -5.18,3.46 -10.37,6.91 -22.46,13.82 -5.183,1.73 -8.637,5.18 -13.82,5.18 -3.457,5.19 -6.91,3.46 -10.367,6.91 -10.368,-1.72 -13.821,5.19 -22.457,8.64 0,0 1.722,-6.91 -1.731,-5.18 -3.453,-1.73 -5.183,8.64 -3.453,10.37 -5.184,1.72 -12.094,-3.46 -19.004,-8.64 -17.277,-5.19 -20.734,-5.19 -27.644,-12.1 -12.094,-3.45 -15.551,-3.45 -25.914,-8.63 -3.457,1.72 -3.457,-3.46 -6.911,-1.73 -6.914,-5.18 -13.82,-8.64 -20.73,-12.09 -6.914,0 -10.367,-3.46 -13.824,-5.19 -6.91,1.73 -3.453,-8.64 -12.094,-8.64 0,1.73 -1.727,3.46 0,5.19 -1.727,0 -3.457,0 -3.457,-1.73 -12.09,0 -19.004,-10.37 -32.824,-12.09 -1.727,-3.46 -5.184,-3.46 -8.637,-5.19 0,1.73 0,1.73 1.727,1.73 -3.457,1.73 0,13.82 0,15.55 0,5.18 -5.184,8.64 -3.457,13.82 l -1.727,24.19 -50.102,0 c 1.731,1.72 -6.91,-1.73 -6.91,-1.73 -6.91,1.73 -3.457,-8.64 -1.726,-10.37 l -1.731,0 1.731,-3.45 c 0,0 0,-1.73 -1.731,-1.73 l 1.731,-3.45 c 0,0 0,-3.46 -1.731,-3.46 l 3.457,-8.64 c -5.183,-3.45 1.731,-5.18 1.731,-8.64 0,-10.36 -5.188,-13.82 -3.457,-20.73 1.726,-3.46 8.636,0 12.093,-1.73 0,-3.45 -6.91,-1.73 -8.636,-3.45 -3.457,0 -1.731,-6.91 -1.731,-10.37 0,-1.72 0,-1.72 0,-3.45 l 0,0 c -1.726,-3.46 -10.367,-1.73 -10.367,-5.19 -3.453,-1.72 -5.18,-5.18 -8.637,-1.72 -1.73,-5.19 -17.277,-8.64 -20.73,-13.83 -10.367,1.73 10.363,-15.54 0,-12.09 -1.727,-3.45 -1.727,3.46 -1.727,1.73 l -3.457,-3.45 c 0,-8.64 -10.367,8.63 -13.82,3.45 0,3.45 -15.551,-8.64 -20.734,-10.36 -6.911,0 -6.911,-6.92 -12.094,-3.46 -3.453,-5.18 -8.637,-3.46 -12.094,-6.91 l 0,1.73 c -3.457,-1.73 -8.637,-3.46 -10.367,-6.91 -1.727,0 -8.637,-5.19 -12.094,-6.92 -5.18,-6.91 -15.547,-6.91 -25.914,-12.09 -1.726,-8.63 5.184,-6.91 0,-15.55 l 1.727,-58.74 c 3.457,0 -3.453,-1.73 -1.727,0 0,0 3.457,1.73 3.457,0 6.91,-3.45 8.637,1.73 12.094,0 6.91,-1.73 12.094,-3.45 19.004,0 3.453,3.46 5.183,-5.18 8.636,-3.45 6.915,5.18 10.368,1.72 19.004,0 3.457,0 10.368,1.72 12.098,-1.73 0,1.73 3.453,0 6.906,1.73 -1.726,-5.19 3.457,-12.1 -1.726,-13.82 l 1.726,-1.74 c -1.726,-15.54 5.184,-31.093 0,-48.366 -1.726,-3.457 0,-6.91 -1.726,-10.367 1.726,0 0,-3.454 1.726,-3.454 3.457,0 10.367,0 6.91,-5.187 l -1.726,0 c -5.184,0 -5.184,-6.91 -6.91,-12.09 3.457,-3.457 1.726,3.453 1.726,-1.73 -3.453,-3.457 5.184,-8.637 3.457,-13.821 -3.457,-8.64 0,-20.73 -3.457,-31.097 6.91,-1.731 0,-6.91 3.457,-10.368 1.727,-5.179 6.91,-6.91 10.368,-6.91 1.726,1.731 1.726,-1.726 3.453,-1.726 1.73,-1.731 5.183,-1.731 6.91,-3.457 5.187,1.726 3.457,-3.453 6.914,-3.453 1.726,-1.731 5.183,0 6.91,-1.731 8.637,0 13.82,-8.637 22.457,-5.18 1.731,-1.73 6.91,-5.187 10.367,-6.91 0,1.723 0,3.453 0,6.91 8.641,-1.73 13.821,-6.91 20.735,-10.367 1.722,0 5.179,1.727 6.91,-1.73 l 17.277,-3.453 17.274,-1.727 15.55,-3.457 0,3.457 c 5.18,-1.726 8.637,-3.457 13.821,-5.183 5.183,1.726 17.273,3.457 24.187,-1.727 l 0,0 c 5.184,0 15.551,-1.727 20.731,0 l 0,6.91 c 1.73,1.727 -3.454,0 -1.727,3.453 5.184,0 6.91,-3.453 10.363,-6.91 0,-3.453 -3.453,-3.453 -1.726,-6.91 6.914,-6.91 10.367,0 17.277,0 1.727,0 3.457,0 1.727,0 10.367,-3.457 24.187,-1.727 34.554,-3.457 3.457,0 5.184,5.187 6.911,1.73 1.726,1.727 6.914,0 8.64,0 l 0,0 c 8.637,0 19.004,-1.73 24.188,0 10.363,-3.457 22.457,0 32.824,0 10.367,5.184 19,-6.91 29.37,0 3.45,1.727 10.36,1.727 13.82,0 l 10.37,0 c 13.82,5.184 53.55,5.184 60.47,6.911 l 0,1.726 c 19,-3.453 27.64,13.824 46.64,8.637 8.64,1.73 13.83,5.187 22.46,6.91 6.91,-1.723 12.09,-1.723 19.01,1.73 3.45,0 12.09,0 15.55,-1.73 10.36,3.457 19,8.641 29.36,10.367 3.46,6.91 8.64,0 13.83,5.184 6.91,3.457 13.82,5.183 20.73,6.914 3.45,5.179 6.91,6.91 8.64,10.363 1.72,0 8.63,-3.453 10.36,-3.453 1.73,1.727 3.46,6.906 6.91,5.18 1.73,5.183 8.64,3.457 10.37,5.183 3.45,1.731 10.36,6.91 15.55,8.641 6.91,5.18 19,5.18 24.18,12.09 1.73,0 3.46,5.187 6.92,1.73 l 0,1.727 1.73,0 c 5.18,5.183 12.09,12.093 15.54,15.547 l 0,3.457 c 1.73,0 1.73,0 1.73,-1.727 l 6.91,0 c 8.64,10.367 22.46,13.82 31.1,24.188 1.73,1.726 1.73,6.91 6.91,5.183 3.45,1.727 -1.73,3.453 0,6.91 -1.73,0 -3.46,-1.726 -3.46,0 0,3.453 3.46,6.91 6.91,6.91 1.73,0 0,0 0,-1.726 13.82,-1.731 15.55,5.184 20.74,12.094 0,3.453 1.72,6.91 3.45,8.636 1.73,1.726 3.46,3.456 5.19,5.186 -1.73,5.18 6.91,6.91 3.45,10.37 -3.45,10.36 15.55,8.63 10.37,20.73 5.18,5.18 3.45,15.55 6.91,20.73 -5.18,5.18 3.45,8.64 3.45,12.09 -1.72,1.73 -3.45,5.18 -1.72,6.91 l 0,3.46 c 0,3.45 -1.73,22.46 1.72,22.46 0,3.46 -1.72,8.63 1.73,12.09 l 0,6.91 c -5.18,6.91 -1.73,17.28 -8.64,24.19 -1.72,5.18 -1.72,13.82 -3.45,20.73 -3.46,5.18 -5.18,12.09 -10.37,17.28 -3.45,6.91 0,13.82 -6.91,19 -1.73,1.73 -1.73,10.36 -24.19,29.37 0,10.37 -1.73,0 -8.64,5.19 -1.72,-1.73 -1.72,0 0,-5.19 -3.45,-1.73 -8.63,8.64 -3.45,12.1 0,8.63 -8.64,6.91 -10.37,12.09 -3.45,0 -1.72,5.18 -6.91,5.18 0,3.46 -6.91,5.18 -6.91,10.37 -6.91,5.18 -19,3.45 -25.91,12.09 -10.37,0 -13.83,8.64 -20.74,13.82 -3.45,0 -6.91,0 -8.64,1.73 -3.45,3.45 -1.72,6.91 -6.91,6.91 -8.63,-1.73 -6.91,8.64 -13.82,10.36 -6.91,0 -12.09,6.92 -17.27,5.19 -3.46,1.73 -5.19,1.73 -6.91,3.46 l -5.19,1.72 c -3.45,6.91 -13.82,0 -17.27,6.91 -8.64,3.46 -12.09,12.1 -22.46,10.37 -3.46,0 -5.19,5.18 -8.64,1.73 -3.46,1.73 -8.64,0 -10.37,3.45 -5.18,3.46 -6.91,0 -6.91,-1.72 -3.45,-5.19 3.46,-6.91 -1.72,-10.37 -1.73,1.73 -3.46,1.73 -3.46,1.73 -5.18,1.73 1.73,3.45 1.73,8.64 -3.46,5.18 -8.64,6.91 -13.82,8.63 -5.19,-1.72 -5.19,6.91 -10.37,3.46 -1.73,0 -3.46,1.73 -3.46,3.45 l -12.09,3.46 c -5.18,3.45 -12.09,3.45 -17.27,3.45 l -13.83,0 c -1.73,6.91 -8.64,5.19 -15.55,5.19 -1.72,5.18 -8.63,-1.73 -10.36,3.45 -5.18,-3.45 -8.64,0 -13.82,3.46 -5.19,-1.73 -15.55,1.73 -19.01,-1.73 -5.18,8.64 -10.36,3.46 -19,6.91 -1.73,3.46 -5.18,-3.45 -8.64,1.73 l -5.18,-1.73 c 0,0 0,0 0,1.73 -1.73,-3.46 -5.18,-1.73 -8.64,-1.73 -3.46,-1.73 -6.91,5.18 -10.37,1.73 -1.73,-1.73 -6.91,0 -8.64,1.73 l -13.82,0 c -1.72,-3.46 -5.18,1.72 -8.633,1.72 l 0,-1.72 c -5.184,1.72 -6.914,-3.46 -13.824,-1.73 -3.453,-3.46 -19.004,1.73 -22.457,3.45 -1.731,0 -3.457,-3.45 -3.457,-1.72 l -19.004,0 -1.727,-1.73 c -1.726,0 -5.183,0 -5.183,1.73 -3.453,0 -3.453,-5.19 -6.91,-1.73 l -12.094,1.73 c -6.914,1.72 -8.641,-1.73 -12.094,1.72 -1.727,-3.45 -6.91,0 -8.637,-3.45 -6.91,0 -6.91,-1.73 -15.55,-1.73 -5.184,0 -13.825,-3.45 -19.004,1.73 -6.911,-1.73 -12.094,-5.18 -17.278,-6.91 -5.183,-3.46 -17.277,-6.91 -20.734,-1.73 -8.637,1.73 -15.547,-1.73 -22.457,-1.73 -3.457,3.46 -6.91,-5.18 -10.367,0 -3.457,-1.73 -6.91,-1.73 -12.094,-1.73 -1.727,0 -1.727,-3.45 -5.18,-1.72 0,-3.46 -12.097,-1.73 -13.824,-5.19 -10.363,3.46 -13.82,-6.91 -24.187,-3.45 0,-1.73 -8.637,0 -10.364,0 -5.183,-5.18 -10.367,-5.18 -17.277,-5.18 -1.727,-3.46 -6.914,-6.91 -12.094,-5.19 -3.457,-5.18 -1.73,-8.63 -8.637,-6.91 -3.457,-6.91 -12.097,3.46 -13.824,-3.45 -3.453,1.73 -3.453,-3.46 -5.183,0 -6.911,-1.73 -12.094,-3.46 -17.278,-5.18 -1.726,-5.19 -6.906,-5.19 -10.363,-6.92 0,-5.18 1.727,-6.91 3.457,-8.63 l -1.73,-1.73 c -1.727,0 -3.454,1.73 -5.18,3.45 -3.457,0 -6.914,1.73 -8.641,-1.72 -3.457,3.45 -6.91,1.72 -10.367,5.18 -3.457,1.73 -3.457,-3.46 -5.184,-3.46 -8.636,-1.72 -15.546,-3.45 -22.457,-8.63 -6.91,0 -1.73,-5.19 -6.91,-6.92 -5.183,-1.73 -12.097,-3.45 -15.55,-6.91 -5.184,-3.45 -12.094,-6.91 -17.278,-10.36 -5.183,-3.46 -8.637,-6.91 -13.82,-10.37 -1.731,-1.73 -6.91,0 -6.91,-3.45 -1.731,-1.73 -1.731,-5.19 -5.184,-3.46 -1.726,-6.91 -22.461,-17.28 -24.187,-19 -6.911,6.91 -10.364,-5.19 -15.551,-8.64 -3.453,-1.73 -3.453,-5.18 -6.91,-6.91 -5.18,-6.91 -10.368,-10.37 -15.547,-17.28 -5.184,1.73 0,-5.18 -6.91,-3.45 -3.457,-6.92 -8.637,-13.83 -12.094,-20.74 -8.641,-5.18 -15.551,-20.73 -19.008,-22.46 -1.726,-6.91 -12.09,-12.09 -10.363,-12.09 1.726,-5.18 -1.727,-6.91 -1.727,-8.64 0,-8.63 -5.183,-6.91 -6.914,-12.09 1.731,-6.91 -5.18,-6.91 -3.453,-12.09 -3.457,-5.19 -1.727,-15.56 -5.184,-19.01 0,-5.18 -1.726,-10.37 -5.183,-17.28 8.64,0 3.457,-13.82 5.183,-19 -1.726,0 -3.453,0 -5.183,0 0,-5.18 0,-10.37 -1.727,-13.82 0,-3.46 3.457,-5.18 5.184,-6.91 l -3.457,-5.18 c 3.457,-5.19 3.457,-10.37 3.457,-12.1 1.726,-5.18 3.453,-12.09 5.183,-17.27 1.727,-1.74 -5.183,-5.19 -3.457,-6.91 -1.726,-1.74 6.915,-3.46 5.184,-5.19 3.453,-12.092 -3.457,-29.37 5.184,-36.28 -1.731,-3.457 0,-5.183 1.726,-5.183 -3.457,-3.453 3.457,-5.184 3.457,-8.641 0,-3.453 1.727,-6.91 3.453,-10.363 5.184,0 3.457,-6.91 5.184,-8.637 3.453,-1.73 6.91,-8.641 8.641,-13.824 5.179,-5.18 8.636,-13.82 13.82,-20.731 0,-1.726 1.726,-1.726 3.457,-1.726 3.453,-8.641 10.363,-15.551 17.273,-20.735 l 0,-8.636 8.641,-3.457 c -1.73,-10.364 6.91,-3.453 3.453,-6.91 10.367,-6.911 13.824,-20.731 27.645,-25.914 3.453,-13.821 12.093,-5.184 15.547,-13.821 3.457,0 10.367,8.637 12.093,8.637 3.453,0 5.184,-6.91 6.91,-1.727 0,-3.457 -5.179,-5.183 -5.179,-5.183 0,-1.727 -1.731,-1.727 -1.731,-1.727 l 0,-5.183 c 5.184,-3.457 6.91,-6.914 12.094,-8.641 6.91,-3.453 5.184,-10.363 12.094,-12.09 3.457,-6.91 10.367,-6.91 15.547,-8.64 5.187,-5.184 15.55,-1.727 17.277,-10.368 8.641,-5.179 19.004,-8.636 29.371,-10.367 3.457,-8.637 13.82,-5.18 20.734,-8.637 0,0 0,0 1.727,0 3.457,-1.726 17.273,-1.726 20.73,-8.636 3.458,1.726 3.458,-1.731 6.911,-1.731 3.457,-3.453 6.91,-1.722 10.367,-3.453 0,-3.457 3.457,0 3.457,-3.457 3.453,-1.726 6.91,0 8.637,-1.726 1.726,-1.727 5.183,0 6.91,-1.727 5.183,0 10.367,-1.727 15.551,-3.457 5.179,1.73 12.093,-1.727 15.546,-1.727 3.457,-3.453 5.184,0 6.911,-3.453 3.457,0 8.636,0 12.093,-1.73 1.731,-1.727 5.184,0 5.184,-1.727 l 6.91,0 c 5.184,-3.457 15.551,0 17.277,-3.457 1.727,1.727 5.184,-1.726 6.911,1.727 0,-1.727 1.726,-1.727 3.453,0 l 0,-1.727 13.824,-1.726 c 3.453,-1.727 25.914,-8.637 29.367,-5.184 1.731,0 1.731,0 1.731,0 l 15.546,-1.727 0,-1.726 c 3.457,1.726 8.641,0 12.098,1.726 3.453,-3.453 5.18,3.454 8.637,-1.726 5.183,0 6.91,3.453 8.637,0 l 10.367,0 c 6.91,-5.184 20.73,0 27.644,-3.457 6.91,5.183 8.637,-3.457 13.821,0 5.183,3.457 6.91,-1.727 12.093,0 3.453,-1.727 12.094,-1.727 15.547,0 5.184,3.457 12.094,0 13.82,3.457 8.641,-1.727 17.278,-3.457 29.372,0 3.457,-3.457 5.183,3.453 6.91,0 17.273,-5.184 29.373,5.18 46.653,5.18 8.64,-3.454 20.73,1.73 31.09,1.73 6.91,3.453 13.82,-3.457 20.74,-1.73 l 3.45,0 5.18,0 c 10.37,0 22.46,8.64 34.56,8.64 5.18,-3.457 5.18,0 8.64,1.727 3.45,0 6.91,0 8.64,-1.727 3.45,1.727 8.63,3.457 13.81,5.184 3.46,1.726 8.64,-3.457 12.1,0 13.82,-1.727 22.46,6.91 36.28,6.91 1.72,3.453 10.36,5.184 15.55,8.641 6.91,1.722 13.82,1.722 15.55,0 6.91,1.722 13.82,3.453 20.73,5.179 5.18,0 8.64,3.457 12.09,5.184 5.19,0 8.64,6.91 15.55,6.91 5.18,3.453 10.37,6.91 19,8.641 1.73,1.726 6.91,-1.731 6.91,3.453 5.19,-1.727 8.64,3.457 13.83,3.457 10.37,0 15.55,5.179 24.19,6.91 1.72,8.637 10.36,8.637 15.54,10.367 8.64,1.727 15.55,8.637 24.19,13.817 3.46,3.457 10.37,6.914 15.55,12.097 8.64,0 12.09,8.637 20.73,8.637 12.1,8.641 24.19,17.277 34.56,24.187 1.72,5.184 -1.73,6.911 0,10.368 6.91,3.453 12.09,0 15.54,5.179 1.73,5.188 10.37,8.641 5.19,12.098 1.73,1.727 3.45,3.453 3.45,6.906 6.91,1.731 6.91,6.914 10.37,8.641 8.64,1.726 6.91,13.824 13.82,15.547 3.45,10.367 13.82,13.824 15.55,25.918 5.18,5.183 6.91,8.636 8.64,15.55 12.09,17.274 22.46,38.004 25.91,60.467 1.73,1.72 3.46,0 3.46,-1.73 1.72,3.45 5.18,6.91 6.91,12.1 -5.19,1.72 0,6.91 -5.19,10.36 0,1.73 3.46,1.73 5.19,1.73 1.73,1.73 1.73,8.64 1.73,13.82 l 1.72,0 c -1.72,5.18 0,10.37 1.73,12.09 l -1.73,0 1.73,5.19 c 1.73,0 1.73,5.18 3.46,5.18 l -1.73,5.18 c 0,0 0,1.73 1.73,1.73 l 0,15.55 1.72,0 c 1.73,5.19 -1.72,6.91 -3.45,10.36 l 1.73,1.73 c -3.46,13.82 -6.91,27.65 -5.19,43.2 -3.45,6.9 -8.64,13.81 -5.18,24.18 -5.18,1.73 0,10.37 -8.64,12.1 0,6.91 -5.18,12.09 -5.18,19 -1.73,3.45 -3.45,8.64 -6.91,8.64 -3.45,1.73 -5.18,5.18 -5.18,5.18 1.73,13.82 -12.1,22.46 -20.74,32.83 3.46,0 0,3.45 1.73,5.18 0,3.45 -3.46,5.18 -6.91,8.64 -5.18,8.64 -15.55,10.36 -17.28,20.73 -5.18,5.18 -5.18,6.91 -10.36,12.09 -3.46,1.73 -3.46,3.46 -5.18,5.18 -1.73,0 -3.46,1.73 -3.46,3.46 -8.64,3.45 -15.55,13.82 -22.46,13.82 l 10.37,1.73 c -6.91,5.18 -10.37,13.82 -22.46,13.82 -5.18,5.19 -8.64,15.55 -17.28,13.82 -3.46,0 -3.46,3.46 -5.18,6.91 -1.73,3.46 -10.37,6.91 -13.83,6.91 -5.18,1.73 -8.63,5.19 -13.82,10.37 -3.45,0 -3.45,3.46 -6.91,3.46 -5.18,-3.46 -6.91,5.18 -10.36,3.45 0,6.91 -8.64,3.46 -12.1,6.91 1.73,3.46 -3.45,0 -3.45,3.46 -5.18,-1.73 -6.91,3.45 -10.37,5.18 0,0 -5.18,1.73 -12.09,6.91 -3.45,0 -8.64,1.73 -13.82,3.45 -3.46,0 -5.19,5.19 -8.64,5.19 -5.19,1.72 -15.55,3.46 -20.73,5.18 -5.19,3.46 -3.46,5.19 -8.64,6.91 -5.18,1.73 -12.09,3.46 -17.28,5.19 -3.45,0 -6.91,3.45 -10.36,5.18 -1.73,0 -3.46,0 -6.91,1.73 -10.37,3.45 -20.73,8.64 -32.83,12.09 -8.64,0 -13.82,0 -20.73,1.73 -6.91,3.45 -15.55,5.18 -24.19,5.18 -5.18,1.73 3.46,-1.73 -1.73,0 -1.72,0 -13.82,3.46 -13.82,3.46 -3.45,0 -12.09,3.45 -15.54,3.45 -8.64,-3.45 -17.28,1.73 -25.92,3.46 0,0 -1.73,0 -3.46,0 l -1.73,0 c 3.46,0 0,-1.73 -5.18,0 -1.73,0 0,1.72 0,1.72 -1.73,0 -3.45,0 -5.18,0 -3.46,0 -5.18,1.73 -6.91,1.73 -5.18,0 -6.91,0 -8.64,0 -1.73,-3.45 3.46,-6.91 0,-8.64 -3.45,1.73 -5.18,-3.45 -8.64,0 3.46,1.73 -1.73,3.46 -1.73,6.91 -1.72,0 -3.45,0 -3.45,1.73 0,1.73 0,1.73 1.73,1.73 l 0,1.73 c -3.46,1.72 -29.37,-1.73 -36.28,0 -1.73,3.45 -3.46,0 -5.19,1.72 l -3.45,0 c -3.46,1.73 -10.37,-1.72 -15.55,0 -1.73,-1.72 -1.73,-3.45 -3.46,-5.18 -6.91,0 -10.36,-8.64 -17.27,-10.36 -1.73,1.72 -3.46,1.72 -3.46,3.45 3.46,3.46 8.64,10.37 13.82,12.09 -1.73,1.73 -8.64,-3.45 -10.36,-3.45 -8.643,1.73 -8.643,0 -19.007,0 -8.64,5.18 -22.46,0 -31.097,0 -3.457,1.73 -5.188,0 -6.91,1.73 l -15.551,0 c 0,-3.46 1.726,-10.37 0,-12.1 -3.453,1.73 -10.363,-1.72 -10.363,6.91 -1.731,1.73 -5.188,1.73 -10.368,0 -5.183,3.46 -10.367,0 -15.55,0 0,-5.18 3.453,-6.91 3.453,-12.09 1.73,-5.18 6.914,0 10.367,0 l 0,-1.73 c 1.73,1.73 6.91,1.73 8.641,0 -3.457,-3.45 -3.457,-5.18 -5.184,-8.63 6.91,-8.64 10.367,3.45 19.004,1.72 1.726,3.46 -3.453,3.46 -5.184,6.91 l 3.457,1.73 c 5.184,-1.73 5.184,-5.18 6.91,-10.36 3.454,-3.46 5.184,3.45 10.368,1.72 l 1.722,-6.91 c 1.731,-1.72 6.914,-3.45 8.641,-3.45 3.457,-1.73 5.184,1.73 6.914,0 l 3.453,1.73 c 0,-1.73 0,-1.73 0,-1.73 l 3.457,1.73 0,-1.73 c 0,0 0,0 0,-1.73 0,-1.73 5.18,0 3.453,-5.18 l -1.726,0 c 1.726,-1.73 3.453,-1.73 5.183,-3.46 1.727,-1.73 5.18,1.73 6.91,0 3.454,0 3.454,5.18 5.184,3.46 3.453,-1.73 8.633,3.45 10.363,1.72 3.46,1.73 3.46,-5.18 5.18,-1.72 1.73,-3.46 8.64,3.45 12.1,3.45 13.82,-15.55 15.55,0 31.1,-10.36 5.18,0 19,-1.73 39.73,-3.46 3.46,0 5.19,0 8.64,-1.73 1.73,0 3.46,1.73 5.18,1.73 1.73,0 5.19,-1.73 8.64,-1.73 0,-1.72 3.46,-3.46 3.46,-3.46 3.45,0 3.45,1.74 5.18,1.74 3.45,0 3.45,0 5.18,-1.74 1.73,0 5.18,0 6.91,-1.72 3.46,0 3.46,1.72 6.92,1.72 8.63,-1.72 13.82,-3.45 22.46,-6.91 5.18,0 5.18,-1.72 8.63,-3.45 1.73,0 8.64,1.73 10.37,0 1.73,0 3.45,0 6.91,0 l 6.91,-5.18 c 12.09,-3.46 15.55,-1.73 25.91,-5.19 6.91,-1.72 10.37,-3.45 15.55,-5.18 1.73,-1.73 6.92,-3.45 8.64,-3.45 5.19,3.45 5.19,-3.46 10.37,-3.46 1.73,0 5.18,-3.45 8.64,-1.73 -1.73,0 0,-1.72 0,-1.72 l 3.45,0 c 3.46,-3.46 8.64,3.45 8.64,-3.46 8.64,-3.46 13.82,0 17.28,-8.64 5.18,1.73 13.82,-3.45 19,-3.45 3.45,-5.19 6.91,-8.64 13.82,-6.91 l 1.73,-3.46 c 13.82,-6.91 19.01,-8.64 22.46,-8.64 1.73,-8.63 12.09,-3.45 15.55,-8.63 8.64,-1.73 12.09,-8.64 19,-12.1 3.46,-1.73 6.91,3.46 8.64,-1.73 0,-1.72 -1.73,-1.72 -1.73,-1.72 l 0,-1.73 c 10.37,-1.73 13.82,-10.37 22.46,-15.55 0,0 3.46,0 3.46,-1.73 5.18,-5.18 10.36,-10.37 13.82,-17.28 5.18,-5.18 17.28,-10.36 20.73,-17.27 5.19,-3.46 6.91,-6.91 10.37,-8.64 3.45,-3.46 6.91,-5.18 6.91,-10.37 6.91,-5.18 8.64,-10.36 12.09,-19 6.91,-10.37 12.1,-19.01 20.73,-29.37 0,-5.18 3.46,-8.64 5.19,-12.09 1.72,0 1.72,-5.19 1.72,-6.92 l -1.72,0 c 0,-5.18 10.36,-6.91 3.45,-12.09 3.46,-6.91 5.18,-13.82 10.37,-17.27 -3.46,0 -3.46,-8.64 -1.73,-10.37 -1.73,-5.18 3.45,-8.64 1.73,-17.28 5.18,-6.91 1.72,-19 1.72,-27.64 3.46,-3.46 5.19,-1.73 6.91,0 3.46,0 1.73,-1.73 1.73,-3.46 -1.73,-3.45 -3.45,-6.91 -5.18,-10.36 l -1.73,1.73 c -1.73,-6.92 5.18,-8.64 1.73,-15.55 l 0,0 c 0,-3.46 1.73,-3.46 0,-5.19 1.73,-5.18 -3.46,-8.63 -3.46,-12.09 -5.18,-3.45 -5.18,-12.09 -8.63,-19 0,-1.73 1.72,-5.19 -1.73,-5.19 1.73,-3.45 0,-5.18 -1.73,-6.91 -1.73,-6.91 -8.64,-8.63 -8.64,-15.54 l 1.73,0 c 3.46,1.72 5.18,1.72 5.18,5.17 1.73,0 1.73,-3.45 3.46,-5.17 -3.46,-3.46 -3.46,-8.646 -5.18,-10.372 -1.73,0 -1.73,1.726 -1.73,3.452 -3.46,3.46 -8.64,-1.726 -8.64,-5.183 -5.18,0 -1.73,-8.636 -6.91,-8.636 -5.18,-3.453 -5.18,-8.637 -10.37,-13.821 1.73,-5.183 -1.72,-6.91 -1.72,-13.824 -8.64,-1.723 -10.37,-10.363 -15.55,-15.547 -5.18,-1.726 -5.18,-8.64 -6.91,-13.82 l 1.73,0 0,-1.727 c 5.18,-1.73 5.18,3.453 8.63,3.453 l 5.19,-8.636 -1.73,-1.727 c -5.18,-1.73 -10.37,1.727 -13.82,3.453 -5.18,1.727 -10.37,0 -13.82,-3.453 0,-8.64 -12.1,-5.187 -15.56,-13.824 -3.45,0 -3.45,-3.453 -6.91,-5.184 0,-1.726 -1.72,-3.453 -5.18,-5.179 -8.64,-10.367 -22.46,-12.094 -32.82,-20.735 -3.46,-5.183 -8.64,-5.183 -15.55,-6.91 -15.55,-5.183 -29.37,-15.547 -46.65,-22.461 -5.18,-5.179 -15.55,-12.09 -15.55,-12.09 0,-3.457 -8.64,-3.457 -8.64,-3.457 0,1.727 0,1.727 0,1.727 l -5.18,-1.727 c -3.45,-6.91 -10.37,-3.457 -17.28,-6.91 -3.45,0 -6.91,-5.183 -10.36,-1.73 0,-3.453 -6.91,-1.727 -6.91,-6.91 -5.18,3.457 -8.64,0 -12.09,-1.727 -8.65,1.727 -8.65,-6.91 -15.56,-3.457 -6.91,-3.453 -17.27,-3.453 -22.45,-6.91 -3.46,0 -6.91,-5.18 -8.64,-1.727 -3.46,1.727 -3.46,-3.453 -6.91,-3.453 -5.19,-1.73 -6.91,-1.73 -10.37,-1.73 -1.73,-6.91 -15.55,0 -20.73,0 l 0,-1.727 c -3.45,-1.726 -8.64,-1.726 -12.09,0 -5.19,-3.453 -13.83,-8.641 -22.47,-8.641 l 0,1.731 -3.45,-1.731 c 0,0 0,0 0,1.731 -5.18,-3.457 -6.91,-1.731 -13.82,-1.731 -3.46,-3.453 -15.55,-5.179 -24.19,-3.453 l 0,0 c -3.45,1.727 -6.91,1.727 -8.64,0 -3.45,0 -6.91,-3.457 -6.91,-1.726 -12.09,-1.731 -24.18,-1.731 -34.55,0 l 0,0 c -8.64,0 -15.55,-1.731 -20.73,-3.457 -1.73,0 -1.73,0 -1.73,0 -8.64,1.726 -12.09,-3.453 -20.733,-3.453 -5.184,3.453 -15.547,1.726 -20.731,0 -5.183,0 -17.277,3.453 -22.461,0 -1.726,-3.457 1.731,-3.457 0,-6.914 l 1.731,0 c 0,-5.184 -6.914,0 -10.368,-1.727 -8.636,-1.727 0,3.453 -1.726,6.91 -3.457,5.184 -15.551,1.731 -20.734,1.731 l 0,1.726 c -6.911,1.727 -13.821,-3.457 -22.458,-1.726 0,-1.731 0,-1.731 -1.73,-1.731 -3.453,1.731 -6.91,1.731 -8.637,3.457 l -3.453,-1.726 c 0,0 -1.73,0 0,1.726 l -3.457,0 c -8.64,-3.457 -13.82,3.453 -24.187,3.453 0,-1.726 -3.457,-3.453 -5.184,-1.726 -1.727,5.183 -6.91,-1.727 -12.094,1.726 -6.91,-5.179 -17.277,0 -25.914,3.457 0,-3.457 -3.457,-1.726 -5.183,-1.726 -3.453,1.726 -8.641,6.91 -13.821,6.91 -13.824,-5.184 -22.461,6.91 -38.011,5.184 l 0,0 -8.637,1.726 c -5.184,-1.726 -6.91,5.184 -10.363,5.184 -5.188,-1.727 -10.368,0 -17.278,-1.727 -3.457,10.363 -17.277,0 -22.461,8.637 -1.73,1.726 -5.183,0 -5.183,1.726 l -3.457,-5.183 c -3.453,10.367 -17.274,3.457 -22.457,8.637 -1.727,3.457 -8.637,1.73 -10.368,6.914 -1.726,0 -5.183,0 -6.91,1.726 -8.636,0 -12.093,3.457 -19.004,8.637 -1.726,-1.727 -5.183,-3.453 -6.91,-1.727 0,-1.726 0,-3.453 0,-3.453 -3.457,0 -6.91,5.18 -8.636,5.18 -1.731,3.457 -8.641,3.457 -5.188,8.641 -10.363,1.726 -20.727,12.093 -31.094,13.82 0,13.82 -17.277,8.64 -22.461,19.004 -1.726,13.824 -15.55,10.367 -20.73,24.187 -8.641,-1.726 -1.731,8.641 -10.367,8.641 -1.731,8.637 -13.821,3.453 -15.551,12.09 -3.453,3.457 -3.453,8.64 -6.91,12.097 -3.453,3.453 -3.453,12.094 -8.637,13.821 -3.457,5.183 -6.914,8.636 -8.637,15.55 -8.64,1.723 -1.73,6.911 -3.457,12.09 -6.91,1.731 -8.64,6.91 -12.093,12.094 1.726,1.731 1.726,3.453 3.453,1.731 -1.727,1.722 -3.453,6.91 -3.453,10.363 -8.641,5.183 -5.184,17.279 -10.368,22.459 0,8.64 -1.726,13.82 -3.453,20.73 -3.457,5.19 -1.73,13.83 -1.73,22.46 0,1.73 0,1.73 1.73,1.73 0,10.37 -5.183,24.19 0,32.83 1.727,1.72 1.727,5.18 3.453,8.63 0,6.91 5.184,13.82 8.641,19.01 -1.73,6.91 3.453,10.37 1.727,15.55 5.183,5.18 6.91,12.09 13.82,19 5.183,0 5.183,8.64 10.367,12.09 1.727,5.19 6.91,12.1 10.363,19.01 3.457,3.46 13.825,8.64 19.004,12.09 3.457,3.46 3.457,8.64 8.641,10.37 3.457,0 1.726,5.18 5.183,5.18 l 0,1.73 c 1.727,1.73 3.454,1.73 6.911,1.73 1.726,5.18 10.367,10.36 13.82,6.91 5.184,1.73 8.637,5.18 10.367,8.64 0,-1.73 0,-1.73 0,-1.73 3.457,6.91 10.367,3.46 12.094,10.37 6.91,0 10.363,3.45 13.82,8.63 6.91,0 10.367,5.19 13.82,6.91 6.915,5.19 12.094,8.64 19.004,12.1 8.641,0 8.641,-3.46 15.551,-1.73 3.453,5.18 8.637,10.37 15.551,12.09 5.18,6.91 17.277,0 22.457,6.91 6.91,-1.72 10.367,8.64 17.277,6.91 3.457,3.46 8.637,1.73 12.094,1.73 8.641,3.46 19.004,5.18 25.914,6.91 8.641,0 13.82,10.37 22.461,8.64 3.457,-3.46 6.91,3.45 10.367,-1.73 l 0,1.73 c 6.907,-1.73 6.907,5.19 10.364,10.37 3.453,0 6.91,-3.46 8.64,-5.18 8.637,0 12.09,-5.19 19.004,0 10.363,0 20.731,0 27.641,1.72 5.183,-1.72 13.824,-1.72 19.004,0 5.183,6.91 17.277,1.73 20.734,8.64 13.82,-1.73 24.187,1.73 36.281,1.73 l 3.453,1.73 c 13.825,-5.19 22.461,1.72 38.008,1.72 5.184,1.73 10.367,-6.91 13.82,-1.72 1.731,-1.73 1.731,-1.73 1.731,-1.73 6.91,-1.73 8.637,3.45 15.547,1.73 3.457,0 6.91,3.45 8.64,1.72 3.454,-3.45 10.364,0 12.097,-5.18 5.18,-3.45 15.54,-1.73 22.45,-1.73 3.46,-5.18 6.91,1.73 8.64,-1.72 l 0,0 c 0,0 6.92,0 8.64,0 5.19,3.45 13.83,-1.73 20.74,0 5.18,0 6.91,-5.19 10.36,0 3.46,-1.73 15.55,-3.46 17.28,-5.19 3.45,0 6.91,-1.72 8.64,-1.72 1.72,3.45 3.45,-3.46 5.18,0 l 0,0 c 6.91,0 10.36,-1.74 13.82,-5.19 5.18,3.45 6.91,-5.18 10.36,-3.46 l 1.73,0 c 5.18,-3.45 12.1,-1.72 17.28,-1.72 1.73,-3.46 6.91,-1.73 10.37,-3.46 l 0,0 c 3.45,0 6.91,0 8.64,-1.73 3.45,-5.18 12.09,0 15.54,-6.91 5.19,1.73 8.64,-8.63 13.82,-3.45 3.46,0 3.46,6.91 6.92,5.18 5.18,-3.45 6.91,-10.36 8.63,-13.82 5.18,0 6.91,-5.18 10.37,-5.18 6.91,-3.46 13.82,-1.73 19,-6.91 5.19,3.45 8.64,-5.19 12.1,-3.46 5.18,-3.45 12.09,-5.18 15.55,-5.18 12.09,-5.18 19,-12.09 29.37,-19 6.91,-1.73 8.63,-3.46 15.54,-6.91 3.46,-3.46 3.46,-6.92 8.64,-6.92 3.46,-3.45 5.18,-5.18 8.64,-5.18 1.73,-5.18 8.64,-1.73 12.09,-5.18 0,-1.73 3.46,-6.92 3.46,-8.64 8.64,-5.19 8.64,-12.09 17.28,-13.82 0,-10.37 10.36,-5.18 13.82,-10.37 0,-5.18 5.18,-6.91 6.91,-12.09 0,-5.19 8.64,-6.91 5.18,-13.82 l -1.73,0 0,-3.46 1.73,0 c 1.73,0 1.73,-1.72 1.73,-1.72 l 1.73,0 c 5.18,0 3.45,0 0,-6.91 l 3.45,-3.46 c -1.72,-6.91 5.19,-6.91 5.19,-13.82 3.45,-1.73 0,-6.91 1.72,-10.37 l 1.73,0 c 3.46,-5.18 0,-10.37 -1.73,-15.54 3.46,-5.19 5.19,-20.74 1.73,-29.38 l 0,0 1.73,-1.73 c -3.46,-5.18 -1.73,-8.63 -5.18,-12.09 0,-6.91 -3.46,-10.36 -5.19,-13.82 -3.45,-8.64 -12.09,-17.28 -13.82,-27.65 -10.36,-1.72 -8.64,-17.27 -19,-20.726 -5.18,-5.183 -6.91,-8.636 -12.09,-12.093 -5.19,0 -1.73,3.457 -5.19,1.726 -6.91,-3.457 -6.91,-20.73 -19.01,-15.547 -5.18,-5.183 -13.82,-5.183 -19,-12.093 -6.91,0 -8.64,-5.184 -15.55,-8.641 -5.18,3.457 -5.18,-6.91 -8.64,-6.91 -5.18,0 -6.91,-5.18 -12.09,-5.18 -1.73,1.727 -5.18,0 -5.18,1.727 -1.73,3.453 -3.46,-1.727 -5.18,-1.727 -6.91,-1.73 -8.64,-5.187 -13.82,-6.914 -3.46,-3.453 -6.92,-5.18 -12.1,-5.18 -12.1,-3.457 -20.73,-6.91 -34.55,-6.91 l 0,-1.73 c -5.19,-3.457 -12.1,-5.18 -17.28,-6.91 -8.64,1.73 -10.37,-5.184 -19,-3.457 -10.37,-3.454 -24.19,0 -34.56,-3.454 -1.73,-3.457 -6.91,0 -10.36,-1.726 -1.73,-5.184 -8.64,1.726 -10.37,-3.457 -3.45,3.457 -6.91,-1.727 -12.09,0 -6.91,-3.453 -13.82,-5.184 -24.19,-3.453 -1.73,-1.731 -5.18,-3.457 -6.91,-1.731 -1.73,-1.726 -5.18,0 -8.64,0 -5.18,-3.457 -36.28,-5.183 -41.46,-3.457 -5.19,0 -8.64,-3.453 -12.1,-1.726 -22.457,-5.18 -44.914,-1.727 -65.649,-3.453 l -3.453,1.726 c -1.726,-3.453 -5.183,-1.726 -6.91,-1.726 -3.457,1.726 -3.457,-3.458 -5.183,0 -8.641,0 -17.278,0 -24.188,-1.727 l 0,1.727 -15.547,1.726 c -5.187,-3.453 -13.824,0 -20.734,-1.726 -1.731,-1.727 0,-8.637 -5.184,-5.184 0,1.726 -6.91,1.726 -3.453,5.184 0,3.453 -1.73,3.453 -3.457,1.726 -1.727,0 -1.727,1.727 -1.727,1.727 -5.183,0 -10.367,0 -13.824,3.457 -3.453,-1.731 -8.636,0 -12.09,0 l -13.824,1.726 c -5.179,-1.726 -10.367,5.184 -13.82,1.731 z m 5.183,561.485 c 3.458,-5.18 -1.73,-6.91 0,-10.36 0,-5.18 6.911,-3.46 10.368,-3.46 l 0,0 8.636,1.73 c 0,1.73 1.727,3.46 1.727,5.18 -1.727,1.73 -8.637,3.46 -10.363,8.64 -1.731,5.18 -10.368,-1.73 -13.825,0 0,-1.73 1.727,-3.45 3.457,-1.73 z m 138.211,-20.73 c -1.726,0 -1.726,0 -1.726,0 -1.727,0 -1.727,0 -3.453,1.73 l 1.726,3.46 c -1.726,1.72 -5.183,1.72 -6.91,3.45 -3.457,-1.73 -1.726,-6.91 -3.457,-8.64 3.457,0 8.641,0 12.094,0 0,0 0,0 1.726,0 z m 3.457,0 5.184,0 c 0,1.73 -1.73,1.73 0,1.73 -5.184,5.18 -6.91,-1.73 -8.641,-1.73 0,0 1.731,0 3.457,0 l 0,0 z m -131.3,-5.18 c 0,1.73 1.726,1.73 0,5.18 -1.731,1.73 -5.184,1.73 -8.641,1.73 -5.184,-1.73 -6.91,-6.91 -6.91,-10.37 l 1.726,0 c 3.457,1.73 8.641,1.73 13.825,3.46 z M 692.84,1419.3 c 0,0 0,-1.72 1.73,-1.72 1.727,1.72 3.457,-3.45 5.184,0 1.726,0 1.726,1.72 0,3.46 l -6.914,-1.74 z m 60.469,8.65 c 1.73,1.72 1.73,3.45 0,3.45 -3.454,-1.73 -6.911,5.18 -10.364,3.46 -3.457,-1.73 -3.457,-6.91 -1.726,-10.37 l 12.09,3.46 z m -34.551,8.63 -1.727,-3.45 6.91,1.73 -5.183,1.72 z m 105.387,10.37 c -1.731,-3.45 1.726,-3.45 3.457,-5.18 3.453,0 6.91,3.45 5.179,6.91 -1.726,3.45 -8.636,3.45 -8.636,-1.73 z m -57.012,-6.91 c 8.637,1.73 20.73,0 20.73,8.64 0,0 -1.726,0 0,0 -8.64,-1.73 -12.093,0 -20.73,0 l 0,0 c 0,-1.73 -1.727,-1.73 -1.727,-1.73 0,-3.45 0,-5.18 1.727,-6.91 z m 77.746,19 c -5.188,-6.91 5.18,-5.18 3.453,-8.63 3.457,1.72 8.637,3.45 12.094,3.45 5.183,-3.45 0,-3.45 1.726,-8.64 -1.726,-5.18 -5.183,-1.72 -6.91,-1.72 -5.183,0 -10.363,5.18 -12.094,-1.73 1.731,-3.46 -1.726,-6.91 1.731,-6.91 5.18,0 15.547,0 13.816,6.91 0,-3.46 6.914,-3.46 3.457,-8.64 3.457,0 6.911,1.73 8.641,0 1.727,1.73 6.91,0 6.91,3.45 0,5.19 3.457,6.92 6.91,8.64 l 3.457,-3.45 c 1.727,-1.73 8.637,0 10.364,-5.19 6.91,3.46 20.73,-1.72 20.73,8.64 -3.453,3.46 -5.18,3.46 -8.637,3.46 -1.726,6.91 -6.91,-3.46 -10.367,3.45 0,-1.72 -3.453,-3.45 -5.18,-1.72 -6.91,6.91 5.18,3.45 5.18,8.63 0,3.46 -1.726,3.46 -3.453,5.19 -1.727,0 -6.91,-3.46 -8.637,0 0,0 0,1.72 1.727,1.72 l -1.727,6.91 -24.187,-3.45 -8.641,0 c -1.726,-1.73 -8.637,-10.37 -10.363,-12.09 0,0 -1.731,0 0,1.72 z m 36.281,-5.18 c -1.73,0 -1.73,-1.73 -5.187,-1.73 -1.727,1.73 -5.18,1.73 -6.91,3.46 l 12.097,-1.73 z m -58.746,6.91 3.457,1.73 c 5.184,1.73 5.184,0 5.184,0 0,0 -3.453,0 -8.641,-1.73 z m 15.551,-1.73 c 3.457,-3.45 6.914,3.46 6.914,6.91 -3.457,0 -8.641,-1.72 -12.098,-1.72 3.457,0 1.731,-3.46 5.184,-5.19 z m -17.274,-6.91 c 1.723,3.46 1.723,3.46 3.454,6.91 l 3.457,-3.45 1.726,6.91 c -1.726,-1.73 -6.914,-1.73 -10.367,-3.46 0,-1.72 0,-5.18 1.73,-6.91 z m 722.159,-93.29 6.91,0 10.37,-31.1 10.36,31.1 5.19,0 0,-36.28 -3.46,0 0,22.46 c 0,0 0,1.73 0,3.45 0,1.73 0,3.46 0,5.19 l -10.36,-31.1 -5.18,0 -10.37,31.1 0,-1.73 c 0,0 0,-1.73 0,-3.46 0,-1.72 0,-3.45 0,-3.45 l 0,-22.46 -3.46,0 0,36.28"
         style="fill:#ee293d;fill-opacity:1;fill-rule:evenodd;stroke:none"
         id="path32" /></g></g></svg>