<?xml version="1.0" encoding="UTF-8" standalone="no"?>
<!-- Created with Inkscape (http://www.inkscape.org/) -->

<svg
   xmlns:dc="http://purl.org/dc/elements/1.1/"
   xmlns:cc="http://creativecommons.org/ns#"
   xmlns:rdf="http://www.w3.org/1999/02/22-rdf-syntax-ns#"
   xmlns:svg="http://www.w3.org/2000/svg"
   xmlns="http://www.w3.org/2000/svg"
   xmlns:sodipodi="http://sodipodi.sourceforge.net/DTD/sodipodi-0.dtd"
   xmlns:inkscape="http://www.inkscape.org/namespaces/inkscape"
   id="svg7406"
   version="1.1"
   inkscape:version="0.48.4 r9939"
   width="750"
   height="750"
   sodipodi:docname="logo5-white.svg">
  <metadata
     id="metadata7412">
    <rdf:RDF>
      <cc:Work
         rdf:about="">
        <dc:format>image/svg+xml</dc:format>
        <dc:type
           rdf:resource="http://purl.org/dc/dcmitype/StillImage" />
        <dc:title></dc:title>
      </cc:Work>
    </rdf:RDF>
  </metadata>
  <defs
     id="defs7410" />
  <sodipodi:namedview
     pagecolor="#ffffff"
     bordercolor="#666666"
     borderopacity="1"
     objecttolerance="10"
     gridtolerance="10"
     guidetolerance="10"
     inkscape:pageopacity="1"
     inkscape:pageshadow="2"
     inkscape:window-width="1600"
     inkscape:window-height="848"
     id="namedview7408"
     showgrid="false"
     inkscape:zoom="1"
     inkscape:cx="99.617629"
     inkscape:cy="394.54907"
     inkscape:window-x="0"
     inkscape:window-y="0"
     inkscape:window-maximized="1"
     inkscape:current-layer="svg7406" />
  <path
     id="path3986"
     transform="matrix(4.9305556,0,0,6.4622642,-899.46763,-1042.2312)"
     style="fill:#ffffff;fill-opacity:1;stroke:none"
     d="m 329,220 c 0,29.27109 -32.2355,53 -72,53 -39.7645,0 -72,-23.72891 -72,-53 0,-29.27109 32.2355,-53 72,-53 39.7645,0 72,23.72891 72,53 z m -71.9979,-52.99859 c -39.7645,0 -72,23.72891 -72,53 0,29.27109 32.2355,53 72,53 27.91474,0 52.11796,-11.69152 64.06479,-28.78732 -0.19689,-0.4385 -0.68068,-0.83311 -1.38803,-1.37819 -1.71822,-1.32406 -1.86585,-1.6298 -1.24225,-2.50009 l 0.70986,-0.99133 2.02183,1.46523 1.44507,1.04453 c 4.10098,-6.6624 6.38873,-14.06241 6.38873,-21.85283 0,-29.27109 -32.2355,-53 -72,-53 z m 2.54789,1.46524 3.97394,0 0.48803,1.74571 c 0.26805,0.9607 0.37707,1.82762 0.24718,1.92464 -0.12989,0.097 -1.05586,-0.43489 -2.05986,-1.18477 -2.1475,-1.60394 -2.71309,-1.66641 -4.31619,-0.46907 -2.60385,1.94479 -0.57129,6.26716 2.94718,6.26716 0.91416,0 2.15207,-0.4054 2.7507,-0.89946 1.41312,-1.16625 1.66053,-0.92473 0.84296,0.82692 -0.63721,1.36525 -0.78584,1.41688 -4.06901,1.41688 -3.79158,0 -5.53587,-0.67152 -7.25704,-2.7854 -0.99961,-1.22768 -1.12092,-1.26254 -1.47043,-0.44006 -0.2803,0.65964 -1.04729,0.94739 -2.90915,1.09289 -3.04667,0.23808 -3.09488,0.21677 -2.25,-0.96232 0.36805,-0.51364 1.26618,-0.93983 1.99648,-0.94297 3.06304,-0.0141 4.02465,-0.48791 4.02465,-1.98267 0,-0.96549 0.50732,-1.79004 1.54647,-2.51943 1.31546,-0.92333 2.13675,-1.08805 5.51409,-1.08805 z m 8.6007,0.75438 c 0.36518,-0.0104 0.95416,0.0406 1.8,0.14507 3.22315,0.39798 3.17906,0.36793 2.21197,1.53294 -0.66801,0.80474 -0.65177,1.02217 0.10775,1.38303 1.60078,0.76055 2.40211,0.48001 2.40211,-0.84142 l 0,-1.28148 2.68733,0.4594 c 1.83537,0.31368 2.51363,0.61358 2.14225,0.94781 -0.66724,0.60048 -2.4338,6.17281 -2.4338,7.67436 0,1.1675 -0.42455,1.24237 -3.39718,0.59963 -1.83375,-0.39649 -1.87508,-0.45433 -1.09648,-1.63932 0.44373,-0.67535 0.99102,-1.98277 1.2169,-2.9063 0.38547,-1.57604 0.32312,-1.67801 -1.09014,-1.67801 -1.30937,0 -1.59891,0.29119 -2.21831,2.21962 -0.39175,1.21967 -0.52094,2.44733 -0.28521,2.73221 0.31405,0.37952 -0.27042,0.43081 -2.19296,0.19343 -3.17628,-0.39219 -3.15587,-0.37743 -2.40211,-1.40721 0.99745,-1.36274 2.61985,-7.22856 2.15493,-7.79042 -0.17903,-0.21635 -0.0766,-0.32999 0.39295,-0.34334 z m -29.63662,1.24279 c 1.52331,-0.0168 3.07282,0.36407 4.39226,1.25246 3.33876,2.24804 2.97792,6.02412 -0.74155,7.71789 -4.22174,1.92249 -9.56434,0.41486 -10.40704,-2.94015 -0.84255,-3.3544 2.86344,-5.98726 6.75633,-6.0302 z m -1.46408,1.41688 c -0.52049,0.016 -0.96254,0.30234 -1.36268,0.86077 -0.81436,1.1365 0.17932,3.75836 1.99014,5.24197 3.69745,3.02932 5.46948,-1.58417 1.84437,-4.80192 -1.00479,-0.89188 -1.80263,-1.32133 -2.47183,-1.30082 z m 46.36267,0.82208 c 0.54449,-0.0147 1.78696,0.36662 4.15775,1.24279 3.01309,1.11355 4.40383,1.86787 4.19578,2.27281 -0.1712,0.33321 -0.31057,0.99283 -0.31057,1.46524 0,0.4724 -0.26605,0.86077 -0.59577,0.86077 -0.32974,0 -0.60212,-0.37254 -0.60212,-0.82692 0,-1.1209 -2.1219,-2.48293 -3.32746,-2.13741 -1.34628,0.38586 -0.72998,1.40081 0.82394,1.35885 1.07017,-0.0289 1.21389,0.15239 0.90634,1.1219 -0.20131,0.63459 -0.58677,1.45368 -0.86197,1.82308 -0.38894,0.52208 -0.50552,0.45171 -0.51972,-0.31916 -0.01,-0.54544 -0.54976,-1.20132 -1.19789,-1.4604 -0.9999,-0.39969 -1.31735,-0.27141 -2.09788,0.85593 -0.50593,0.73073 -0.91902,1.64629 -0.91902,2.03586 0,1.12933 2.41614,1.56022 4.74085,0.84626 1.12224,-0.34467 2.12802,-0.56038 2.23732,-0.47874 0.1093,0.0816 -0.67628,0.77526 -1.74296,1.53777 l -1.93943,1.38787 -4.19578,-1.58613 c -4.91304,-1.85185 -4.96151,-1.87655 -4.10704,-2.28249 0.86145,-0.40925 5.00704,-6.58667 5.00704,-7.46158 0,-0.16236 0.1011,-0.24959 0.34859,-0.2563 z m -56.45281,1.42172 c 0.66067,-0.006 1.10911,0.21309 1.56549,0.62381 0.57105,0.51392 0.5959,0.95035 0.10775,1.75055 -0.60496,0.99166 -0.39597,1.19456 2.95352,2.83859 l 3.6,1.76506 -2.17395,0.95748 c -2.53388,1.11662 -3.30845,1.19588 -3.30845,0.3385 0,-0.73614 -2.53703,-2.06487 -3.94225,-2.06487 -0.90728,0 -0.90246,0.10386 0.0507,1.23312 0.57163,0.67725 1.42537,1.45969 1.89507,1.74088 0.70644,0.42292 0.50015,0.67467 -1.19155,1.45556 -2.11092,0.97441 -3.72799,1.25058 -3.13733,0.53677 0.36596,-0.44225 -4.22645,-6.78523 -5.27958,-7.29233 -0.80888,-0.3895 -0.88127,-0.3484 3.87254,-2.3115 2.59761,-1.07269 4.02242,-1.56254 4.98803,-1.57162 z m -2.57324,2.18093 c -1.63368,0 -2.06765,0.67388 -1.14718,1.77472 0.98994,1.18394 1.9216,0.93175 2.16126,-0.58029 0.15008,-0.94684 -0.062,-1.19443 -1.01408,-1.19443 z m 71.58803,1.01067 2.37042,1.53294 c 1.46379,0.94508 2.1273,1.64953 1.72394,1.84243 -0.7604,0.36364 -1.69159,2.33084 -1.10281,2.33084 0.21863,0 1.178,-0.34423 2.12957,-0.76405 1.69547,-0.74805 1.7657,-0.73919 3.45423,0.46906 l 1.72394,1.23313 -1.79366,1.43138 c -0.98658,0.78838 -2.66815,2.24036 -3.7331,3.22546 -1.06495,0.98509 -2.04105,2.02279 -2.1676,2.30666 -0.13547,0.30384 -1.1357,-0.0714 -2.43381,-0.91396 -2.11029,-1.36976 -2.15297,-1.45203 -0.95704,-1.86177 0.68733,-0.23548 2.21125,-1.30232 3.38451,-2.37436 l 2.13591,-1.94882 -2.37676,0.76405 c -2.73149,0.88087 -4.47865,1.29603 -4.46831,1.05904 0.004,-0.0903 0.38214,-1.22167 0.84296,-2.5146 0.46084,-1.29294 0.75347,-2.35018 0.64648,-2.35018 -0.59123,0 -5.0281,4.6442 -4.75352,4.976 0.52256,0.6315 -0.45376,0.45922 -1.5338,-0.2708 -0.90386,-0.61094 -0.72163,-0.88703 2.19295,-3.2448 1.75141,-1.41683 3.52891,-3.10533 3.94859,-3.75256 l 0.76691,-1.17509 z m -80.24578,2.21478 c 2.0812,0.005 2.70682,2.8305 0.75423,5.22263 l -1.23592,1.50876 1.33733,1.0687 c 0.73658,0.58561 1.88755,1.06387 2.55422,1.06387 1.06,0 0.95455,0.19629 -0.82394,1.56679 -2.08274,1.60495 -2.99789,1.93347 -2.99789,1.08321 0,-0.71544 -6.64266,-5.78357 -7.58028,-5.78357 -0.44441,0 -0.81127,-0.0891 -0.81127,-0.19827 0,-0.15586 1.13718,-1.02999 2.55423,-2.02619 2.0186,-1.41909 4.60662,-3.09322 5.27324,-3.327 0.35359,-0.124 0.67874,-0.17962 0.97605,-0.17893 z m 41.40634,1.29115 c 28.56323,0 51.71831,17.32037 51.71831,38.68613 0,21.36576 -23.15508,38.68614 -51.71831,38.68614 -28.56323,0 -51.71831,-17.32038 -51.71831,-38.68614 0,-21.36576 23.15508,-38.68613 51.71831,-38.68613 z m -43.58028,1.30082 c -1.69756,0 -2.10524,0.8284 -0.9,1.82309 1.47533,1.2176 2.0662,1.07907 2.0662,-0.47874 0,-1.03119 -0.27294,-1.34435 -1.1662,-1.34435 z m 92.54155,9.46843 c 0.70324,0.002 1.738,0.16815 3.31479,0.42072 3.34617,0.53598 3.21367,0.18395 1.74929,4.55529 -0.30938,0.92352 -0.62112,1.65244 -0.69084,1.62482 -0.0697,-0.0276 -1.60901,-0.28029 -3.42254,-0.56579 -1.81351,-0.28551 -3.28832,-0.71651 -3.27676,-0.95748 0.0116,-0.24097 0.23402,-1.4973 0.50071,-2.79024 0.35124,-1.70304 0.4828,-2.29204 1.82535,-2.28732 z m -99.69719,0.087 c 0.2374,0.002 0.40514,0.0179 0.4817,0.0532 0.48009,0.22162 1.47843,3.44292 1.52746,4.92765 0.0218,0.65994 -6.92613,1.60126 -7.17465,0.97199 -0.32124,-0.81344 -1.50211,-4.68982 -1.50211,-4.92765 0,-0.32028 5.00581,-1.03931 6.6676,-1.02518 z m -15.10985,10.15027 c 0.22464,0 0.6771,0.19794 1.00774,0.44489 0.94856,0.70847 10.83085,2.71967 11.88381,2.41789 1.2296,-0.35242 1.21173,-0.21114 -0.49437,4.05237 -0.79348,1.98289 -1.63173,5.36956 -1.85704,7.52445 -0.33727,3.2256 -0.58127,3.91679 -1.40071,3.92181 -0.54743,0.003 -1.60317,0.12714 -2.34507,0.27564 -0.7419,0.14849 -1.35,0.0722 -1.35,-0.17409 0,-0.24627 0.53606,-0.55382 1.19155,-0.68184 1.24151,-0.24249 2.66269,-2.33334 2.07254,-3.04654 -0.66674,-0.80575 -2.66197,-0.43869 -2.66197,0.48841 0,0.49255 0.28461,0.89462 0.6338,0.89462 0.34919,0 0.46998,0.20345 0.2662,0.44973 -0.20379,0.24627 -1.49048,0.44489 -2.85212,0.44489 l -2.47183,0 1.34366,-0.9333 c 0.73934,-0.51446 1.24141,-1.16964 1.1155,-1.45557 -0.32147,-0.73005 -5.89557,-0.94702 -6.47113,-0.25146 -0.66967,0.80929 0.48458,2.72559 2.32606,3.85894 1.86691,1.14901 1.40275,1.18932 -2.12324,0.19827 l -2.54155,-0.71086 0.32324,-2.48075 c 0.60274,-4.64846 0.87514,-5.48442 1.64155,-5.0292 0.39268,0.23325 3.00925,0.5451 5.81197,0.69152 2.80272,0.14643 4.74797,0.15207 4.32887,0.0145 -1.22602,-0.40241 -2.53521,-2.67915 -2.53521,-4.41022 0,-1.33363 -0.27414,-1.68316 -1.64789,-2.07454 -0.90676,-0.25834 -2.38901,-0.38879 -3.29577,-0.29015 -0.90676,0.0987 -1.64789,0.10424 -1.64789,0.01 0,-0.76183 1.42813,-4.14909 1.7493,-4.14909 z m 130.79154,0.54161 c 0.72053,0.0141 1.45403,0.28162 1.95212,0.87527 0.45244,0.53924 0.41112,0.94298 -0.15845,1.45557 -1.13935,1.02535 -3.47682,0.90223 -3.9486,-0.20794 -0.53521,-1.2595 0.77939,-2.14975 2.15493,-2.1229 z m 0.35493,4.84544 c 2.43038,-0.0229 3.57764,0.84822 4.08803,3.10456 0.54667,2.4168 -1.07304,4.89636 -3.89155,5.94799 -2.57577,0.96105 -7.08308,1.01789 -8.81619,0.11122 -1.43806,-0.7523 -2.42555,-2.70878 -2.68733,-5.32418 -0.17112,-1.70958 -0.12379,-1.75423 2.49085,-2.33084 3.2403,-0.71458 3.71741,-0.49832 1.60986,0.73988 -1.85274,1.08849 -2.06121,2.64996 -0.49437,3.70903 1.34386,0.90836 3.67692,0.95156 6.36972,0.11122 3.73051,-1.16418 4.30906,-4.07001 1.07112,-5.38221 l -1.64154,-0.66733 1.9014,-0.0193 z m -123.94647,0.0774 c -0.78001,0.0324 -0.63587,0.52384 0.37394,1.60064 1.10222,1.17534 1.65087,1.23741 2.68732,0.30465 0.9167,-0.82498 0.31886,-1.36682 -1.97112,-1.78923 -0.46798,-0.0863 -0.83014,-0.12687 -1.09014,-0.11606 z m 114.55352,10.22764 c 0.23907,-0.0129 0.5458,0.1162 0.92535,0.39654 0.31323,0.23136 3.46622,0.48447 7.00986,0.56095 l 6.44577,0.14023 0,1.23312 c 0.001,0.67726 -0.26603,1.22829 -0.59577,1.22829 -0.32972,0 -0.60212,-0.19862 -0.60212,-0.44489 0,-0.96561 -2.28792,-0.34913 -6.52183,1.75538 l -4.43028,2.20027 2.81409,0.31433 c 1.54712,0.17328 4.14362,0.21855 5.77394,0.10155 2.92657,-0.21003 2.9662,-0.19748 2.9662,1.06387 0,1.31034 -0.52204,1.60518 -1.52747,0.85593 -0.31323,-0.23343 -3.49658,-0.48654 -7.07324,-0.56095 l -6.50281,-0.1354 0.35493,-1.96332 c 0.19689,-1.08104 0.36126,-2.23565 0.36126,-2.56296 0,-0.3273 0.33573,-0.50202 0.74789,-0.38686 0.41217,0.11516 1.55869,-0.21093 2.54789,-0.72536 l 1.8,-0.93331 -2.54789,0.22245 c -2.48088,0.21568 -2.54789,0.18326 -2.54789,-1.08321 0,-0.83137 0.20366,-1.25511 0.60212,-1.27665 z m -114.99719,4.00885 c 2.61392,0 4.07009,1.40917 4.15775,4.0282 0.0798,2.3835 0.11206,2.541 0.72254,3.5833 0.74835,1.27772 3.39943,7.3174 3.2514,7.40839 -0.41626,0.25592 -4.03536,1.54745 -4.33521,1.54745 -0.19111,0 0.22986,-0.58541 0.93803,-1.30082 2.14314,-2.16505 1.01184,-2.36511 -4.83591,-0.84626 -3.28922,0.85432 -5.44562,1.66555 -5.59014,2.10356 -0.22836,0.69209 -1.52887,-1.085 -2.45916,-3.3657 -0.33458,-0.82024 -0.18077,-0.92011 1.11549,-0.73503 1.16228,0.16595 9.87475,-1.74051 11.05352,-2.41788 0.61809,-0.35519 -1.44739,-1.49909 -2.70633,-1.49909 -1.74243,0 -1.84763,-0.92188 -0.22817,-2.01652 0.67724,-0.45776 1.20422,-1.37515 1.20422,-2.11323 0,-2.12262 -1.86803,-1.39067 -3.11831,1.22345 -0.58836,1.23017 -1.52385,2.48723 -2.08521,2.79507 -1.59568,0.87506 -4.16562,0.66141 -5.97042,-0.49808 -1.41995,-0.91225 -1.68481,-1.46828 -1.90141,-4.00885 -0.27747,-3.25463 -0.66149,-2.92874 4.22747,-3.651 1.48384,-0.21922 1.31317,0.10223 -0.74789,1.39753 -1.78051,1.11899 -2.25812,2.50297 -1.26761,3.67035 1.03278,1.2172 2.7421,0.34427 3.68874,-1.88595 1.03913,-2.44812 2.42426,-3.41889 4.88661,-3.41889 z m 113.90705,5.53212 c 0.15177,-0.0197 0.31059,0.0785 0.48169,0.28531 0.50507,0.61039 8.92284,2.20117 11.76338,2.22445 l 1.86338,0.0194 -0.61479,2.01168 c -0.59413,1.93918 -1.18558,2.45161 -1.86972,1.62481 -0.48406,-0.58497 -11.60763,-2.40909 -12.4162,-2.03585 -0.51479,0.23762 -0.59527,-0.18688 -0.29155,-1.60548 0.35667,-1.6659 0.69594,-2.47382 1.08381,-2.52427 z m -111.2324,1.68768 c -0.16479,0.008 -0.33841,0.0385 -0.5007,0.0871 -0.47825,0.14293 -0.33713,0.24931 0.36127,0.2708 0.63198,0.0194 0.98513,-0.0882 0.78591,-0.23695 -0.12451,-0.093 -0.37182,-0.13474 -0.64648,-0.1209 z m 106.26972,9.38139 c 0.81071,-0.005 4.25282,1.06035 4.25282,1.36852 0,0.1812 -0.85516,0.3919 -1.90141,0.46907 -1.04623,0.0772 -1.99589,0.35736 -2.11057,0.61898 -0.24693,0.56336 8.22537,4.67135 9.63381,4.67135 1.28097,0 1.24578,0.14718 -0.59578,2.326 -1.3279,1.57113 -1.65515,1.74057 -2.12958,1.10739 -0.7287,-0.97254 -9.23889,-5.26469 -9.72253,-4.90346 -0.62664,0.46803 -0.41067,2.16027 0.34859,2.72737 1.29403,0.9665 -0.30604,0.55928 -1.73028,-0.44006 -0.98733,-0.69279 -1.38595,-0.78749 -1.38169,-0.33366 0.006,0.64695 7.9015,6.26181 9.41831,6.69753 0.61679,0.17718 0.43692,0.50545 -0.70352,1.30566 -1.50294,1.05456 -1.52747,1.05744 -1.52747,0.12573 0,-0.52094 -0.2027,-1.0333 -0.45,-1.14124 -0.24729,-0.10795 -2.87608,-0.32688 -5.84366,-0.48841 l -5.39366,-0.29499 3.47324,2.47592 c 1.91135,1.36317 3.86867,2.48075 4.34789,2.48075 1.18585,0 1.09172,0.60693 -0.22817,1.49908 -1.32711,0.89703 -1.90141,0.93754 -1.90141,0.14024 0,-0.66798 -7.58004,-6.28904 -8.98733,-6.66369 -0.68535,-0.18245 -0.34139,-0.67701 1.46409,-2.08421 1.57696,-1.22909 2.57404,-1.69516 2.97253,-1.39754 0.81859,0.61139 4.13961,0.58481 3.63169,-0.029 -0.21636,-0.26147 -1.08011,-0.67051 -1.92042,-0.90913 l -1.52746,-0.43522 1.21056,-0.99133 c 0.90783,-0.74474 5.08808,-5.35039 7.14296,-7.86779 0.0209,-0.0256 0.0746,-0.0333 0.15845,-0.0339 z m -98.56268,2.11807 c 0.35545,-0.005 0.8581,0.41739 1.78099,1.41204 l 1.69859,1.82792 -1.20422,0.99617 c -2.1758,1.806 -2.25319,2.18677 -0.38029,1.8521 0.93439,-0.16697 2.04536,-0.50697 2.4655,-0.75438 0.42013,-0.2474 0.83921,-0.37231 0.93803,-0.27564 2.34791,2.29685 3.61628,4.41798 2.26901,3.79607 -0.28749,-0.1327 -2.51086,0.78643 -4.94366,2.04553 -2.4328,1.25911 -4.84614,2.68313 -5.36197,3.16259 -0.90694,0.843 -0.99094,0.80941 -2.54789,-0.94781 -1.90729,-2.15262 -1.93322,-2.24523 -0.53239,-2.16642 0.88585,0.0498 8.09855,-3.26167 7.71971,-3.54462 -0.0629,-0.047 -1.80218,0.17738 -3.85986,0.49809 -2.05767,0.3207 -3.73943,0.47511 -3.73943,0.34817 0,-0.12693 0.8108,-1.21231 1.8,-2.41304 0.98919,-1.20074 1.79366,-2.28513 1.79366,-2.41305 0,-0.59917 -7.19519,3.64116 -7.21268,4.25064 -0.0147,0.5118 -0.33017,0.41525 -1.19788,-0.36269 -1.24663,-1.11764 -1.59445,-2.09458 -0.57676,-1.62481 0.67373,0.31099 9.88184,-4.37436 10.67323,-5.43057 0.12474,-0.16648 0.25675,-0.25411 0.41831,-0.25629 z m 10.73029,9.90848 c 0.3208,-0.0135 1.09028,0.33873 1.92676,0.89945 l 1.87605,1.25247 -2.92183,4.34735 c -1.60654,2.39173 -2.92183,4.73614 -2.92183,5.20812 0,1.25947 -0.68251,1.06554 -3.29577,-0.9333 -1.6624,-1.27154 -2.05349,-1.78923 -1.34367,-1.78923 1.49027,0 2.35407,-1.50729 1.65423,-2.88212 -0.32162,-0.63181 -0.93329,-1.15091 -1.36268,-1.15091 -1.27143,0 -3.44788,1.34119 -3.44788,2.1229 0,0.57995 -0.29572,0.51321 -1.49578,-0.32883 -1.46464,-1.02769 -2.09009,-2.11614 -0.9,-1.56679 0.64206,0.29638 11.74567,-4.39951 12.08662,-5.11141 0.021,-0.0439 0.0718,-0.0646 0.14578,-0.0677 z m 72.19647,1.91496 1.64155,1.27665 1.64155,1.28148 -2.04084,-0.24179 c -1.26601,-0.14818 -2.46056,-9.3e-4 -3.15634,0.38686 -0.97291,0.54235 -1.02072,0.74987 -0.32958,1.57646 0.59355,0.70985 0.99453,0.83175 1.57183,0.4739 0.42576,-0.2639 0.77324,-0.75846 0.77324,-1.09772 0,-0.97506 0.76049,-0.67439 2.69366,1.05904 1.4916,1.33748 1.57603,1.52042 0.49437,1.08804 -1.39345,-0.55699 -3.18803,-0.28279 -3.18803,0.48842 0,0.79933 3.014,3.46241 3.9169,3.46241 1.42759,0 2.86527,-2.09044 2.4655,-3.58331 -0.53948,-2.01466 0.42352,-1.61014 1.54648,0.65283 l 0.98873,1.99717 -4.08169,2.25831 c -4.46548,2.4725 -4.83592,2.58944 -4.83592,1.56195 0,-0.38252 -1.46638,-2.17549 -3.25774,-3.98467 -3.13521,-3.16639 -4.53169,-4.25968 -4.53169,-3.53978 0,0.8526 4.37711,8.67052 4.85493,8.67052 1.41501,0 0.27065,0.84821 -2.02817,1.50393 -3.23329,0.92226 -3.37915,0.91854 -3.01691,-0.11606 0.16379,-0.4678 -0.33746,-2.13057 -1.10915,-3.69453 -1.23037,-2.49355 -1.42033,-2.67705 -1.55916,-1.49908 -0.0871,0.73882 -0.31064,2.02349 -0.49436,2.85793 l -0.32958,1.51844 -2.65563,-1.94882 c -1.4603,-1.07042 -2.65564,-1.80147 -2.65564,-1.62965 0,0.90873 3.21818,6.14142 3.77747,6.14142 0.40985,0 0.44475,0.14809 0.0887,0.39653 -0.31324,0.2186 -1.21738,0.54614 -2.00915,0.72537 -1.14698,0.25964 -1.37111,0.18418 -1.09014,-0.36268 0.34967,-0.68061 -3.16632,-7.96725 -4.36691,-9.04772 -0.47162,-0.42444 -0.0295,-0.73957 1.8,-1.28632 2.95005,-0.8816 3.59367,-0.90221 3.59367,-0.12089 0,0.33124 0.57445,0.98642 1.27394,1.45557 l 1.27394,0.85109 -0.24084,-1.90529 c -0.23754,-1.89526 -0.22292,-1.90411 2.47817,-2.67418 1.49259,-0.42554 4.37534,-1.71411 6.40774,-2.86277 l 3.69507,-2.08906 z m -73.56549,0.73988 -1.38169,0.53677 c -1.83635,0.71413 -1.76736,0.6379 -1.33732,1.47491 0.51481,1.002 0.6726,0.94423 1.76831,-0.63833 l 0.9507,-1.37335 z m 8.06831,1.03002 c 0.41052,0.0113 1.30787,0.41631 3.26409,1.31532 2.42772,1.1157 2.88957,1.51595 2.33873,2.01168 -0.39412,0.35469 -0.51461,1.12591 -0.28521,1.80858 l 0.39929,1.1896 0.9,-0.96232 c 0.49552,-0.52839 0.73582,-1.16137 0.5324,-1.40721 -0.53697,-0.64893 1.01444,-0.52352 2.26267,0.18376 0.84635,0.47956 0.89867,0.65289 0.24085,0.84142 -1.0359,0.2969 -6.40141,7.06979 -6.40141,8.08057 0,0.84887 -0.35592,0.88053 -2.25,0.19827 -1.68286,-0.60619 -1.71679,-1.06752 -0.10141,-1.38303 1.148,-0.22423 1.21745,-0.45411 0.83028,-2.8531 -0.23141,-1.43392 -0.59856,-3.3986 -0.81126,-4.3667 l -0.38662,-1.76022 -2.55423,3.30283 c -1.40726,1.81545 -2.42834,3.56551 -2.26268,3.88795 0.4063,0.79081 -0.30115,0.73699 -1.99647,-0.1499 -1.18383,-0.61932 -1.26383,-0.79545 -0.49437,-1.11707 1.16333,-0.48625 6.42676,-7.15927 6.42676,-8.14826 0,-0.4002 0.0185,-0.63784 0.27253,-0.66734 0.0232,-0.003 0.0487,-0.006 0.0761,-0.005 z m 12.7331,4.88896 c 0.41201,-0.0128 1.16032,0.12104 2.50986,0.40136 l 2.09789,0.44006 0,5.8271 0,5.79808 c 0,-0.0173 -1.31861,-0.33204 -2.92817,-0.70119 -2.1776,-0.49942 -2.75473,-0.79811 -2.25,-1.17509 1.51443,-1.13111 -0.048,-3.91213 -2.1993,-3.91213 -0.88104,0 -2.43496,2.28155 -2.07253,3.0417 0.20438,0.42867 -0.16887,0.50159 -1.4324,0.27563 -2.56119,-0.45802 -2.80702,-0.66403 -1.55282,-1.32016 1.3321,-0.69688 7.33944,-7.38947 7.33944,-8.17728 0,-0.32215 0.076,-0.48531 0.48803,-0.49808 z m 30.77113,1.48458 0.86197,1.54744 c 1.05855,1.89222 0.75225,2.23022 -0.9,0.99617 -2.07409,-1.54912 -5.35833,-1.11284 -4.48099,0.5948 0.48103,0.93625 1.8279,0.90771 2.54789,-0.0532 0.46826,-0.62494 0.69902,-0.41168 1.26761,1.16542 0.67681,1.87731 0.4273,3.15119 -0.32958,1.67802 -0.20791,-0.40466 -1.02359,-0.73504 -1.80634,-0.73504 -1.34951,0 -1.39917,0.11091 -1.05211,2.12774 0.20129,1.1698 0.59027,2.31149 0.86831,2.53877 0.81807,0.66872 3.4239,-0.47871 4.7345,-2.08421 l 1.19789,-1.4604 -0.006,1.3395 c -0.0127,2.87845 -0.43633,3.24327 -4.09436,3.55429 -1.86648,0.1587 -4.09967,0.39184 -4.96268,0.51743 -1.5252,0.22196 -1.57122,0.16466 -1.66056,-2.14225 -0.10522,-2.71639 -0.90718,-6.95973 -1.51479,-8.0177 -0.34861,-0.60698 0.3421,-0.78286 4.46197,-1.14124 l 4.86761,-0.42554 z m -17.60705,0.4062 c 0.66357,-0.006 1.40904,0.0279 2.25,0.10639 l 3.2831,0.30949 -0.019,1.84726 -0.019,1.8521 -1.22957,-1.22829 c -1.55814,-1.55982 -4.24879,-1.67404 -5.59648,-0.23695 -2.27638,2.42738 -0.0389,8.53715 2.66831,7.2875 0.91722,-0.42339 1.34944,-3.79705 0.57676,-4.49243 -0.62453,-0.56204 -0.28195,-0.65766 2.3831,-0.65766 2.97212,0 3.09204,0.0434 2.62394,1.00584 -0.26952,0.55411 -0.49437,2.06787 -0.49437,3.36086 l 0,2.35018 -2.99154,-0.0242 c -6.12472,-0.0518 -9.19382,-1.76718 -9.69085,-5.41122 -0.3289,-2.41142 1.19268,-4.83689 3.56197,-5.67719 0.71186,-0.25247 1.58773,-0.3809 2.69366,-0.3917 z m -13.22746,1.33467 c -0.13243,-6.2e-4 -0.36763,0.24741 -0.77958,0.68668 -0.75365,0.80365 -0.79616,1.15147 -0.22183,1.66834 1.05086,0.94572 1.17254,0.83541 1.17254,-1.01551 0,-0.92802 -8.2e-4,-1.33874 -0.17113,-1.33951 z m 18.28992,-79.1191 c -27.05106,0 -48.98028,16.41971 -48.98028,36.67445 0,20.25474 21.92922,36.67445 48.98028,36.67445 27.05106,0 48.98028,-16.41971 48.98028,-36.67445 0,-20.25474 -21.92922,-36.67445 -48.98028,-36.67445 z m 22.12606,13.22098 c 0.10534,0.004 0.26496,0.11733 0.45634,0.33851 0.45646,0.52755 0.58857,0.54071 0.59577,0.058 0.006,-0.4303 0.22951,-0.4809 0.75423,-0.16926 0.41216,0.2448 1.22297,0.38888 1.8,0.31916 0.57703,-0.0697 1.0515,0.006 1.05211,0.16926 6.1e-4,0.16291 0.77064,0.33801 1.71127,0.38686 0.94062,0.0488 3.29767,0.65172 5.24155,1.33951 1.94387,0.68778 4.34742,1.4931 5.33662,1.78923 1.19919,0.359 1.42681,0.54411 0.6845,0.56095 -0.75381,0.0171 -1.00232,0.24999 -0.76056,0.72053 0.23101,0.44963 0.12014,0.58185 -0.32324,0.37719 -0.37687,-0.17397 -1.2548,-0.36205 -1.94578,-0.42072 -5.2807,-0.44833 -7.98399,-0.7942 -8.81619,-1.12673 -0.53367,-0.21325 -1.15554,-0.25111 -1.38169,-0.0822 -0.22615,0.16891 -0.66297,0.0141 -0.96972,-0.34817 -0.48814,-0.57648 -0.5607,-0.57817 -0.57676,0.01 -0.0163,0.59702 -0.0855,0.59702 -0.60211,0 -0.31964,-0.36941 -0.58465,-0.46527 -0.58944,-0.21277 -0.005,0.25249 -1.08952,0.43472 -2.40845,0.4062 -1.31893,-0.0285 -2.39578,0.10001 -2.39578,0.28531 0,0.18529 -0.67778,0.28519 -1.50211,0.21761 -0.82433,-0.0676 -1.50364,0.0984 -1.50845,0.37235 -0.005,0.27398 -0.2698,0.19533 -0.58944,-0.17408 -0.4888,-0.56493 -0.58171,-0.53595 -0.58943,0.16925 -0.008,0.73103 -0.13599,0.75827 -1.02042,0.22244 -0.86584,-0.52455 -0.93876,-0.51853 -0.50071,0.0242 0.38407,0.47585 0.25956,0.56063 -0.48169,0.34818 -0.60208,-0.17256 -0.9297,-0.0756 -0.84296,0.24662 0.0832,0.30916 -0.7346,0.58552 -1.95845,0.6625 -1.15406,0.0726 -2.83901,0.1795 -3.74577,0.23695 -0.90677,0.0575 -1.64789,0.20721 -1.64789,0.33367 0,0.12646 -1.48859,0.21995 -3.30211,0.20794 -1.81353,-0.012 -3.29578,0.16279 -3.29578,0.38686 0,0.22407 -0.37409,0.17065 -0.83662,-0.11606 -0.64578,-0.40029 -0.91491,-0.38612 -1.15352,0.058 -0.25119,0.46757 -0.32302,0.46899 -0.36127,-0.005 -0.026,-0.32239 -0.34326,-0.4497 -0.70985,-0.28048 -0.36661,0.16922 -0.90373,0.0299 -1.19155,-0.30949 -0.43306,-0.51065 -0.52357,-0.50263 -0.53874,0.0532 -0.0163,0.59702 -0.0855,0.59702 -0.60211,0 -0.38743,-0.44777 -0.58331,-0.48437 -0.58944,-0.11123 -0.0143,0.87102 -1.20117,0.65963 -1.24859,-0.22244 -0.0378,-0.703 -0.0923,-0.69902 -0.48803,0.0532 -0.38573,0.73321 -0.55029,0.75748 -1.31197,0.1886 -0.47906,-0.3578 -1.17553,-0.57593 -1.54648,-0.48358 -0.37094,0.0924 -1.10867,-0.15812 -1.64155,-0.55611 -0.53286,-0.398 -0.96971,-0.49981 -0.96971,-0.22728 0,0.3588 -0.35073,0.35682 -1.26761,-0.01 -1.10057,-0.43992 -3.74648,-0.52062 -8.77183,-0.26596 -0.7419,0.0376 -1.35,0.23004 -1.35,0.42554 0,0.19551 -0.33572,0.3193 -0.74789,0.27564 -2.14022,-0.2267 -4.86413,0.74093 -6.58521,2.34051 -2.65677,2.46922 -3.27961,2.14694 -0.70986,-0.36751 l 2.14859,-2.09873 -1.4007,-0.84142 c -0.76891,-0.46262 -2.20517,-1.23076 -3.19437,-1.70703 -1.05524,-0.50806 -1.41553,-0.86467 -0.86831,-0.8656 0.51297,-9.3e-4 1.85523,0.50891 2.98521,1.13157 1.58283,0.87221 2.47259,1.06083 3.8662,0.83659 0.9949,-0.16009 2.02435,-0.56485 2.28803,-0.90429 0.26368,-0.33944 0.99258,-0.61898 1.6162,-0.61898 0.62362,0 1.31226,-0.22068 1.5338,-0.48841 0.22154,-0.2676 0.91155,-0.3875 1.5338,-0.26597 0.62225,0.12154 1.13451,0.0395 1.13451,-0.18376 0,-0.58789 7.64074,-0.50142 8.13169,0.0919 0.28586,0.34547 0.56606,0.31228 0.92535,-0.11122 0.41056,-0.48393 0.51874,-0.49109 0.52606,-0.0242 0.005,0.32238 0.27872,0.4617 0.60845,0.30949 0.32973,-0.1522 0.60364,-0.0129 0.60845,0.30949 0.006,0.37157 0.17079,0.41908 0.45,0.12573 0.69706,-0.73234 3.73517,-0.54051 3.74577,0.23695 0.008,0.59703 0.0729,0.59703 0.58944,0 0.39615,-0.45784 0.58321,-0.49227 0.58944,-0.10638 0.009,0.54127 3.02451,0.42598 4.30352,-0.16442 0.27505,-0.12696 0.5007,-0.021 0.5007,0.23212 0,0.25308 0.45273,0.33135 1.00141,0.17408 0.74814,-0.21442 0.86654,-0.12862 0.48169,0.34818 -0.41032,0.50836 -0.33626,0.53313 0.35493,0.11606 1.22915,-0.74169 1.85246,-0.76236 2.4338,-0.0774 0.38911,0.45847 0.5127,0.41221 0.51972,-0.1886 0.0103,-0.87987 1.20256,-1.09778 1.2169,-0.22244 0.006,0.38221 0.14923,0.40513 0.45,0.0725 0.65045,-0.71925 3.13269,-1.09743 3.14367,-0.47874 0.006,0.31374 0.2177,0.27229 0.53873,-0.10639 0.30017,-0.35407 0.95972,-0.49941 1.52112,-0.3385 0.66043,0.18928 0.85017,0.10877 0.56409,-0.23695 -0.28666,-0.34643 -0.10217,-0.42307 0.56408,-0.23212 0.54869,0.15726 1.00141,0.12496 1.00141,-0.0725 0,-0.36165 0.54627,-0.46718 3.29578,-0.63832 0.82433,-0.0513 1.50211,-0.22128 1.50211,-0.37719 0,-0.15589 1.20987,-0.22166 2.69366,-0.14507 1.77251,0.0915 2.70028,-0.0403 2.70634,-0.38686 0.002,-0.13509 0.0512,-0.20132 0.1331,-0.19827 z m 7.92253,9.75858 c 0.39455,-0.0253 0.87945,0.12719 1.34367,0.4739 0.6064,0.45293 -1.18858,4.12965 -4.46198,9.15411 -0.48763,0.74849 -0.76953,1.75608 -0.62746,2.23896 0.21681,0.7369 0.47936,0.60665 1.63521,-0.81241 0.7574,-0.92989 1.88943,-1.89655 2.5162,-2.14708 1.88362,-0.75293 2.07558,0.72476 0.3169,2.4469 -1.58029,1.54746 -1.52931,2.06487 0.19648,2.06487 0.54233,0 1.57272,0.41182 2.29436,0.91396 l 1.31198,0.90913 0.019,-1.24763 c 0.0202,-1.32604 1.20066,-2.81442 2.23099,-2.81442 0.93145,0 1.3049,1.07388 1.0014,2.90146 -0.33499,2.01724 0.62308,1.73983 2.07888,-0.60447 1.54806,-2.49285 4.90603,-6.74354 5.57112,-7.05055 0.32699,-0.15094 0.88031,-0.0626 1.22958,0.19827 0.44701,0.33387 0.1246,1.24621 -1.09648,3.07555 -0.95403,1.42928 -2.05393,2.84761 -2.44014,3.15292 -0.3862,0.30531 -0.86889,1.13798 -1.07746,1.84726 -0.46054,1.56613 -5.84445,5.4354 -7.56127,5.4354 -0.67341,0 -1.07591,0.18111 -0.89366,0.40137 0.44021,0.532 5.1338,0.85008 5.1338,0.34817 0,-0.68659 7.08124,-5.67718 8.05563,-5.67718 1.47761,0 1.10593,1.02381 -1.00774,2.75155 -3.36833,2.75328 -5.15068,4.41236 -4.74085,4.41505 0.21756,0.002 -0.40398,0.31319 -1.37535,0.69152 -2.10844,0.82118 -5.02558,1.1392 -5.47606,0.59479 -0.17754,-0.21455 -0.6404,-0.39309 -1.03309,-0.39169 -0.39272,0.001 -0.001,0.45778 0.87464,1.01067 3.19273,2.0158 3.31818,3.39133 0.95705,10.76442 -0.88086,2.75062 -2.7413,4.0193 -2.34508,1.60064 1.40021,-8.5477 1.40058,-8.57046 -0.96338,-10.28568 -1.6044,-1.16409 -2.01993,-1.31399 -1.76197,-0.62865 0.87792,2.33235 1.11897,5.59982 0.41197,5.59982 -0.44372,0 -0.59571,0.3687 -0.39295,0.94781 0.32775,0.93609 -0.52981,2.54891 -1.69226,3.18677 -0.32972,0.18094 -0.41076,0.33009 -0.17746,0.33367 0.2333,0.004 -0.36873,1.26553 -1.34366,2.80474 -0.97494,1.53921 -1.77445,3.13032 -1.77465,3.53495 -6.1e-4,0.84408 -1.58708,1.45268 -2.1169,0.81241 -0.54236,-0.65544 1.35231,-5.66377 2.66197,-7.04088 0.63961,-0.67254 1.34134,-2.33035 1.55915,-3.68485 l 0.39296,-2.46141 -1.99648,2.43723 c -2.0339,2.48001 -6.85168,5.16289 -8.44859,4.7052 -0.86948,-0.2492 -2.24366,-3.24091 -2.24366,-4.88413 0,-0.61044 0.53689,-2.12521 1.19155,-3.36569 0.65465,-1.24048 0.97666,-2.25347 0.7162,-2.25347 -0.26048,0 -1.40547,1.11741 -2.54155,2.48075 -4.22781,5.07351 -8.35986,8.75368 -8.35986,7.44708 0,-0.83174 1.75214,-3.52225 2.66197,-4.08622 0.51365,-0.31839 0.93762,-0.80553 0.93803,-1.08321 4e-4,-0.27769 1.07728,-1.66655 2.39577,-3.08522 1.3185,-1.41867 2.39578,-2.77868 2.39578,-3.02235 0,-0.24368 0.25156,-0.44006 0.55774,-0.44006 0.30619,0 0.92153,-0.25311 1.36902,-0.56095 0.44748,-0.30784 1.59068,-0.86371 2.53521,-1.23312 2.51919,-0.98527 2.19587,-1.54973 -0.96338,-1.70219 -2.73795,-0.13212 -2.84517,-0.0841 -5.39366,2.30183 -2.50332,2.34357 -5.64968,4.2143 -6.28733,3.73804 -0.40607,-0.30329 1.36132,-2.36705 3.80916,-4.4489 1.08671,-0.92424 1.97746,-1.85704 1.97746,-2.07455 0,-0.6756 4.36196,-1.98261 6.42676,-1.92463 2.32194,0.0652 2.41343,-0.17318 0.61479,-1.60547 -1.13314,-0.90235 -1.32578,-1.50576 -1.21056,-3.77674 0.0754,-1.48688 0.38506,-2.93314 0.68451,-3.21095 0.29945,-0.27781 0.73254,-1.358 0.96338,-2.40337 0.44335,-2.00779 1.34302,-2.83688 2.09788,-1.92464 0.56482,0.68258 0.17942,4.16814 -0.70986,6.40256 -0.75701,1.90207 -0.0964,3.31876 2.0155,4.30383 1.46617,0.68388 2.06906,0.40657 0.98239,-0.44973 -0.95818,-0.75506 -0.92194,-3.72934 0.0634,-5.53695 1.18787,-2.17919 3.64263,-6.17625 4.5824,-7.45675 0.47974,-0.65368 0.87464,-1.61162 0.87464,-2.12774 0,-0.56752 0.36104,-0.89109 0.86831,-0.92363 z m -54.41831,2.36469 c 0.22501,-0.0133 0.36714,0.13074 0.52606,0.44005 0.39957,0.77772 -0.81874,2.70067 -3.72042,5.85128 -1.10339,1.19805 -2.00916,2.41741 -2.00916,2.71287 0,0.71847 3.44363,2.59407 3.85352,2.09872 0.17728,-0.21425 0.18781,-1.74145 0.019,-3.39471 -0.23481,-2.3 -0.12944,-2.96351 0.45,-2.81925 1.34226,0.33417 2.26641,5.33997 1.40704,7.62117 -0.38675,1.02662 -0.12898,1.53276 1.54648,2.9885 1.10792,0.96263 2.49799,1.76358 3.08662,1.7844 1.31977,0.0467 3.74433,1.1474 6.12253,2.77573 1.07169,0.73376 2.64418,1.28804 3.89155,1.37336 1.48174,0.10134 2.15592,0.39132 2.30705,0.98649 0.1795,0.70694 -0.054,0.79869 -1.48944,0.58513 -4.53634,-0.67487 -5.46142,-0.97733 -7.54225,-2.4614 -2.4205,-1.72633 -3.46675,-1.66247 -2.36409,0.14507 0.43801,0.71801 1.35722,1.23408 2.5162,1.40721 1.9371,0.28936 2.10584,0.44611 5.38098,5.01952 2.10373,2.93765 2.43242,3.12457 6.74367,3.83476 0.90676,0.14938 1.64788,0.56859 1.64788,0.93331 0,0.94624 -2.89023,0.8495 -6.09084,-0.20794 -2.38397,-0.78763 -2.82521,-1.18979 -4.41761,-4.00885 -1.68487,-2.9828 -2.5228,-3.60238 -4.92465,-3.62199 -1.05938,-0.009 -0.9456,2.45223 0.14578,3.12874 1.08679,0.67366 1.20374,1.94676 0.15211,1.6635 -0.83593,-0.22515 -4.05,1.01792 -4.05,1.56679 0,0.95344 -1.18605,0.1713 -1.78098,-1.17509 -0.60116,-1.36048 -1.60211,-2.0552 -2.9662,-2.0552 -0.24984,0 -0.73567,0.46902 -1.0838,1.03969 -0.53917,0.88382 -0.25525,1.4858 1.91408,4.05721 l 2.54155,3.01752 -1.26127,2.54845 c -0.69334,1.40154 -1.4762,2.80155 -1.74296,3.10939 -0.62819,0.72495 -1.61619,0.71773 -1.61619,-0.01 0,-0.31131 0.51134,-1.60875 1.1345,-2.88211 0.95778,-1.95713 1.01329,-2.44222 0.34226,-3.15776 -0.4366,-0.46556 -1.50571,-2.17579 -2.37676,-3.80091 -1.30277,-2.43057 -1.46554,-3.12854 -0.89366,-3.92664 0.53033,-0.74012 0.52575,-1.27908 -0.0254,-2.27282 -1.15969,-2.09108 -1.97698,-1.58316 -1.52746,0.94782 0.29844,1.6803 0.16227,2.50113 -0.52606,3.23512 -0.50712,0.54077 -0.91901,1.31394 -0.91901,1.72154 0,0.85314 -1.63982,2.01809 -2.22465,1.58129 -0.21599,-0.16132 0.0611,-1.00422 0.61479,-1.87144 0.64481,-1.00994 1.00775,-2.6986 1.00775,-4.70037 0,-1.71889 0.29737,-3.47946 0.65915,-3.91213 1.04279,-1.24713 -0.69777,-5.20146 -2.37042,-5.38704 -1.59397,-0.17686 -7.2824,-4.24159 -7.2824,-5.20329 0,-0.99564 0.93242,-0.86465 2.22465,0.30949 1.48601,1.35021 4.74568,3.04032 5.20352,2.69836 0.20214,-0.15098 0.36761,-0.92472 0.36761,-1.72153 0,-1.22242 -0.29571,-1.52921 -1.88873,-1.94398 -1.03839,-0.27037 -3.68238,-0.48842 -5.87536,-0.48842 -3.97411,0 -5.42535,-0.4602 -5.42535,-1.71186 0,-0.46944 0.42771,-0.55117 1.64789,-0.31916 0.90676,0.17242 3.6749,0.46283 6.14789,0.64316 2.47298,0.18033 5.09666,0.56831 5.83098,0.8656 1.22026,0.49402 1.40929,0.40787 2.18662,-0.98166 0.46778,-0.83618 1.82211,-2.57336 3.01057,-3.86378 1.18845,-1.29041 2.16126,-2.70365 2.16126,-3.13841 0,-0.43476 0.39663,-1.04018 0.88733,-1.34434 0.31487,-0.19518 0.54119,-0.29914 0.71619,-0.30949 z" />
  <path
     inkscape:connector-curvature="0"
     style="fill:#6e0c0e;fill-opacity:1"
     d="m 366.78248,139.31296 c -133.37677,0 -241.5,106.10852 -241.5,237 0,130.89148 108.12323,237 241.5,237 133.37677,0 241.5,-106.10852 241.5,-237 0,-130.89148 -108.12323,-237 -241.5,-237 z m 109.09375,85.4375 c 0.5194,0.0254 1.30641,0.75818 2.25,2.1875 2.25064,3.40916 2.902,3.49425 2.9375,0.375 0.0317,-2.7807 1.1316,-3.1077 3.71875,-1.09375 2.0322,1.58196 6.02992,2.51304 8.875,2.0625 2.84508,-0.45053 5.1845,0.041 5.1875,1.09375 0.003,1.05281 3.79969,2.18434 8.4375,2.5 4.6378,0.31566 16.25935,4.21161 25.84375,8.65625 9.5844,4.44464 21.4352,9.64881 26.3125,11.5625 5.9127,2.31995 7.035,3.5162 3.375,3.625 -3.7167,0.1106 -4.942,1.6155 -3.75,4.65625 1.139,2.90567 0.59235,3.76011 -1.59375,2.4375 -1.8582,-1.12423 -6.18685,-2.33966 -9.59375,-2.71875 -26.0368,-2.89729 -39.36555,-5.13234 -43.46875,-7.28125 -2.63128,-1.37811 -5.69746,-1.62278 -6.8125,-0.53125 -1.11503,1.09152 -3.26879,0.0911 -4.78125,-2.25 -2.40678,-3.72533 -2.76455,-3.73629 -2.84375,0.0625 -0.0805,3.85813 -0.42172,3.85813 -2.96875,0 -1.57599,-2.38723 -2.88265,-3.00671 -2.90625,-1.375 -0.0249,1.63167 -5.37195,2.80933 -11.875,2.625 -6.50304,-0.18417 -11.8125,0.64626 -11.8125,1.84375 0,1.19738 -3.34185,1.84298 -7.40625,1.40625 -4.0644,-0.43676 -7.4138,0.63576 -7.4375,2.40625 -0.0249,1.77051 -1.33027,1.26222 -2.90625,-1.125 -2.41009,-3.65073 -2.86815,-3.46345 -2.90625,1.09375 -0.0395,4.72413 -0.67051,4.90017 -5.03125,1.4375 -4.26904,-3.38983 -4.62859,-3.35092 -2.46875,0.15625 1.89368,3.07507 1.27977,3.6229 -2.375,2.25 -2.96858,-1.11514 -4.58395,-0.48855 -4.15625,1.59375 0.41031,1.99789 -3.62198,3.78379 -9.65625,4.28125 -5.69016,0.46912 -13.99791,1.15998 -18.46875,1.53125 -4.47085,0.37128 -8.125,1.33901 -8.125,2.15625 0,0.81721 -7.33956,1.42135 -16.28125,1.34375 -8.94169,-0.0775 -16.25,1.05198 -16.25,2.5 0,1.44802 -1.84447,1.10277 -4.125,-0.75 -3.18407,-2.58683 -4.51104,-2.49523 -5.6875,0.375 -1.2385,3.02152 -1.59266,3.03074 -1.78125,-0.0312 -0.12834,-2.08334 -1.69248,-2.90605 -3.5,-1.8125 -1.80755,1.09355 -4.45589,0.19327 -5.875,-2 -2.13522,-3.29998 -2.58145,-3.24812 -2.65625,0.34375 -0.0805,3.85813 -0.42172,3.85813 -2.96875,0 -1.91027,-2.89361 -2.87605,-3.13008 -2.90625,-0.71875 -0.0704,5.62874 -5.92244,4.26265 -6.15625,-1.4375 -0.18637,-4.54296 -0.45504,-4.51725 -2.40625,0.34375 -1.90187,4.73816 -2.71328,4.89505 -6.46875,1.21875 -2.36203,-2.3122 -5.79602,-3.72181 -7.625,-3.125 -1.82898,0.5968 -5.4664,-1.0218 -8.09375,-3.59375 -2.62734,-2.57193 -4.78125,-3.22989 -4.78125,-1.46875 0,2.31871 -1.72928,2.30592 -6.25,-0.0625 -5.42642,-2.84291 -18.47225,-3.3644 -43.25,-1.71875 -3.65796,0.24295 -6.65625,1.48662 -6.65625,2.75 0,1.26338 -1.6553,2.06337 -3.6875,1.78125 -10.55247,-1.46504 -23.98286,4.78808 -32.46875,15.125 -13.09937,15.95674 -16.17032,13.87406 -3.5,-2.375 l 10.59375,-13.56255 -6.90625,-5.4375 c -3.79113,-2.98956 -10.87272,-7.95352 -15.75,-11.03125 -5.20295,-3.28323 -6.97936,-5.58775 -4.28125,-5.59375 2.52923,-0.006 9.1473,3.28868 14.71875,7.3125 7.80423,5.63646 12.19123,6.85536 19.0625,5.40625 4.90541,-1.03456 9.98114,-3.6502 11.28125,-5.84375 1.3001,-2.19353 4.89396,-4 7.96875,-4 3.07479,0 6.47019,-1.42611 7.5625,-3.15625 1.09231,-1.72931 4.49446,-2.50413 7.5625,-1.71875 3.06804,0.78541 5.59375,0.25499 5.59375,-1.1875 0,-3.79916 37.67307,-3.24031 40.09375,0.59375 1.40947,2.2325 2.79101,2.01803 4.5625,-0.71875 2.02428,-3.12726 2.55765,-3.17359 2.59375,-0.15625 0.0249,2.08332 1.37424,2.9836 3,2 1.62576,-0.98359 2.9763,-0.0833 3,2 0.0287,2.40117 0.84209,2.70819 2.21875,0.8125 3.43689,-4.73258 18.41645,-3.4929 18.46875,1.53125 0.0402,3.85813 0.35921,3.85813 2.90625,0 1.95324,-2.95872 2.87555,-3.18121 2.90625,-0.6875 0.0433,3.49785 14.91251,2.75281 21.21875,-1.0625 1.35615,-0.82046 2.46875,-0.13546 2.46875,1.5 0,1.63547 2.23218,2.14129 4.9375,1.125 3.68874,-1.38566 4.2725,-0.83123 2.375,2.25 -2.02309,3.28517 -1.65795,3.44522 1.75,0.75 6.06039,-4.793 9.13366,-4.92655 12,-0.5 1.91849,2.96277 2.5279,2.66384 2.5625,-1.21875 0.0508,-5.68594 5.9293,-7.09413 6,-1.4375 0.0309,2.46995 0.73576,2.61807 2.21875,0.46875 3.20707,-4.64797 15.4459,-7.0919 15.5,-3.09375 0.0274,2.02747 1.07338,1.75959 2.65625,-0.6875 1.48003,-2.28814 4.73198,-3.22732 7.5,-2.1875 3.25625,1.22318 4.19179,0.7029 2.78125,-1.53125 -1.41341,-2.23873 -0.50374,-2.73398 2.78125,-1.5 2.70532,1.01623 4.9375,0.80753 4.9375,-0.46875 0,-2.33714 2.6934,-3.01909 16.25,-4.125 4.06441,-0.33155 7.40625,-1.42998 7.40625,-2.4375 0,-1.00745 5.96532,-1.43245 13.28125,-0.9375 8.73944,0.59128 13.31385,-0.26058 13.34375,-2.5 0.0116,-0.87301 0.25227,-1.30101 0.65625,-1.28125 z m 39.0625,63.0625 c 1.94535,-0.16354 4.33618,0.82195 6.625,3.0625 2.9899,2.92694 -5.86032,26.68684 -22,59.15625 -2.40429,4.83693 -3.79425,11.34826 -3.09375,14.46875 1.06901,4.76204 2.3635,3.92034 8.0625,-5.25 3.7344,-6.00918 9.31595,-12.25602 12.40625,-13.875 9.2873,-4.86563 10.2338,4.6836 1.5625,15.8125 -7.7917,10.00011 -7.54035,13.34375 0.96875,13.34375 2.674,0 7.7544,2.66127 11.3125,5.90625 l 6.46875,5.875 0.0937,-8.0625 c 0.0998,-8.56919 5.9199,-18.1875 11,-18.1875 4.5926,0 6.4339,6.93968 4.9375,18.75 -1.6517,13.03594 3.0721,11.24321 10.25,-3.90625 7.6328,-16.10944 24.18945,-43.57853 27.46875,-45.5625 1.6122,-0.97541 4.3404,-0.40451 6.0625,1.28125 2.204,2.15759 0.61435,8.05333 -5.40625,19.875 -4.7039,9.23639 -10.12705,18.40202 -12.03125,20.375 -1.9042,1.97301 -4.2841,7.35397 -5.3125,11.9375 -2.2707,10.12077 -28.81635,35.125 -37.28125,35.125 -3.3203,0 -5.30485,1.17038 -4.40625,2.59375 2.1705,3.4379 25.3125,5.49347 25.3125,2.25 0,-4.43697 34.91445,-36.6875 39.71875,-36.6875 7.2854,0 5.45285,6.61618 -4.96875,17.78125 -16.6077,17.79242 -25.3957,28.51385 -23.375,28.53125 1.0727,0.01 -1.99185,2.02394 -6.78125,4.46875 -10.3958,5.3067 -24.7789,7.36183 -27,3.84375 -0.8754,-1.38653 -3.15755,-2.54025 -5.09375,-2.53125 -1.9363,0.008 -0.005,2.95831 4.3125,6.53125 15.7419,13.02662 16.36045,21.91563 4.71875,69.5625 -4.3431,17.77526 -13.5161,25.97381 -11.5625,10.34375 6.9038,-55.2375 6.9056,-55.38455 -4.75,-66.46875 -7.9106,-7.52269 -9.9594,-8.49134 -8.6875,-4.0625 4.3286,15.07226 5.51715,36.1875 2.03125,36.1875 -2.1878,0 -2.9372,2.38264 -1.9375,6.125 1.616,6.04929 -2.61225,16.47172 -8.34375,20.59375 -1.6257,1.16925 -2.0253,2.13315 -0.875,2.15625 1.1503,0.0244 -1.81803,8.17823 -6.625,18.125 -4.80699,9.94678 -8.749,20.22894 -8.75,22.84375 -0.003,5.45471 -7.8252,9.38763 -10.4375,5.25 -2.67411,-4.2356 6.66763,-36.60076 13.125,-45.5 3.15362,-4.34611 6.61355,-15.05934 7.6875,-23.8125 l 1.9375,-15.90625 -9.84375,15.75 c -10.02826,16.02646 -33.7826,33.36395 -41.65625,30.40625 -4.28701,-1.61038 -11.0625,-20.94359 -11.0625,-31.5625 0,-3.94485 2.64718,-13.73367 5.875,-21.75 3.22779,-8.01634 4.81548,-14.5625 3.53125,-14.5625 -1.28427,0 -6.92973,7.221 -12.53125,16.03125 -20.84542,32.78635 -41.21875,56.56858 -41.21875,48.125 0,-5.37493 8.63902,-22.76172 13.125,-26.40625 2.53258,-2.05753 4.623,-5.20553 4.625,-7 0.002,-1.7945 5.31159,-10.76968 11.8125,-19.9375 6.50092,-9.16782 11.8125,-17.95655 11.8125,-19.53125 0,-1.5747 1.24037,-2.84375 2.75,-2.84375 1.50965,0 4.54364,-1.63564 6.75,-3.625 2.20634,-1.98935 7.84294,-5.58152 12.5,-7.96875 12.421,-6.36706 10.82686,-10.01479 -4.75,-11 -13.49961,-0.85382 -14.02824,-0.54325 -26.59375,14.875 -12.34272,15.14482 -27.85605,27.23392 -31,24.15625 -2.00217,-1.95998 6.71204,-15.29652 18.78125,-28.75 5.35809,-5.97267 9.75,-12.00068 9.75,-13.40625 0,-4.36591 21.50689,-12.81216 31.6875,-12.4375 11.44846,0.42131 11.89954,-1.11913 3.03125,-10.375 -5.587,-5.83117 -6.53682,-9.7306 -5.96875,-24.40625 0.37191,-9.60861 1.89855,-18.95475 3.375,-20.75 1.47649,-1.79528 3.61185,-8.77578 4.75,-15.53125 2.186,-12.97488 6.62188,-18.33265 10.34375,-12.4375 2.78487,4.41101 0.88465,26.9356 -3.5,41.375 -3.73248,12.29172 -0.4753,21.44671 9.9375,27.8125 7.22905,4.41944 10.20161,2.62737 4.84375,-2.90625 -4.72438,-4.87943 -4.54569,-24.09998 0.3125,-35.78125 5.85685,-14.08252 17.96017,-39.91254 22.59375,-48.1875 2.3654,-4.22427 4.3125,-10.41471 4.3125,-13.75 0,-3.66747 1.78009,-5.75848 4.28125,-5.96875 z m -268.3125,15.28125 c 1.10939,-0.086 1.81018,0.84486 2.59375,2.84375 1.97012,5.02582 -4.03682,17.45241 -18.34375,37.8125 -5.44033,7.74211 -9.90625,15.6219 -9.90625,17.53125 0,4.64297 16.97901,16.76361 19,13.5625 0.87409,-1.38453 0.92599,-11.25369 0.0937,-21.9375 -1.15773,-14.86319 -0.63818,-19.15098 2.21875,-18.21875 6.61811,2.15953 11.17468,34.50828 6.9375,49.25 -1.90689,6.63432 -0.63593,9.90509 7.625,19.3125 5.46265,6.22077 12.31647,11.3967 15.21875,11.53125 6.50723,0.30207 18.46162,7.41484 30.1875,17.9375 5.28399,4.74179 13.03727,8.32368 19.1875,8.875 7.30579,0.65491 10.62987,2.52882 11.375,6.375 0.88506,4.5684 -0.26613,5.1613 -7.34375,3.78125 -22.36666,-4.36121 -26.92781,-6.31579 -37.1875,-15.90625 -11.93439,-11.15595 -17.09299,-10.74327 -11.65625,0.9375 2.15963,4.63996 6.69186,7.97497 12.40625,9.09375 9.55099,1.86994 10.38298,2.88288 26.53125,32.4375 10.37253,18.98386 11.99318,20.19181 33.25,24.78125 4.47085,0.96528 8.125,3.67435 8.125,6.03125 0,6.11489 -14.25046,5.48968 -30.03125,-1.34375 -11.75431,-5.08986 -13.92985,-7.68871 -21.78125,-25.90625 -8.30737,-19.27566 -12.43881,-23.27951 -24.28125,-23.40625 -5.22336,-0.0558 -4.66237,15.84697 0.71875,20.21875 5.35849,4.35338 5.93509,12.58044 0.75,10.75 -4.12162,-1.45502 -19.96875,6.57807 -19.96875,10.125 0,6.16139 -5.8479,1.10698 -8.78125,-7.59375 -2.96404,-8.79179 -7.89928,-13.28125 -14.625,-13.28125 -1.23183,0 -3.62727,3.0309 -5.34375,6.71875 -2.65837,5.71149 -1.25851,9.60166 9.4375,26.21875 l 12.53125,19.5 -6.21875,16.46875 c -3.41856,9.05714 -7.27849,18.10439 -8.59375,20.09375 -3.09734,4.68481 -7.96875,4.63817 -7.96875,-0.0625 0,-2.01181 2.52121,-10.39616 5.59375,-18.625 4.72236,-12.64747 4.99605,-15.78221 1.6875,-20.40625 -2.15266,-3.00857 -7.42397,-14.06053 -11.71875,-24.5625 -6.42335,-15.70697 -7.22591,-20.21746 -4.40625,-25.375 2.61483,-4.78281 2.59226,-8.26574 -0.125,-14.6875 -5.71791,-13.51317 -9.74765,-10.23081 -7.53125,6.125 1.47147,10.85855 0.80011,16.16299 -2.59375,20.90625 -2.5004,3.49455 -4.53125,8.49101 -4.53125,11.125 0,5.51325 -8.08521,13.04149 -10.96875,10.21875 -1.06497,-1.04251 0.30123,-6.48956 3.03125,-12.09375 3.17928,-6.52648 4.96875,-17.43904 4.96875,-30.375 0,-11.10798 1.46623,-22.48522 3.25,-25.28125 5.14152,-8.05931 -3.44039,-33.61322 -11.6875,-34.8125 -7.85915,-1.14286 -35.90625,-27.41025 -35.90625,-33.625 0,-6.43411 4.59731,-5.58759 10.96875,2 7.32687,8.72542 23.39882,19.64735 25.65625,17.4375 0.99665,-0.97564 1.8125,-5.97574 1.8125,-11.125 0,-7.89958 -1.45799,-9.88215 -9.3125,-12.5625 -5.11979,-1.74719 -18.15612,-3.15625 -28.9687,-3.15625 -19.5946,0 -26.75,-2.97394 -26.75,-11.0625 0,-3.03369 2.10885,-3.56182 8.125,-2.0625 4.47084,1.11421 18.11929,2.99094 30.3125,4.15625 12.1932,1.16532 25.1294,3.6726 28.75,5.59375 6.01654,3.19249 6.94858,2.63572 10.78125,-6.34375 2.30641,-5.40364 8.98399,-16.62975 14.84375,-24.96875 5.85976,-8.33897 10.65625,-17.47173 10.65625,-20.28125 0,-2.80952 1.95559,-6.7219 4.375,-8.6875 1.5525,-1.2613 2.66839,-1.9331 3.53125,-2 z"
     id="path7418" />
</svg>
