<?xml version="1.0" encoding="UTF-8" standalone="no"?>
<!-- Created with Inkscape (http://www.inkscape.org/) -->

<svg
   xmlns:dc="http://purl.org/dc/elements/1.1/"
   xmlns:cc="http://creativecommons.org/ns#"
   xmlns:rdf="http://www.w3.org/1999/02/22-rdf-syntax-ns#"
   xmlns:svg="http://www.w3.org/2000/svg"
   xmlns="http://www.w3.org/2000/svg"
   xmlns:sodipodi="http://sodipodi.sourceforge.net/DTD/sodipodi-0.dtd"
   xmlns:inkscape="http://www.inkscape.org/namespaces/inkscape"
   id="svg7406"
   version="1.1"
   inkscape:version="0.48.4 r9939"
   width="750"
   height="750"
   sodipodi:docname="logo5-inner.svg">
  <metadata
     id="metadata7412">
    <rdf:RDF>
      <cc:Work
         rdf:about="">
        <dc:format>image/svg+xml</dc:format>
        <dc:type
           rdf:resource="http://purl.org/dc/dcmitype/StillImage" />
        <dc:title></dc:title>
      </cc:Work>
    </rdf:RDF>
  </metadata>
  <defs
     id="defs7410" />
  <sodipodi:namedview
     pagecolor="#ffffff"
     bordercolor="#666666"
     borderopacity="1"
     objecttolerance="10"
     gridtolerance="10"
     guidetolerance="10"
     inkscape:pageopacity="0"
     inkscape:pageshadow="2"
     inkscape:window-width="1600"
     inkscape:window-height="848"
     id="namedview7408"
     showgrid="false"
     inkscape:zoom="0.5"
     inkscape:cx="588.04684"
     inkscape:cy="266.49106"
     inkscape:window-x="0"
     inkscape:window-y="0"
     inkscape:window-maximized="1"
     inkscape:current-layer="svg7406" />
  <path
     style="fill:#6e0c0e;fill-opacity:1"
     d="M 366.78125 139.3125 C 233.40448 139.3125 125.28125 245.42102 125.28125 376.3125 C 125.28125 507.20398 233.40448 613.3125 366.78125 613.3125 C 500.15802 613.3125 608.28125 507.20398 608.28125 376.3125 C 608.28125 245.42102 500.15802 139.3125 366.78125 139.3125 z M 475.875 224.75 C 476.3944 224.7754 477.18141 225.50818 478.125 226.9375 C 480.37564 230.34666 481.027 230.43175 481.0625 227.3125 C 481.0942 224.5318 482.1941 224.2048 484.78125 226.21875 C 486.81345 227.80071 490.81117 228.73179 493.65625 228.28125 C 496.50133 227.83072 498.84075 228.32225 498.84375 229.375 C 498.84675 230.42781 502.64344 231.55934 507.28125 231.875 C 511.91905 232.19066 523.5406 236.08661 533.125 240.53125 C 542.7094 244.97589 554.5602 250.18006 559.4375 252.09375 C 565.3502 254.4137 566.4725 255.60995 562.8125 255.71875 C 559.0958 255.82935 557.8705 257.33425 559.0625 260.375 C 560.2015 263.28067 559.65485 264.13511 557.46875 262.8125 C 555.61055 261.68827 551.2819 260.47284 547.875 260.09375 C 521.8382 257.19646 508.50945 254.96141 504.40625 252.8125 C 501.77497 251.43439 498.70879 251.18972 497.59375 252.28125 C 496.47872 253.37277 494.32496 252.37235 492.8125 250.03125 C 490.40572 246.30592 490.04795 246.29496 489.96875 250.09375 C 489.88825 253.95188 489.54703 253.95188 487 250.09375 C 485.42401 247.70652 484.11735 247.08704 484.09375 248.71875 C 484.06885 250.35042 478.7218 251.52808 472.21875 251.34375 C 465.71571 251.15958 460.40625 251.99001 460.40625 253.1875 C 460.40625 254.38488 457.0644 255.03048 453 254.59375 C 448.9356 254.15699 445.5862 255.22951 445.5625 257 C 445.5376 258.77051 444.23223 258.26222 442.65625 255.875 C 440.24616 252.22427 439.7881 252.41155 439.75 256.96875 C 439.7105 261.69288 439.07949 261.86892 434.71875 258.40625 C 430.44971 255.01642 430.09016 255.05533 432.25 258.5625 C 434.14368 261.63757 433.52977 262.1854 429.875 260.8125 C 426.90642 259.69736 425.29105 260.32395 425.71875 262.40625 C 426.12906 264.40414 422.09677 266.19004 416.0625 266.6875 C 410.37234 267.15662 402.06459 267.84748 397.59375 268.21875 C 393.1229 268.59003 389.46875 269.55776 389.46875 270.375 C 389.46875 271.19221 382.12919 271.79635 373.1875 271.71875 C 364.24581 271.64125 356.9375 272.77073 356.9375 274.21875 C 356.9375 275.66677 355.09303 275.32152 352.8125 273.46875 C 349.62843 270.88192 348.30146 270.97352 347.125 273.84375 C 345.8865 276.86527 345.53234 276.87449 345.34375 273.8125 C 345.21541 271.72916 343.65127 270.90645 341.84375 272 C 340.0362 273.09355 337.38786 272.19327 335.96875 270 C 333.83353 266.70002 333.3873 266.75188 333.3125 270.34375 C 333.232 274.20188 332.89078 274.20188 330.34375 270.34375 C 328.43348 267.45014 327.4677 267.21367 327.4375 269.625 C 327.3671 275.25374 321.51506 273.88765 321.28125 268.1875 C 321.09488 263.64454 320.82621 263.67025 318.875 268.53125 C 316.97313 273.26941 316.16172 273.4263 312.40625 269.75 C 310.04422 267.4378 306.61023 266.02819 304.78125 266.625 C 302.95227 267.2218 299.31485 265.6032 296.6875 263.03125 C 294.06016 260.45932 291.90625 259.80136 291.90625 261.5625 C 291.90625 263.88121 290.17697 263.86842 285.65625 261.5 C 280.22983 258.65709 267.184 258.1356 242.40625 259.78125 C 238.74829 260.0242 235.75 261.26787 235.75 262.53125 C 235.75 263.79463 234.0947 264.59462 232.0625 264.3125 C 221.51003 262.84746 208.07964 269.10058 199.59375 279.4375 C 186.49438 295.39424 183.42343 293.31156 196.09375 277.0625 L 206.6875 263.5 L 199.78125 258.0625 C 195.99012 255.07294 188.90853 250.10898 184.03125 247.03125 C 178.8283 243.74802 177.05189 241.4435 179.75 241.4375 C 182.27923 241.4315 188.8973 244.72618 194.46875 248.75 C 202.27298 254.38646 206.65998 255.60536 213.53125 254.15625 C 218.43666 253.12169 223.51239 250.50605 224.8125 248.3125 C 226.1126 246.11897 229.70646 244.3125 232.78125 244.3125 C 235.85604 244.3125 239.25144 242.88639 240.34375 241.15625 C 241.43606 239.42694 244.83821 238.65212 247.90625 239.4375 C 250.97429 240.22291 253.5 239.69249 253.5 238.25 C 253.5 234.45084 291.17307 235.00969 293.59375 238.84375 C 295.00322 241.07625 296.38476 240.86178 298.15625 238.125 C 300.18053 234.99774 300.7139 234.95141 300.75 237.96875 C 300.7749 240.05207 302.12424 240.95235 303.75 239.96875 C 305.37576 238.98516 306.7263 239.88545 306.75 241.96875 C 306.7787 244.36992 307.59209 244.67694 308.96875 242.78125 C 312.40564 238.04867 327.3852 239.28835 327.4375 244.3125 C 327.4777 248.17063 327.79671 248.17063 330.34375 244.3125 C 332.29699 241.35378 333.2193 241.13129 333.25 243.625 C 333.2933 247.12285 348.16251 246.37781 354.46875 242.5625 C 355.8249 241.74204 356.9375 242.42704 356.9375 244.0625 C 356.9375 245.69797 359.16968 246.20379 361.875 245.1875 C 365.56374 243.80184 366.1475 244.35627 364.25 247.4375 C 362.22691 250.72267 362.59205 250.88272 366 248.1875 C 372.06039 243.3945 375.13366 243.26095 378 247.6875 C 379.91849 250.65027 380.5279 250.35134 380.5625 246.46875 C 380.6133 240.78281 386.4918 239.37462 386.5625 245.03125 C 386.5934 247.5012 387.29826 247.64932 388.78125 245.5 C 391.98832 240.85203 404.22715 238.4081 404.28125 242.40625 C 404.30865 244.43372 405.35463 244.16584 406.9375 241.71875 C 408.41753 239.43061 411.66948 238.49143 414.4375 239.53125 C 417.69375 240.75443 418.62929 240.23415 417.21875 238 C 415.80534 235.76127 416.71501 235.26602 420 236.5 C 422.70532 237.51623 424.9375 237.30753 424.9375 236.03125 C 424.9375 233.69411 427.6309 233.01216 441.1875 231.90625 C 445.25191 231.5747 448.59375 230.47627 448.59375 229.46875 C 448.59375 228.4613 454.55907 228.0363 461.875 228.53125 C 470.61444 229.12253 475.18885 228.27067 475.21875 226.03125 C 475.23035 225.15824 475.47102 224.73024 475.875 224.75 z M 514.9375 287.8125 C 516.88285 287.64896 519.27368 288.63445 521.5625 290.875 C 524.5524 293.80194 515.70218 317.56184 499.5625 350.03125 C 497.15821 354.86818 495.76825 361.37951 496.46875 364.5 C 497.53776 369.26204 498.83225 368.42034 504.53125 359.25 C 508.26565 353.24082 513.8472 346.99398 516.9375 345.375 C 526.2248 340.50937 527.1713 350.0586 518.5 361.1875 C 510.7083 371.18761 510.95965 374.53125 519.46875 374.53125 C 522.14275 374.53125 527.22315 377.19252 530.78125 380.4375 L 537.25 386.3125 L 537.34375 378.25 C 537.44355 369.68081 543.26365 360.0625 548.34375 360.0625 C 552.93635 360.0625 554.77765 367.00218 553.28125 378.8125 C 551.62955 391.84844 556.35335 390.05571 563.53125 374.90625 C 571.16405 358.79681 587.7207 331.32772 591 329.34375 C 592.6122 328.36834 595.3404 328.93924 597.0625 330.625 C 599.2665 332.78259 597.67685 338.67833 591.65625 350.5 C 586.95235 359.73639 581.5292 368.90202 579.625 370.875 C 577.7208 372.84801 575.3409 378.22897 574.3125 382.8125 C 572.0418 392.93327 545.49615 417.9375 537.03125 417.9375 C 533.71095 417.9375 531.7264 419.10788 532.625 420.53125 C 534.7955 423.96915 557.9375 426.02472 557.9375 422.78125 C 557.9375 418.34428 592.85195 386.09375 597.65625 386.09375 C 604.94165 386.09375 603.1091 392.70993 592.6875 403.875 C 576.0798 421.66742 567.2918 432.38885 569.3125 432.40625 C 570.3852 432.41625 567.32065 434.43019 562.53125 436.875 C 552.13545 442.1817 537.75235 444.23683 535.53125 440.71875 C 534.65585 439.33222 532.3737 438.1785 530.4375 438.1875 C 528.5012 438.1955 530.4325 441.14581 534.75 444.71875 C 550.4919 457.74537 551.11045 466.63438 539.46875 514.28125 C 535.12565 532.05651 525.95265 540.25506 527.90625 524.625 C 534.81005 469.3875 534.81185 469.24045 523.15625 458.15625 C 515.24565 450.63356 513.19685 449.66491 514.46875 454.09375 C 518.79735 469.16601 519.9859 490.28125 516.5 490.28125 C 514.3122 490.28125 513.5628 492.66389 514.5625 496.40625 C 516.1785 502.45554 511.95025 512.87797 506.21875 517 C 504.59305 518.16925 504.19345 519.13315 505.34375 519.15625 C 506.49405 519.18065 503.52572 527.33448 498.71875 537.28125 C 493.91176 547.22803 489.96975 557.51019 489.96875 560.125 C 489.96575 565.57971 482.14355 569.51263 479.53125 565.375 C 476.85714 561.1394 486.19888 528.77424 492.65625 519.875 C 495.80987 515.52889 499.2698 504.81566 500.34375 496.0625 L 502.28125 480.15625 L 492.4375 495.90625 C 482.40924 511.93271 458.6549 529.2702 450.78125 526.3125 C 446.49424 524.70212 439.71875 505.36891 439.71875 494.75 C 439.71875 490.80515 442.36593 481.01633 445.59375 473 C 448.82154 464.98366 450.40923 458.4375 449.125 458.4375 C 447.84073 458.4375 442.19527 465.6585 436.59375 474.46875 C 415.74833 507.2551 395.375 531.03733 395.375 522.59375 C 395.375 517.21882 404.01402 499.83203 408.5 496.1875 C 411.03258 494.12997 413.123 490.98197 413.125 489.1875 C 413.127 487.393 418.43659 478.41782 424.9375 469.25 C 431.43842 460.08218 436.75 451.29345 436.75 449.71875 C 436.75 448.14405 437.99037 446.875 439.5 446.875 C 441.00965 446.875 444.04364 445.23936 446.25 443.25 C 448.45634 441.26065 454.09294 437.66848 458.75 435.28125 C 471.171 428.91419 469.57686 425.26646 454 424.28125 C 440.50039 423.42743 439.97176 423.738 427.40625 439.15625 C 415.06353 454.30107 399.5502 466.39017 396.40625 463.3125 C 394.40408 461.35252 403.11829 448.01598 415.1875 434.5625 C 420.54559 428.58983 424.9375 422.56182 424.9375 421.15625 C 424.9375 416.79034 446.44439 408.34409 456.625 408.71875 C 468.07346 409.14006 468.52454 407.59962 459.65625 398.34375 C 454.06925 392.51258 453.11943 388.61315 453.6875 373.9375 C 454.05941 364.32889 455.58605 354.98275 457.0625 353.1875 C 458.53899 351.39222 460.67435 344.41172 461.8125 337.65625 C 463.9985 324.68137 468.43438 319.3236 472.15625 325.21875 C 474.94112 329.62976 473.0409 352.15435 468.65625 366.59375 C 464.92377 378.88547 468.18095 388.04046 478.59375 394.40625 C 485.8228 398.82569 488.79536 397.03362 483.4375 391.5 C 478.71312 386.62057 478.89181 367.40002 483.75 355.71875 C 489.60685 341.63623 501.71017 315.80621 506.34375 307.53125 C 508.70915 303.30698 510.65625 297.11654 510.65625 293.78125 C 510.65625 290.11378 512.43634 288.02277 514.9375 287.8125 z M 246.625 303.09375 C 247.73439 303.00775 248.43518 303.93861 249.21875 305.9375 C 251.18887 310.96332 245.18193 323.38991 230.875 343.75 C 225.43467 351.49211 220.96875 359.3719 220.96875 361.28125 C 220.96875 365.92422 237.94776 378.04486 239.96875 374.84375 C 240.84284 373.45922 240.89474 363.59006 240.0625 352.90625 C 238.90477 338.04306 239.42432 333.75527 242.28125 334.6875 C 248.89936 336.84703 253.45593 369.19578 249.21875 383.9375 C 247.31186 390.57182 248.58282 393.84259 256.84375 403.25 C 262.3064 409.47077 269.16022 414.6467 272.0625 414.78125 C 278.56973 415.08332 290.52412 422.19609 302.25 432.71875 C 307.53399 437.46054 315.28727 441.04243 321.4375 441.59375 C 328.74329 442.24866 332.06737 444.12257 332.8125 447.96875 C 333.69756 452.53715 332.54637 453.13005 325.46875 451.75 C 303.10209 447.38879 298.54094 445.43421 288.28125 435.84375 C 276.34686 424.6878 271.18826 425.10048 276.625 436.78125 C 278.78463 441.42121 283.31686 444.75622 289.03125 445.875 C 298.58224 447.74494 299.41423 448.75788 315.5625 478.3125 C 325.93503 497.29636 327.55568 498.50431 348.8125 503.09375 C 353.28335 504.05903 356.9375 506.7681 356.9375 509.125 C 356.9375 515.23989 342.68704 514.61468 326.90625 507.78125 C 315.15194 502.69139 312.9764 500.09254 305.125 481.875 C 296.81763 462.59934 292.68619 458.59549 280.84375 458.46875 C 275.62039 458.41295 276.18138 474.31572 281.5625 478.6875 C 286.92099 483.04088 287.49759 491.26794 282.3125 489.4375 C 278.19088 487.98248 262.34375 496.01557 262.34375 499.5625 C 262.34375 505.72389 256.49585 500.66948 253.5625 491.96875 C 250.59846 483.17696 245.66322 478.6875 238.9375 478.6875 C 237.70567 478.6875 235.31023 481.7184 233.59375 485.40625 C 230.93538 491.11774 232.33524 495.00791 243.03125 511.625 L 255.5625 531.125 L 249.34375 547.59375 C 245.92519 556.65089 242.06526 565.69814 240.75 567.6875 C 237.65266 572.37231 232.78125 572.32567 232.78125 567.625 C 232.78125 565.61319 235.30246 557.22884 238.375 549 C 243.09736 536.35253 243.37105 533.21779 240.0625 528.59375 C 237.90984 525.58518 232.63853 514.53322 228.34375 504.03125 C 221.9204 488.32428 221.11784 483.81379 223.9375 478.65625 C 226.55233 473.87344 226.52976 470.39051 223.8125 463.96875 C 218.09459 450.45558 214.06485 453.73794 216.28125 470.09375 C 217.75272 480.9523 217.08136 486.25674 213.6875 491 C 211.1871 494.49455 209.15625 499.49101 209.15625 502.125 C 209.15625 507.63825 201.07104 515.16649 198.1875 512.34375 C 197.12253 511.30124 198.48873 505.85419 201.21875 500.25 C 204.39803 493.72352 206.1875 482.81096 206.1875 469.875 C 206.1875 458.76702 207.65373 447.38978 209.4375 444.59375 C 214.57902 436.53444 205.99711 410.98053 197.75 409.78125 C 189.89085 408.63839 161.84375 382.371 161.84375 376.15625 C 161.84375 369.72214 166.44106 370.56866 172.8125 378.15625 C 180.13937 386.88167 196.21132 397.8036 198.46875 395.59375 C 199.4654 394.61811 200.28125 389.61801 200.28125 384.46875 C 200.28125 376.56917 198.82326 374.5866 190.96875 371.90625 C 185.84891 370.15906 172.81258 368.75 162 368.75 C 142.4054 368.75 135.25 365.77606 135.25 357.6875 C 135.25 354.65381 137.35885 354.12568 143.375 355.625 C 147.84584 356.73921 161.49429 358.61594 173.6875 359.78125 C 185.8807 360.94657 198.8169 363.45385 202.4375 365.375 C 208.45404 368.56749 209.38608 368.01072 213.21875 359.03125 C 215.52516 353.62761 222.20274 342.4015 228.0625 334.0625 C 233.92226 325.72353 238.71875 316.59077 238.71875 313.78125 C 238.71875 310.97173 240.67434 307.05935 243.09375 305.09375 C 244.64625 303.83245 245.76214 303.16065 246.625 303.09375 z "
     id="path7418" />
  <path
     id="path7418-2"
     d="m 367.69552,36.976049 c -196.06108,0 -354.999996,153.342471 -354.999996,342.500001 0,189.15753 158.938916,342.5 354.999996,342.5 137.63518,0 256.97048,-75.5537 315.875,-186.03125 -0.97076,-2.83373 -3.35611,-5.3838 -6.84375,-8.90625 -8.4718,-8.55643 -9.1997,-10.53223 -6.125,-16.15625 l 3.5,-6.40625 9.96875,9.46875 7.125,6.75 c 20.22014,-43.05422 31.5,-90.87499 31.5,-141.21875 0,-189.15753 -158.93892,-342.500001 -355,-342.500001 z m 12.5625,9.46875 19.59375,0 2.40625,11.28125 c 1.32163,6.2083 1.85918,11.81055 1.21875,12.4375 -0.64046,0.62693 -5.20601,-2.81038 -10.15625,-7.65625 -10.58837,-10.3651 -13.37704,-10.76882 -21.28125,-3.03125 -12.8384,12.56772 -2.81674,40.5 14.53125,40.5 4.50732,0 10.61089,-2.619776 13.5625,-5.8125 6.96745,-7.536631 8.18731,-5.975895 4.15625,5.34375 -3.1418,8.822581 -3.87465,9.156251 -20.0625,9.156251 -18.6946,0 -27.29489,-4.33952 -35.78125,-18.000001 -4.92859,-7.93358 -5.52672,-8.15885 -7.25,-2.84375 -1.38207,4.262764 -5.16373,6.122283 -14.34375,7.0625 -15.02179,1.538568 -15.25948,1.400866 -11.09375,-6.21875 1.8147,-3.31929 6.24298,-6.07345 9.84375,-6.09375 15.10252,-0.09114 19.84375,-3.153 19.84375,-12.8125 0,-6.23928 2.50137,-11.56771 7.625,-16.28125 6.48593,-5.9668 10.53533,-7.03125 27.1875,-7.03125 z m 42.40625,4.875 c 1.80054,-0.06709 4.70454,0.262582 8.875,0.9375 15.8919,2.57181 15.67452,2.37763 10.90625,9.90625 -3.2937,5.20045 -3.21362,6.60554 0.53125,8.9375 7.89274,4.91485 11.84375,3.10195 11.84375,-5.4375 l 0,-8.28125 13.25,2.96875 c 9.04943,2.02712 12.39361,3.96515 10.5625,6.125 -3.28986,3.88047 -12,39.890381 -12,49.593751 0,7.54473 -2.09326,8.02854 -16.75,3.875 -9.04139,-2.56223 -9.24515,-2.93602 -5.40625,-10.59375 2.18786,-4.36429 4.88629,-12.813176 6,-18.781251 1.9006,-10.18483 1.59319,-10.84375 -5.375,-10.84375 -6.45589,0 -7.88352,1.881739 -10.9375,14.34375 -1.93155,7.881861 -2.56852,15.815311 -1.40625,17.656251 1.54844,2.4526 -1.3333,2.78405 -10.8125,1.25 -15.66081,-2.53442 -15.56019,-2.43906 -11.84375,-9.09375 4.91801,-8.806373 12.91735,-46.712861 10.625,-50.343751 -0.88269,-1.398077 -0.37748,-2.132486 1.9375,-2.21875 z m -146.125,8.03125 c 7.51074,-0.108572 15.1507,2.352712 21.65625,8.09375 16.46198,14.52742 14.68282,38.929441 -3.65625,49.875001 -20.8155,12.42365 -47.15752,2.68098 -51.3125,-19.000001 -4.15423,-21.677054 14.11838,-38.691288 33.3125,-38.96875 z m -7.21875,9.15625 c -2.56628,0.103076 -4.74584,1.953812 -6.71875,5.5625 -4.01527,7.34441 0.88412,24.28753 9.8125,33.875001 18.23045,19.57627 26.96756,-10.237316 9.09375,-31.031251 -4.95416,-5.763555 -8.88799,-8.538776 -12.1875,-8.40625 z m 228.59375,5.3125 c 2.68463,-0.09534 8.81066,2.369165 20.5,8.03125 14.8562,7.19605 21.7133,12.070636 20.6875,14.6875 -0.8441,2.153275 -1.53125,6.415941 -1.53125,9.468751 0,3.05279 -1.3118,5.5625 -2.9375,5.5625 -1.6258,0 -2.96875,-2.40746 -2.96875,-5.34375 0,-7.243581 -10.46215,-16.045343 -16.40625,-13.812501 -6.6379,2.493516 -3.5992,9.052381 4.0625,8.781251 5.2765,-0.18667 5.98515,0.98476 4.46875,7.25 -0.9926,4.10091 -2.8931,9.39403 -4.25,11.78125 -1.9177,3.37378 -2.4925,2.91905 -2.5625,-2.0625 -0.0495,-3.52482 -2.71065,-7.76328 -5.90625,-9.4375 -4.9301,-2.58292 -6.49528,-1.75393 -10.34375,5.53125 -2.4945,4.72213 -4.53125,10.63872 -4.53125,13.15625 0,7.298 11.9129,10.08255 23.375,5.46875 5.5333,-2.22732 10.49235,-3.62131 11.03125,-3.09375 0.5389,0.52754 -3.33445,5.00994 -8.59375,9.9375 l -9.5625,8.96875 -20.6875,-10.25 c -24.22405,-11.9671 -24.46303,-12.12672 -20.25,-14.75 4.24743,-2.64473 24.6875,-42.564851 24.6875,-48.218751 0,-1.049216 0.49846,-1.612911 1.71875,-1.65625 z m -278.34375,9.1875 c 3.2575,-0.04015 5.46855,1.377097 7.71875,4.03125 2.8156,3.32108 2.93811,6.141391 0.53125,11.3125 -2.98276,6.408401 -1.95233,7.719551 14.5625,18.343751 l 17.75,11.40625 -10.71875,6.1875 c -12.49348,7.2159 -16.3125,7.72809 -16.3125,2.1875 0,-4.75712 -12.509,-13.34375 -19.4375,-13.34375 -4.47338,0 -4.44963,0.67116 0.25,7.96875 2.8185,4.37658 7.02787,9.43287 9.34375,11.25 3.48318,2.73304 2.46604,4.35992 -5.875,9.40625 -10.40797,6.29687 -18.38103,8.08157 -15.46875,3.46875 1.80436,-2.85796 -20.83874,-43.84796 -26.03125,-47.125 -3.98824,-2.517 -4.34515,-2.25141 19.09375,-14.937501 12.80765,-6.932038 19.83279,-10.097565 24.59375,-10.15625 z m -12.6875,14.09375 c -8.05496,0 -10.19468,4.354791 -5.65625,11.468751 4.881,7.65093 9.4746,6.02122 10.65625,-3.75 0.73996,-6.118761 -0.30566,-7.718751 -5,-7.718751 z m 352.96875,6.531251 11.6875,9.90625 c 7.2173,6.10736 10.4888,10.65971 8.5,11.90625 -3.7492,2.34995 -8.3405,15.0625 -5.4375,15.0625 1.078,0 5.8082,-2.22446 10.5,-4.9375 8.3596,-4.83406 8.70585,-4.77681 17.03125,3.03125 l 8.5,7.96875 -8.84375,9.25 c -4.8644,5.09469 -13.15545,14.47781 -18.40625,20.84375 -5.2508,6.36594 -10.0635,13.07182 -10.6875,14.90625 -0.6679,1.96348 -5.5996,-0.46117 -12,-5.90625 -10.4049,-8.85174 -10.61535,-9.38339 -4.71875,-12.03125 3.3889,-1.52172 10.9027,-8.41591 16.6875,-15.34375 l 10.53125,-12.59375 -11.71875,4.9375 c -13.4678,5.69239 -22.08225,8.37525 -22.03125,6.84375 0.0193,-0.5835 1.88415,-7.89471 4.15625,-16.25 2.2722,-8.35529 3.715,-15.1875 3.1875,-15.1875 -2.9151,0 -24.7913,30.01206 -23.4375,32.15625 2.5765,4.08094 -2.2373,2.96763 -7.5625,-1.75 -4.4565,-3.94803 -3.558,-5.73222 10.8125,-20.96875 8.6354,-9.15592 17.39945,-20.06746 19.46875,-24.25 l 3.78125,-7.59375 z m -395.65625,14.3125 c 10.26148,0.0312 13.34613,18.29142 3.71875,33.75 l -6.09375,9.75 6.59375,6.90625 c 3.63177,3.78435 9.3067,6.875 12.59375,6.875 5.22636,0 4.70646,1.26848 -4.0625,10.125 -10.26907,10.37162 -14.78125,12.49459 -14.78125,7 0,-4.62338 -32.75199,-37.375 -37.375,-37.375 -2.19117,0 -4,-0.57558 -4,-1.28125 0,-1.00718 5.60694,-6.6561 12.59375,-13.09375 9.95286,-9.17058 22.71321,-19.98926 26,-21.5 1.7434,-0.80133 3.34657,-1.1607 4.8125,-1.15625 z m 204.15625,8.34375 c 140.83261,0 255,111.92881 255,250 0,138.07119 -114.16739,250 -255,250 -140.83261,0 -255,-111.92881 -255,-250 0,-138.07119 114.16739,-250 255,-250 z m -214.875,8.40625 c -8.3699,0 -10.37999,5.35333 -4.4375,11.78125 7.27422,7.86847 10.1875,6.97325 10.1875,-3.09375 0,-6.66378 -1.34572,-8.6875 -5.75,-8.6875 z m 456.28125,61.1875 c 3.46736,0.016 8.56933,1.08659 16.34375,2.71875 16.4985,3.46368 15.8452,1.18874 8.625,29.4375 -1.5254,5.96807 -3.06245,10.67853 -3.40625,10.5 -0.3438,-0.17859 -7.9333,-1.81126 -16.875,-3.65625 -8.9416,-1.84505 -16.21325,-4.63027 -16.15625,-6.1875 0.0571,-1.55722 1.15385,-9.67596 2.46875,-18.03125 1.73184,-11.00554 2.38049,-14.81181 9,-14.78125 z m -491.5625,0.5625 c 1.17051,0.013 1.99753,0.11538 2.375,0.34375 2.36714,1.43213 7.2895,22.24904 7.53125,31.84375 0.10745,4.26474 -34.149679,10.34775 -35.374995,6.28125 -1.583929,-5.25667 -7.40625,-30.30681 -7.40625,-31.84375 0,-2.06975 24.681425,-6.7163 32.874995,-6.625 z m -74.499995,65.59375 c 1.10761,0 3.33849,1.27912 4.96875,2.875 4.67693,4.57832 53.402085,17.57523 58.593745,15.625 6.06264,-2.27741 5.97451,-1.3644 -2.4375,26.1875 -3.9123,12.81399 -8.045326,34.69951 -9.156245,48.625 -1.662901,20.84466 -2.865986,25.31135 -6.90625,25.34375 -2.69914,0.0217 -7.90454,0.82162 -11.5625,1.78125 -3.65797,0.95961 -6.65625,0.46649 -6.65625,-1.125 0,-1.59148 2.64306,-3.57891 5.875,-4.40625 6.12134,-1.567 13.12854,-15.07862 10.21875,-19.6875 -3.28741,-5.20699 -13.125,-2.83493 -13.125,3.15625 0,3.18297 1.4033,5.78125 3.125,5.78125 1.72171,0 2.31727,1.31476 1.3125,2.90625 -1.00478,1.59148 -7.34885,2.875 -14.0625,2.875 l -12.1875,0 6.625,-6.03125 c 3.64535,-3.32456 6.1208,-7.55848 5.5,-9.40625 -1.58503,-4.7178 -29.06842,-6.11991 -31.90625,-1.625 -3.30186,5.22987 2.38927,17.61346 11.46875,24.9375 9.20491,7.4252 6.91635,7.6857 -10.46875,1.28125 l -12.531251,-4.59375 1.59375,-16.03125 c 2.97187,-30.03961 4.31492,-35.44181 8.093751,-32.5 1.93614,1.50731 14.83728,3.52257 28.65625,4.46875 13.81897,0.94626 23.41016,0.98274 21.34375,0.0937 -6.04496,-2.60046 -12.5,-17.31337 -12.5,-28.5 0,-8.61829 -1.35164,-10.87704 -8.125,-13.40625 -4.47084,-1.66944 -11.77916,-2.51246 -16.25,-1.875 -4.47084,0.63754 -8.125,0.6736 -8.125,0.0625 0,-4.92313 7.04148,-26.8125 8.625,-26.8125 z m 644.874995,3.5 c 3.55257,0.0909 7.16915,1.81993 9.625,5.65625 2.2308,3.48468 2.02705,6.09377 -0.78125,9.40625 -5.6176,6.62608 -17.14265,5.83049 -19.46875,-1.34375 -2.63891,-8.13921 3.84281,-13.89223 10.625,-13.71875 z m 1.75,31.3125 c 11.9831,-0.14778 17.63975,5.48147 20.15625,20.0625 2.6954,15.61802 -5.2907,31.6416 -19.1875,38.4375 -12.7,6.21058 -34.92355,6.57784 -43.46875,0.71875 -7.0904,-4.86161 -11.9593,-17.50486 -13.25,-34.40625 -0.8437,-11.04777 -0.61035,-11.33631 12.28125,-15.0625 15.9765,-4.61785 18.3289,-3.2203 7.9375,4.78125 -9.135,7.0341 -10.1629,17.12476 -2.4375,23.96875 6.626,5.87006 18.12925,6.14925 31.40625,0.71875 18.3935,-7.52326 21.24605,-26.30148 5.28125,-34.78125 l -8.09375,-4.3125 9.375,-0.125 z m -611.124995,0.5 c -3.845885,0.20962 -3.13517,3.38523 1.84375,10.34375 5.43456,7.59535 8.139707,7.99646 13.25,1.96875 4.519832,-5.33127 1.572131,-8.83276 -9.71875,-11.5625 -2.307412,-0.55785 -4.093038,-0.81987 -5.375,-0.75 z M 644.00802,363.4448 c 1.17877,-0.0835 2.69114,0.75092 4.5625,2.5625 1.5444,1.49513 17.0904,3.13077 34.5625,3.625 l 31.78125,0.90625 0,7.96875 c 0.005,4.37659 -1.3117,7.9375 -2.9375,7.9375 -1.6257,0 -2.96875,-1.28352 -2.96875,-2.875 0,-6.24001 -11.28075,-2.25615 -32.15625,11.34375 l -21.84375,14.21875 13.875,2.03125 c 7.6282,1.11977 20.43035,1.41235 28.46875,0.65625 14.4296,-1.35728 14.625,-1.27618 14.625,6.875 0,8.46779 -2.57395,10.3731 -7.53125,5.53125 -1.5444,-1.50849 -17.2401,-3.14414 -34.875,-3.625 l -32.0625,-0.875 1.75,-12.6875 c 0.9708,-6.98595 1.78125,-14.44733 1.78125,-16.5625 0,-2.11514 1.6553,-3.24421 3.6875,-2.5 2.0322,0.7442 7.6852,-1.36309 12.5625,-4.6875 l 8.875,-6.03125 -12.5625,1.4375 c -12.2321,1.39379 -12.5625,1.18428 -12.5625,-7 0,-5.37249 1.00414,-8.11084 2.96875,-8.25 z M 77.008025,389.35105 c 12.88803,0 20.06777,9.10639 20.5,26.03125 0.393355,15.40282 0.552518,16.4206 3.562495,23.15625 3.6898,8.25694 16.76108,47.28696 16.03125,47.875 -2.05241,1.65376 -19.896586,10 -21.374995,10 -0.942288,0 1.133343,-3.7831 4.624995,-8.40625 10.56686,-13.99111 4.98894,-15.28396 -23.843745,-5.46875 -16.21765,5.52083 -26.84991,10.7632 -27.5625,13.59375 -1.12594,4.47251 -7.53816,-7.01152 -12.125,-21.75 -1.64965,-5.30063 -0.89128,-5.94602 5.5,-4.75 5.73066,1.0724 48.687987,-11.24761 54.5,-15.625 3.047496,-2.2953 -7.13648,-9.6875 -13.34375,-9.6875 -8.59112,0 -9.10983,-5.95742 -1.125,-13.03125 3.33916,-2.95819 5.9375,-8.8866 5.9375,-13.65625 0,-13.71697 -9.21043,-8.98689 -15.375,7.90625 -2.90095,7.94964 -7.51345,16.07315 -10.28125,18.0625 -7.86762,5.65484 -20.53882,4.27419 -29.4375,-3.21875 -7.001141,-5.89518 -8.307071,-9.48844 -9.375001,-25.90625 -1.36808,-21.03228 -3.26151,-18.92628 20.843751,-23.59375 7.31617,-1.41663 6.47466,0.66065 -3.6875,9.03125 -8.77889,7.23121 -11.13377,16.17483 -6.25,23.71875 5.09217,7.86587 13.52004,2.22475 18.1875,-12.1875 5.12349,-15.82039 11.95297,-22.09375 24.09375,-22.09375 z m 561.624995,35.75 c 0.74833,-0.12758 1.53139,0.50754 2.375,1.84375 2.4903,3.94451 43.9946,14.22453 58,14.375 l 9.1875,0.125 -3.03125,13 c -2.9294,12.53149 -5.84555,15.84296 -9.21875,10.5 -2.3867,-3.78024 -57.23205,-15.56822 -61.21875,-13.15625 -2.5382,1.53561 -2.935,-1.20767 -1.4375,-10.375 1.75857,-10.76547 3.43136,-15.98646 5.34375,-16.3125 z M 90.195525,436.0073 c -0.812519,0.0537 -1.668571,0.24905 -2.46875,0.5625 -2.35804,0.9237 -1.66224,1.61111 1.78125,1.75 3.116034,0.12564 4.857233,-0.56973 3.875,-1.53125 -0.613897,-0.60087 -1.833302,-0.87071 -3.1875,-0.78125 z m 523.968745,60.625 c 3.99725,-0.0337 20.96875,6.85227 20.96875,8.84375 0,1.17093 -4.2164,2.53254 -9.375,3.03125 -5.1585,0.49872 -9.84085,2.30936 -10.40625,4 -1.2175,3.6406 40.5556,30.1875 47.5,30.1875 6.3159,0 6.1424,0.9511 -2.9375,15.03125 -6.5473,10.15303 -8.1608,11.24798 -10.5,7.15625 -3.5929,-6.28486 -45.5529,-34.02183 -47.9375,-31.6875 -3.0897,3.02454 -2.02485,13.96027 1.71875,17.625 6.3803,6.24577 -1.50895,3.6142 -8.53125,-2.84375 -4.8681,-4.47699 -6.8335,-5.08898 -6.8125,-2.15625 0.029,4.18077 38.9588,40.46551 46.4375,43.28125 3.0411,1.14494 2.15425,3.26633 -3.46875,8.4375 -7.4103,6.81482 -7.53125,6.83344 -7.53125,0.8125 0,-3.36645 -0.99945,-6.67747 -2.21875,-7.375 -1.2193,-0.69757 -14.1807,-2.11235 -28.8125,-3.15625 l -26.59375,-1.90625 17.125,16 c 9.424,8.80921 19.0747,16.03125 21.4375,16.03125 5.8469,0 5.3828,3.92219 -1.125,9.6875 -6.5434,5.79682 -9.375,6.05864 -9.375,0.90625 0,-4.31668 -37.3738,-40.64144 -44.3125,-43.0625 -3.3792,-1.17908 -1.68325,-4.37507 7.21875,-13.46875 7.7753,-7.9427 12.69145,-10.95457 14.65625,-9.03125 4.0361,3.95096 20.41055,3.77917 17.90625,-0.1875 -1.0668,-1.68967 -5.32555,-4.333 -9.46875,-5.875 l -7.53125,-2.8125 5.96875,-6.40625 c 4.4761,-4.81271 25.08705,-34.57568 35.21875,-50.84375 0.1029,-0.16523 0.36774,-0.21526 0.78125,-0.21875 z m -485.96875,13.6875 c 1.75255,-0.031 4.23091,2.69729 8.78125,9.125 l 8.375,11.8125 -5.9375,6.4375 c -10.72787,11.67084 -11.10946,14.13149 -1.875,11.96875 4.60706,-1.07896 10.08476,-3.27617 12.15625,-4.875 2.07149,-1.59875 4.1378,-2.40592 4.625,-1.78125 11.57653,14.84288 17.8303,28.55015 11.1875,24.53125 -1.41747,-0.85758 -12.37995,5.08207 -24.375,13.21875 -11.99506,8.13668 -23.89417,17.33909 -26.4375,20.4375 -4.47172,5.44768 -4.88586,5.23059 -12.5625,-6.125 -9.403978,-13.91084 -9.531857,-14.5093 -2.624995,-14 4.367745,0.32209 39.930355,-21.07778 38.062495,-22.90625 -0.31016,-0.30363 -8.88577,1.14623 -19.03125,3.21875 -10.14548,2.07246 -18.4375,3.07031 -18.4375,2.25 0,-0.82031 3.99772,-7.83428 8.875,-15.59375 4.87729,-7.7595 8.84375,-14.76707 8.84375,-15.59375 0,-3.87199 -35.476295,23.53014 -35.562495,27.46875 -0.07237,3.30739 -1.62792,2.68348 -5.90625,-2.34375 -6.14654,-7.22254 -7.86149,-13.53577 -2.84375,-10.5 3.32187,2.00973 48.722995,-28.26828 52.624995,-35.09375 0.61503,-1.07583 1.26588,-1.64214 2.0625,-1.65625 z m 52.90625,64.03125 c 1.58172,-0.0874 5.37569,2.18895 9.5,5.8125 l 9.25,8.09375 -14.40625,28.09375 c -7.92115,15.45601 -14.40625,30.60616 -14.40625,33.65625 0,8.13903 -3.36517,6.88581 -16.25,-6.03125 -8.19654,-8.21704 -10.12481,-11.5625 -6.625,-11.5625 7.34784,0 11.60687,-9.7405 8.15625,-18.625 -1.58576,-4.08291 -4.60161,-7.4375 -6.71875,-7.4375 -6.26887,0 -17,8.66715 -17,13.71875 0,3.74783 -1.45802,3.31652 -7.375,-2.125 -7.22149,-6.6412 -10.3053,-13.67505 -4.4375,-10.125 3.16573,1.91528 57.91267,-28.43076 59.59375,-33.03125 0.10367,-0.28372 0.35374,-0.41733 0.71875,-0.4375 z m 355.96875,12.375 8.09375,8.25 8.09375,8.28125 -10.0625,-1.5625 c -6.2421,-0.95758 -12.1319,-0.006 -15.5625,2.5 -4.797,3.50479 -5.0327,4.8459 -1.625,10.1875 2.9265,4.58727 4.9036,5.37502 7.75,3.0625 2.0992,-1.70543 3.8125,-4.90141 3.8125,-7.09375 0,-6.30115 3.74965,-4.35813 13.28125,6.84375 7.3544,8.64315 7.7707,9.82535 2.4375,7.03125 -6.8705,-3.59945 -15.71875,-1.82747 -15.71875,3.15625 0,5.1655 14.8607,22.375 19.3125,22.375 7.0388,0 14.12735,-13.50893 12.15625,-23.15625 -2.6599,-13.0193 2.0882,-10.40517 7.625,4.21875 l 4.875,12.90625 -20.125,14.59375 c -22.0173,15.97796 -23.84375,16.73368 -23.84375,10.09375 0,-2.47192 -7.2301,-14.05861 -16.0625,-25.75 -15.4583,-20.46201 -22.34375,-27.52717 -22.34375,-22.875 0,5.50978 21.5816,56.03125 23.9375,56.03125 6.9768,0 1.3345,5.48132 -10,9.71875 -15.94191,5.95987 -16.66106,5.93588 -14.875,-0.75 0.80756,-3.02307 -1.66391,-13.76832 -5.46875,-23.875 -6.06642,-16.11398 -7.00303,-17.29983 -7.6875,-9.6875 -0.42929,4.77445 -1.53165,13.07634 -2.4375,18.46875 l -1.625,9.8125 -13.09375,-12.59375 c -7.20009,-6.91737 -13.09375,-11.64161 -13.09375,-10.53125 0,5.87244 15.86738,39.6875 18.625,39.6875 2.02082,0 2.19285,0.95698 0.4375,2.5625 -1.54447,1.4126 -6.00235,3.52925 -9.90625,4.6875 -5.65522,1.67789 -6.76032,1.19021 -5.375,-2.34375 1.72411,-4.39826 -15.61168,-51.48647 -21.53125,-58.46875 -2.32537,-2.74282 -0.14544,-4.77931 8.875,-8.3125 14.54538,-5.69719 17.71875,-5.83037 17.71875,-0.78125 0,2.14057 2.83236,6.37451 6.28125,9.40625 l 6.28125,5.5 -1.1875,-12.3125 c -1.1712,-12.24766 -1.0991,-12.30482 12.21875,-17.28125 7.35929,-2.74994 21.57285,-11.077 31.59375,-18.5 l 18.21875,-13.5 z m -362.71875,4.78125 -6.8125,3.46875 c -9.05421,4.61493 -8.71406,4.12231 -6.59375,9.53125 2.53829,6.47523 3.31631,6.10191 8.71875,-4.125 l 4.6875,-8.875 z m 39.78125,6.65625 c 2.02411,0.0733 6.44852,2.69035 16.09375,8.5 11.97002,7.20994 14.24722,9.79643 11.53125,13 -1.94323,2.29209 -2.53732,7.27594 -1.40625,11.6875 l 1.96875,7.6875 4.4375,-6.21875 c 2.44317,-3.4146 3.62801,-7.50508 2.625,-9.09375 -2.64756,-4.19354 5.00178,-3.38312 11.15625,1.1875 4.17295,3.09906 4.43091,4.21914 1.1875,5.4375 -5.10755,1.91863 -31.5625,45.68681 -31.5625,52.21875 0,5.48559 -1.75489,5.69024 -11.09375,1.28125 -8.29744,-3.91734 -8.46473,-6.8986 -0.5,-8.9375 5.66025,-1.449 6.00268,-2.93459 4.09375,-18.4375 -1.14098,-9.26631 -2.95125,-21.96265 -4,-28.21875 l -1.90625,-11.375 -12.59375,21.34375 c -6.93859,11.73196 -11.97306,23.04131 -11.15625,25.125 2.00327,5.11037 -1.48487,4.76259 -9.84375,-0.96875 -5.83694,-4.00218 -6.23134,-5.14039 -2.4375,-7.21875 5.73586,-3.14229 31.6875,-46.26511 31.6875,-52.65625 0,-2.5862 0.0911,-4.12189 1.34375,-4.3125 0.11443,-0.0174 0.24006,-0.0361 0.375,-0.0312 z m 62.78125,31.59375 c 2.03142,-0.0825 5.72102,0.78224 12.375,2.59375 l 10.34375,2.84375 0,37.65625 0,37.46875 c 0,-0.11167 -6.50148,-2.14573 -14.4375,-4.53125 -10.73677,-3.22741 -13.58232,-5.15765 -11.09375,-7.59375 7.467,-7.30957 -0.2368,-25.28125 -10.84375,-25.28125 -4.34402,0 -12.00571,14.744 -10.21875,19.65625 1.00773,2.7702 -0.8326,3.24145 -7.0625,1.78125 -12.62811,-2.95985 -13.84017,-4.29119 -7.65625,-8.53125 6.56799,-4.50341 36.1875,-47.7527 36.1875,-52.84375 0,-2.08183 0.37483,-3.13622 2.40625,-3.21875 z m 151.71875,9.59375 4.25,10 c 5.21923,12.22804 3.70901,14.41226 -4.4375,6.4375 -10.22643,-10.01081 -26.41952,-7.19143 -22.09375,3.84375 2.37172,6.05028 9.01254,5.8659 12.5625,-0.34375 2.30878,-4.03858 3.44657,-2.66041 6.25,7.53125 3.33707,12.13162 2.10686,20.36381 -1.625,10.84375 -1.02509,-2.61501 -5.04687,-4.75 -8.90625,-4.75 -6.65383,0 -6.89869,0.71676 -5.1875,13.75 0.99251,7.55956 2.91035,14.93751 4.28125,16.40625 4.03358,4.3214 16.88173,-3.09357 23.34375,-13.46875 l 5.90625,-9.4375 -0.0312,8.65625 c -0.0628,18.6013 -2.15137,20.95885 -20.1875,22.96875 -9.20275,1.02553 -20.21364,2.53215 -24.46875,3.34375 -7.52007,1.43439 -7.74698,1.06409 -8.1875,-13.84375 -0.51877,-17.55407 -4.47289,-44.97565 -7.46875,-51.8125 -1.71884,-3.92251 1.68676,-5.05905 22,-7.375 l 24,-2.75 z m -86.8125,2.625 c 3.27173,-0.0419 6.94734,0.18037 11.09375,0.6875 l 16.1875,2 -0.0937,11.9375 -0.0937,11.96875 -6.0625,-7.9375 c -7.68246,-10.07997 -20.94888,-10.81811 -27.59375,-1.53125 -11.22381,15.6864 -0.19169,55.16932 13.15625,47.09375 4.52239,-2.73605 6.6535,-24.53757 2.84375,-29.03125 -3.07928,-3.63206 -1.39016,-4.25 11.75,-4.25 14.65423,0 15.24549,0.28074 12.9375,6.5 -1.3289,3.58084 -2.4375,13.36314 -2.4375,21.71875 l 0,15.1875 -14.75,-0.15625 c -30.19824,-0.33491 -45.33063,-11.41999 -47.78125,-34.96875 -1.62168,-15.5832 5.88058,-31.25727 17.5625,-36.6875 3.50987,-1.63152 7.82836,-2.46146 13.28125,-2.53125 z m -65.21875,8.625 c -0.65297,-0.004 -1.81262,1.59879 -3.84375,4.4375 -3.71592,5.19339 -3.92553,7.4411 -1.09375,10.78125 5.18134,6.1115 5.78125,5.39864 5.78125,-6.5625 0,-5.99712 -0.004,-8.65126 -0.84375,-8.65625 z"
     style="fill:#6e0c0e;fill-opacity:1"
     inkscape:connector-curvature="0" />
</svg>
