<?xml version="1.0" encoding="UTF-8" standalone="no"?>
<!-- Created with Inkscape (http://www.inkscape.org/) -->

<svg
   xmlns:dc="http://purl.org/dc/elements/1.1/"
   xmlns:cc="http://creativecommons.org/ns#"
   xmlns:rdf="http://www.w3.org/1999/02/22-rdf-syntax-ns#"
   xmlns:svg="http://www.w3.org/2000/svg"
   xmlns="http://www.w3.org/2000/svg"
   xmlns:sodipodi="http://sodipodi.sourceforge.net/DTD/sodipodi-0.dtd"
   xmlns:inkscape="http://www.inkscape.org/namespaces/inkscape"
   id="svg7406"
   version="1.1"
   inkscape:version="0.48.4 r9939"
   width="750"
   height="750"
   sodipodi:docname="logo5-outer.svg">
  <metadata
     id="metadata7412">
    <rdf:RDF>
      <cc:Work
         rdf:about="">
        <dc:format>image/svg+xml</dc:format>
        <dc:type
           rdf:resource="http://purl.org/dc/dcmitype/StillImage" />
        <dc:title></dc:title>
      </cc:Work>
    </rdf:RDF>
  </metadata>
  <defs
     id="defs7410" />
  <sodipodi:namedview
     pagecolor="#ffffff"
     bordercolor="#666666"
     borderopacity="1"
     objecttolerance="10"
     gridtolerance="10"
     guidetolerance="10"
     inkscape:pageopacity="0"
     inkscape:pageshadow="2"
     inkscape:window-width="1600"
     inkscape:window-height="848"
     id="namedview7408"
     showgrid="false"
     inkscape:zoom="0.35355339"
     inkscape:cx="907.34729"
     inkscape:cy="92.804791"
     inkscape:window-x="0"
     inkscape:window-y="0"
     inkscape:window-maximized="1"
     inkscape:current-layer="svg7406" />
  <path
     style="fill:#6e0c0e;fill-opacity:1"
     d="M 366.78125 139.3125 C 233.40448 139.3125 125.28125 245.42102 125.28125 376.3125 C 125.28125 507.20398 233.40448 613.3125 366.78125 613.3125 C 500.15802 613.3125 608.28125 507.20398 608.28125 376.3125 C 608.28125 245.42102 500.15802 139.3125 366.78125 139.3125 z M 475.875 224.75 C 476.3944 224.7754 477.18141 225.50818 478.125 226.9375 C 480.37564 230.34666 481.027 230.43175 481.0625 227.3125 C 481.0942 224.5318 482.1941 224.2048 484.78125 226.21875 C 486.81345 227.80071 490.81117 228.73179 493.65625 228.28125 C 496.50133 227.83072 498.84075 228.32225 498.84375 229.375 C 498.84675 230.42781 502.64344 231.55934 507.28125 231.875 C 511.91905 232.19066 523.5406 236.08661 533.125 240.53125 C 542.7094 244.97589 554.5602 250.18006 559.4375 252.09375 C 565.3502 254.4137 566.4725 255.60995 562.8125 255.71875 C 559.0958 255.82935 557.8705 257.33425 559.0625 260.375 C 560.2015 263.28067 559.65485 264.13511 557.46875 262.8125 C 555.61055 261.68827 551.2819 260.47284 547.875 260.09375 C 521.8382 257.19646 508.50945 254.96141 504.40625 252.8125 C 501.77497 251.43439 498.70879 251.18972 497.59375 252.28125 C 496.47872 253.37277 494.32496 252.37235 492.8125 250.03125 C 490.40572 246.30592 490.04795 246.29496 489.96875 250.09375 C 489.88825 253.95188 489.54703 253.95188 487 250.09375 C 485.42401 247.70652 484.11735 247.08704 484.09375 248.71875 C 484.06885 250.35042 478.7218 251.52808 472.21875 251.34375 C 465.71571 251.15958 460.40625 251.99001 460.40625 253.1875 C 460.40625 254.38488 457.0644 255.03048 453 254.59375 C 448.9356 254.15699 445.5862 255.22951 445.5625 257 C 445.5376 258.77051 444.23223 258.26222 442.65625 255.875 C 440.24616 252.22427 439.7881 252.41155 439.75 256.96875 C 439.7105 261.69288 439.07949 261.86892 434.71875 258.40625 C 430.44971 255.01642 430.09016 255.05533 432.25 258.5625 C 434.14368 261.63757 433.52977 262.1854 429.875 260.8125 C 426.90642 259.69736 425.29105 260.32395 425.71875 262.40625 C 426.12906 264.40414 422.09677 266.19004 416.0625 266.6875 C 410.37234 267.15662 402.06459 267.84748 397.59375 268.21875 C 393.1229 268.59003 389.46875 269.55776 389.46875 270.375 C 389.46875 271.19221 382.12919 271.79635 373.1875 271.71875 C 364.24581 271.64125 356.9375 272.77073 356.9375 274.21875 C 356.9375 275.66677 355.09303 275.32152 352.8125 273.46875 C 349.62843 270.88192 348.30146 270.97352 347.125 273.84375 C 345.8865 276.86527 345.53234 276.87449 345.34375 273.8125 C 345.21541 271.72916 343.65127 270.90645 341.84375 272 C 340.0362 273.09355 337.38786 272.19327 335.96875 270 C 333.83353 266.70002 333.3873 266.75188 333.3125 270.34375 C 333.232 274.20188 332.89078 274.20188 330.34375 270.34375 C 328.43348 267.45014 327.4677 267.21367 327.4375 269.625 C 327.3671 275.25374 321.51506 273.88765 321.28125 268.1875 C 321.09488 263.64454 320.82621 263.67025 318.875 268.53125 C 316.97313 273.26941 316.16172 273.4263 312.40625 269.75 C 310.04422 267.4378 306.61023 266.02819 304.78125 266.625 C 302.95227 267.2218 299.31485 265.6032 296.6875 263.03125 C 294.06016 260.45932 291.90625 259.80136 291.90625 261.5625 C 291.90625 263.88121 290.17697 263.86842 285.65625 261.5 C 280.22983 258.65709 267.184 258.1356 242.40625 259.78125 C 238.74829 260.0242 235.75 261.26787 235.75 262.53125 C 235.75 263.79463 234.0947 264.59462 232.0625 264.3125 C 221.51003 262.84746 208.07964 269.10058 199.59375 279.4375 C 186.49438 295.39424 183.42343 293.31156 196.09375 277.0625 L 206.6875 263.5 L 199.78125 258.0625 C 195.99012 255.07294 188.90853 250.10898 184.03125 247.03125 C 178.8283 243.74802 177.05189 241.4435 179.75 241.4375 C 182.27923 241.4315 188.8973 244.72618 194.46875 248.75 C 202.27298 254.38646 206.65998 255.60536 213.53125 254.15625 C 218.43666 253.12169 223.51239 250.50605 224.8125 248.3125 C 226.1126 246.11897 229.70646 244.3125 232.78125 244.3125 C 235.85604 244.3125 239.25144 242.88639 240.34375 241.15625 C 241.43606 239.42694 244.83821 238.65212 247.90625 239.4375 C 250.97429 240.22291 253.5 239.69249 253.5 238.25 C 253.5 234.45084 291.17307 235.00969 293.59375 238.84375 C 295.00322 241.07625 296.38476 240.86178 298.15625 238.125 C 300.18053 234.99774 300.7139 234.95141 300.75 237.96875 C 300.7749 240.05207 302.12424 240.95235 303.75 239.96875 C 305.37576 238.98516 306.7263 239.88545 306.75 241.96875 C 306.7787 244.36992 307.59209 244.67694 308.96875 242.78125 C 312.40564 238.04867 327.3852 239.28835 327.4375 244.3125 C 327.4777 248.17063 327.79671 248.17063 330.34375 244.3125 C 332.29699 241.35378 333.2193 241.13129 333.25 243.625 C 333.2933 247.12285 348.16251 246.37781 354.46875 242.5625 C 355.8249 241.74204 356.9375 242.42704 356.9375 244.0625 C 356.9375 245.69797 359.16968 246.20379 361.875 245.1875 C 365.56374 243.80184 366.1475 244.35627 364.25 247.4375 C 362.22691 250.72267 362.59205 250.88272 366 248.1875 C 372.06039 243.3945 375.13366 243.26095 378 247.6875 C 379.91849 250.65027 380.5279 250.35134 380.5625 246.46875 C 380.6133 240.78281 386.4918 239.37462 386.5625 245.03125 C 386.5934 247.5012 387.29826 247.64932 388.78125 245.5 C 391.98832 240.85203 404.22715 238.4081 404.28125 242.40625 C 404.30865 244.43372 405.35463 244.16584 406.9375 241.71875 C 408.41753 239.43061 411.66948 238.49143 414.4375 239.53125 C 417.69375 240.75443 418.62929 240.23415 417.21875 238 C 415.80534 235.76127 416.71501 235.26602 420 236.5 C 422.70532 237.51623 424.9375 237.30753 424.9375 236.03125 C 424.9375 233.69411 427.6309 233.01216 441.1875 231.90625 C 445.25191 231.5747 448.59375 230.47627 448.59375 229.46875 C 448.59375 228.4613 454.55907 228.0363 461.875 228.53125 C 470.61444 229.12253 475.18885 228.27067 475.21875 226.03125 C 475.23035 225.15824 475.47102 224.73024 475.875 224.75 z M 514.9375 287.8125 C 516.88285 287.64896 519.27368 288.63445 521.5625 290.875 C 524.5524 293.80194 515.70218 317.56184 499.5625 350.03125 C 497.15821 354.86818 495.76825 361.37951 496.46875 364.5 C 497.53776 369.26204 498.83225 368.42034 504.53125 359.25 C 508.26565 353.24082 513.8472 346.99398 516.9375 345.375 C 526.2248 340.50937 527.1713 350.0586 518.5 361.1875 C 510.7083 371.18761 510.95965 374.53125 519.46875 374.53125 C 522.14275 374.53125 527.22315 377.19252 530.78125 380.4375 L 537.25 386.3125 L 537.34375 378.25 C 537.44355 369.68081 543.26365 360.0625 548.34375 360.0625 C 552.93635 360.0625 554.77765 367.00218 553.28125 378.8125 C 551.62955 391.84844 556.35335 390.05571 563.53125 374.90625 C 571.16405 358.79681 587.7207 331.32772 591 329.34375 C 592.6122 328.36834 595.3404 328.93924 597.0625 330.625 C 599.2665 332.78259 597.67685 338.67833 591.65625 350.5 C 586.95235 359.73639 581.5292 368.90202 579.625 370.875 C 577.7208 372.84801 575.3409 378.22897 574.3125 382.8125 C 572.0418 392.93327 545.49615 417.9375 537.03125 417.9375 C 533.71095 417.9375 531.7264 419.10788 532.625 420.53125 C 534.7955 423.96915 557.9375 426.02472 557.9375 422.78125 C 557.9375 418.34428 592.85195 386.09375 597.65625 386.09375 C 604.94165 386.09375 603.1091 392.70993 592.6875 403.875 C 576.0798 421.66742 567.2918 432.38885 569.3125 432.40625 C 570.3852 432.41625 567.32065 434.43019 562.53125 436.875 C 552.13545 442.1817 537.75235 444.23683 535.53125 440.71875 C 534.65585 439.33222 532.3737 438.1785 530.4375 438.1875 C 528.5012 438.1955 530.4325 441.14581 534.75 444.71875 C 550.4919 457.74537 551.11045 466.63438 539.46875 514.28125 C 535.12565 532.05651 525.95265 540.25506 527.90625 524.625 C 534.81005 469.3875 534.81185 469.24045 523.15625 458.15625 C 515.24565 450.63356 513.19685 449.66491 514.46875 454.09375 C 518.79735 469.16601 519.9859 490.28125 516.5 490.28125 C 514.3122 490.28125 513.5628 492.66389 514.5625 496.40625 C 516.1785 502.45554 511.95025 512.87797 506.21875 517 C 504.59305 518.16925 504.19345 519.13315 505.34375 519.15625 C 506.49405 519.18065 503.52572 527.33448 498.71875 537.28125 C 493.91176 547.22803 489.96975 557.51019 489.96875 560.125 C 489.96575 565.57971 482.14355 569.51263 479.53125 565.375 C 476.85714 561.1394 486.19888 528.77424 492.65625 519.875 C 495.80987 515.52889 499.2698 504.81566 500.34375 496.0625 L 502.28125 480.15625 L 492.4375 495.90625 C 482.40924 511.93271 458.6549 529.2702 450.78125 526.3125 C 446.49424 524.70212 439.71875 505.36891 439.71875 494.75 C 439.71875 490.80515 442.36593 481.01633 445.59375 473 C 448.82154 464.98366 450.40923 458.4375 449.125 458.4375 C 447.84073 458.4375 442.19527 465.6585 436.59375 474.46875 C 415.74833 507.2551 395.375 531.03733 395.375 522.59375 C 395.375 517.21882 404.01402 499.83203 408.5 496.1875 C 411.03258 494.12997 413.123 490.98197 413.125 489.1875 C 413.127 487.393 418.43659 478.41782 424.9375 469.25 C 431.43842 460.08218 436.75 451.29345 436.75 449.71875 C 436.75 448.14405 437.99037 446.875 439.5 446.875 C 441.00965 446.875 444.04364 445.23936 446.25 443.25 C 448.45634 441.26065 454.09294 437.66848 458.75 435.28125 C 471.171 428.91419 469.57686 425.26646 454 424.28125 C 440.50039 423.42743 439.97176 423.738 427.40625 439.15625 C 415.06353 454.30107 399.5502 466.39017 396.40625 463.3125 C 394.40408 461.35252 403.11829 448.01598 415.1875 434.5625 C 420.54559 428.58983 424.9375 422.56182 424.9375 421.15625 C 424.9375 416.79034 446.44439 408.34409 456.625 408.71875 C 468.07346 409.14006 468.52454 407.59962 459.65625 398.34375 C 454.06925 392.51258 453.11943 388.61315 453.6875 373.9375 C 454.05941 364.32889 455.58605 354.98275 457.0625 353.1875 C 458.53899 351.39222 460.67435 344.41172 461.8125 337.65625 C 463.9985 324.68137 468.43438 319.3236 472.15625 325.21875 C 474.94112 329.62976 473.0409 352.15435 468.65625 366.59375 C 464.92377 378.88547 468.18095 388.04046 478.59375 394.40625 C 485.8228 398.82569 488.79536 397.03362 483.4375 391.5 C 478.71312 386.62057 478.89181 367.40002 483.75 355.71875 C 489.60685 341.63623 501.71017 315.80621 506.34375 307.53125 C 508.70915 303.30698 510.65625 297.11654 510.65625 293.78125 C 510.65625 290.11378 512.43634 288.02277 514.9375 287.8125 z M 246.625 303.09375 C 247.73439 303.00775 248.43518 303.93861 249.21875 305.9375 C 251.18887 310.96332 245.18193 323.38991 230.875 343.75 C 225.43467 351.49211 220.96875 359.3719 220.96875 361.28125 C 220.96875 365.92422 237.94776 378.04486 239.96875 374.84375 C 240.84284 373.45922 240.89474 363.59006 240.0625 352.90625 C 238.90477 338.04306 239.42432 333.75527 242.28125 334.6875 C 248.89936 336.84703 253.45593 369.19578 249.21875 383.9375 C 247.31186 390.57182 248.58282 393.84259 256.84375 403.25 C 262.3064 409.47077 269.16022 414.6467 272.0625 414.78125 C 278.56973 415.08332 290.52412 422.19609 302.25 432.71875 C 307.53399 437.46054 315.28727 441.04243 321.4375 441.59375 C 328.74329 442.24866 332.06737 444.12257 332.8125 447.96875 C 333.69756 452.53715 332.54637 453.13005 325.46875 451.75 C 303.10209 447.38879 298.54094 445.43421 288.28125 435.84375 C 276.34686 424.6878 271.18826 425.10048 276.625 436.78125 C 278.78463 441.42121 283.31686 444.75622 289.03125 445.875 C 298.58224 447.74494 299.41423 448.75788 315.5625 478.3125 C 325.93503 497.29636 327.55568 498.50431 348.8125 503.09375 C 353.28335 504.05903 356.9375 506.7681 356.9375 509.125 C 356.9375 515.23989 342.68704 514.61468 326.90625 507.78125 C 315.15194 502.69139 312.9764 500.09254 305.125 481.875 C 296.81763 462.59934 292.68619 458.59549 280.84375 458.46875 C 275.62039 458.41295 276.18138 474.31572 281.5625 478.6875 C 286.92099 483.04088 287.49759 491.26794 282.3125 489.4375 C 278.19088 487.98248 262.34375 496.01557 262.34375 499.5625 C 262.34375 505.72389 256.49585 500.66948 253.5625 491.96875 C 250.59846 483.17696 245.66322 478.6875 238.9375 478.6875 C 237.70567 478.6875 235.31023 481.7184 233.59375 485.40625 C 230.93538 491.11774 232.33524 495.00791 243.03125 511.625 L 255.5625 531.125 L 249.34375 547.59375 C 245.92519 556.65089 242.06526 565.69814 240.75 567.6875 C 237.65266 572.37231 232.78125 572.32567 232.78125 567.625 C 232.78125 565.61319 235.30246 557.22884 238.375 549 C 243.09736 536.35253 243.37105 533.21779 240.0625 528.59375 C 237.90984 525.58518 232.63853 514.53322 228.34375 504.03125 C 221.9204 488.32428 221.11784 483.81379 223.9375 478.65625 C 226.55233 473.87344 226.52976 470.39051 223.8125 463.96875 C 218.09459 450.45558 214.06485 453.73794 216.28125 470.09375 C 217.75272 480.9523 217.08136 486.25674 213.6875 491 C 211.1871 494.49455 209.15625 499.49101 209.15625 502.125 C 209.15625 507.63825 201.07104 515.16649 198.1875 512.34375 C 197.12253 511.30124 198.48873 505.85419 201.21875 500.25 C 204.39803 493.72352 206.1875 482.81096 206.1875 469.875 C 206.1875 458.76702 207.65373 447.38978 209.4375 444.59375 C 214.57902 436.53444 205.99711 410.98053 197.75 409.78125 C 189.89085 408.63839 161.84375 382.371 161.84375 376.15625 C 161.84375 369.72214 166.44106 370.56866 172.8125 378.15625 C 180.13937 386.88167 196.21132 397.8036 198.46875 395.59375 C 199.4654 394.61811 200.28125 389.61801 200.28125 384.46875 C 200.28125 376.56917 198.82326 374.5866 190.96875 371.90625 C 185.84891 370.15906 172.81258 368.75 162 368.75 C 142.4054 368.75 135.25 365.77606 135.25 357.6875 C 135.25 354.65381 137.35885 354.12568 143.375 355.625 C 147.84584 356.73921 161.49429 358.61594 173.6875 359.78125 C 185.8807 360.94657 198.8169 363.45385 202.4375 365.375 C 208.45404 368.56749 209.38608 368.01072 213.21875 359.03125 C 215.52516 353.62761 222.20274 342.4015 228.0625 334.0625 C 233.92226 325.72353 238.71875 316.59077 238.71875 313.78125 C 238.71875 310.97173 240.67434 307.05935 243.09375 305.09375 C 244.64625 303.83245 245.76214 303.16065 246.625 303.09375 z "
     id="path7418" />
</svg>
