<?xml version="1.0" encoding="UTF-8" standalone="no"?>
<!-- Created with Inkscape (http://www.inkscape.org/) -->

<svg
   xmlns:dc="http://purl.org/dc/elements/1.1/"
   xmlns:cc="http://creativecommons.org/ns#"
   xmlns:rdf="http://www.w3.org/1999/02/22-rdf-syntax-ns#"
   xmlns:svg="http://www.w3.org/2000/svg"
   xmlns="http://www.w3.org/2000/svg"
   xmlns:sodipodi="http://sodipodi.sourceforge.net/DTD/sodipodi-0.dtd"
   xmlns:inkscape="http://www.inkscape.org/namespaces/inkscape"
   id="svg7406"
   version="1.1"
   inkscape:version="0.48.4 r9939"
   width="750"
   height="750"
   sodipodi:docname="logo5.svg">
  <metadata
     id="metadata7412">
    <rdf:RDF>
      <cc:Work
         rdf:about="">
        <dc:format>image/svg+xml</dc:format>
        <dc:type
           rdf:resource="http://purl.org/dc/dcmitype/StillImage" />
        <dc:title></dc:title>
      </cc:Work>
    </rdf:RDF>
  </metadata>
  <defs
     id="defs7410" />
  <sodipodi:namedview
     pagecolor="#ffffff"
     bordercolor="#666666"
     borderopacity="1"
     objecttolerance="10"
     gridtolerance="10"
     guidetolerance="10"
     inkscape:pageopacity="0"
     inkscape:pageshadow="2"
     inkscape:window-width="1600"
     inkscape:window-height="848"
     id="namedview7408"
     showgrid="false"
     inkscape:zoom="0.5"
     inkscape:cx="1060.6165"
     inkscape:cy="248.3409"
     inkscape:window-x="0"
     inkscape:window-y="0"
     inkscape:window-maximized="1"
     inkscape:current-layer="svg7406" />
  <path
     style="fill:#6e0c0e;fill-opacity:1"
     d="M 367.375 36.625 C 171.31392 36.625 12.375 189.96747 12.375 379.125 C 12.375 568.28253 171.31392 721.625 367.375 721.625 C 505.01018 721.625 624.34548 646.0713 683.25 535.59375 C 682.27924 532.76002 679.89389 530.20995 676.40625 526.6875 C 667.93445 518.13107 667.20655 516.15527 670.28125 510.53125 L 673.78125 504.125 L 683.75 513.59375 L 690.875 520.34375 C 711.09514 477.28953 722.375 429.46876 722.375 379.125 C 722.375 189.96747 563.43608 36.625 367.375 36.625 z M 379.9375 46.09375 L 399.53125 46.09375 L 401.9375 57.375 C 403.25913 63.5833 403.79668 69.18555 403.15625 69.8125 C 402.51579 70.43943 397.95024 67.00212 393 62.15625 C 382.41163 51.79115 379.62296 51.38743 371.71875 59.125 C 358.88035 71.69272 368.90201 99.625 386.25 99.625 C 390.75732 99.625 396.86089 97.005224 399.8125 93.8125 C 406.77995 86.275869 407.99981 87.836605 403.96875 99.15625 C 400.82695 107.97883 400.0941 108.3125 383.90625 108.3125 C 365.21165 108.3125 356.61136 103.97298 348.125 90.3125 C 343.19641 82.37892 342.59828 82.15365 340.875 87.46875 C 339.49293 91.731514 335.71127 93.591033 326.53125 94.53125 C 311.50946 96.069818 311.27177 95.932116 315.4375 88.3125 C 317.2522 84.99321 321.68048 82.23905 325.28125 82.21875 C 340.38377 82.12761 345.125 79.06575 345.125 69.40625 C 345.125 63.16697 347.62637 57.83854 352.75 53.125 C 359.23593 47.1582 363.28533 46.09375 379.9375 46.09375 z M 422.34375 50.96875 C 424.14429 50.90166 427.04829 51.231332 431.21875 51.90625 C 447.11065 54.47806 446.89327 54.28388 442.125 61.8125 C 438.8313 67.01295 438.91138 68.41804 442.65625 70.75 C 450.54899 75.66485 454.5 73.85195 454.5 65.3125 L 454.5 57.03125 L 467.75 60 C 476.79943 62.02712 480.14361 63.96515 478.3125 66.125 C 475.02264 70.00547 466.3125 106.01538 466.3125 115.71875 C 466.3125 123.26348 464.21924 123.74729 449.5625 119.59375 C 440.52111 117.03152 440.31735 116.65773 444.15625 109 C 446.34411 104.63571 449.04254 96.186825 450.15625 90.21875 C 452.05685 80.03392 451.74944 79.375 444.78125 79.375 C 438.32536 79.375 436.89773 81.256739 433.84375 93.71875 C 431.9122 101.60061 431.27523 109.53406 432.4375 111.375 C 433.98594 113.8276 431.1042 114.15905 421.625 112.625 C 405.96419 110.09058 406.06481 110.18594 409.78125 103.53125 C 414.69926 94.724878 422.6986 56.81839 420.40625 53.1875 C 419.52356 51.789423 420.02877 51.055014 422.34375 50.96875 z M 276.21875 59 C 283.72949 58.891428 291.36945 61.352712 297.875 67.09375 C 314.33698 81.62117 312.55782 106.02319 294.21875 116.96875 C 273.40325 129.3924 247.06123 119.64973 242.90625 97.96875 C 238.75202 76.291696 257.02463 59.277462 276.21875 59 z M 269 68.15625 C 266.43372 68.259326 264.25416 70.110062 262.28125 73.71875 C 258.26598 81.06316 263.16537 98.00628 272.09375 107.59375 C 290.3242 127.17002 299.06131 97.356435 281.1875 76.5625 C 276.23334 70.798945 272.29951 68.023724 269 68.15625 z M 497.59375 73.46875 C 500.27838 73.37341 506.40441 75.837915 518.09375 81.5 C 532.94995 88.69605 539.80705 93.570636 538.78125 96.1875 C 537.93715 98.340775 537.25 102.60344 537.25 105.65625 C 537.25 108.70904 535.9382 111.21875 534.3125 111.21875 C 532.6867 111.21875 531.34375 108.81129 531.34375 105.875 C 531.34375 98.63142 520.8816 89.829658 514.9375 92.0625 C 508.2996 94.556016 511.3383 101.11488 519 100.84375 C 524.2765 100.65708 524.98515 101.82851 523.46875 108.09375 C 522.47615 112.19466 520.57565 117.48778 519.21875 119.875 C 517.30105 123.24878 516.72625 122.79405 516.65625 117.8125 C 516.60675 114.28768 513.9456 110.04922 510.75 108.375 C 505.8199 105.79208 504.25472 106.62107 500.40625 113.90625 C 497.91175 118.62838 495.875 124.54497 495.875 127.0625 C 495.875 134.3605 507.7879 137.14505 519.25 132.53125 C 524.7833 130.30393 529.74235 128.90994 530.28125 129.4375 C 530.82015 129.96504 526.9468 134.44744 521.6875 139.375 L 512.125 148.34375 L 491.4375 138.09375 C 467.21345 126.12665 466.97447 125.96703 471.1875 123.34375 C 475.43493 120.69902 495.875 80.7789 495.875 75.125 C 495.875 74.075784 496.37346 73.512089 497.59375 73.46875 z M 219.25 82.65625 C 222.5075 82.6161 224.71855 84.033347 226.96875 86.6875 C 229.78435 90.00858 229.90686 92.828891 227.5 98 C 224.51724 104.4084 225.54767 105.71955 242.0625 116.34375 L 259.8125 127.75 L 249.09375 133.9375 C 236.60027 141.1534 232.78125 141.66559 232.78125 136.125 C 232.78125 131.36788 220.27225 122.78125 213.34375 122.78125 C 208.87037 122.78125 208.89412 123.45241 213.59375 130.75 C 216.41225 135.12658 220.62162 140.18287 222.9375 142 C 226.42068 144.73304 225.40354 146.35992 217.0625 151.40625 C 206.65453 157.70312 198.68147 159.48782 201.59375 154.875 C 203.39811 152.01704 180.75501 111.02704 175.5625 107.75 C 171.57426 105.233 171.21735 105.49859 194.65625 92.8125 C 207.4639 85.880462 214.48904 82.714935 219.25 82.65625 z M 206.5625 96.75 C 198.50754 96.75 196.36782 101.10479 200.90625 108.21875 C 205.78725 115.86968 210.38085 114.23997 211.5625 104.46875 C 212.30246 98.34999 211.25684 96.75 206.5625 96.75 z M 559.53125 103.28125 L 571.21875 113.1875 C 578.43605 119.29486 581.70755 123.84721 579.71875 125.09375 C 575.96955 127.4437 571.37825 140.15625 574.28125 140.15625 C 575.35925 140.15625 580.08945 137.93179 584.78125 135.21875 C 593.14085 130.38469 593.4871 130.44194 601.8125 138.25 L 610.3125 146.21875 L 601.46875 155.46875 C 596.60435 160.56344 588.3133 169.94656 583.0625 176.3125 C 577.8117 182.67844 572.999 189.38432 572.375 191.21875 C 571.7071 193.18223 566.7754 190.75758 560.375 185.3125 C 549.9701 176.46076 549.75965 175.92911 555.65625 173.28125 C 559.04515 171.75953 566.55895 164.86534 572.34375 157.9375 L 582.875 145.34375 L 571.15625 150.28125 C 557.68845 155.97364 549.074 158.6565 549.125 157.125 C 549.1443 156.5415 551.00915 149.23029 553.28125 140.875 C 555.55345 132.51971 556.99625 125.6875 556.46875 125.6875 C 553.55365 125.6875 531.67745 155.69956 533.03125 157.84375 C 535.60775 161.92469 530.79395 160.81138 525.46875 156.09375 C 521.01225 152.14572 521.91075 150.36153 536.28125 135.125 C 544.91665 125.96908 553.6807 115.05754 555.75 110.875 L 559.53125 103.28125 z M 163.875 117.59375 C 174.13648 117.62495 177.22113 135.88517 167.59375 151.34375 L 161.5 161.09375 L 168.09375 168 C 171.72552 171.78435 177.40045 174.875 180.6875 174.875 C 185.91386 174.875 185.39396 176.14348 176.625 185 C 166.35593 195.37162 161.84375 197.49459 161.84375 192 C 161.84375 187.37662 129.09176 154.625 124.46875 154.625 C 122.27758 154.625 120.46875 154.04942 120.46875 153.34375 C 120.46875 152.33657 126.07569 146.68765 133.0625 140.25 C 143.01536 131.07942 155.77571 120.26074 159.0625 118.75 C 160.8059 117.94867 162.40907 117.5893 163.875 117.59375 z M 368.03125 125.9375 C 508.86386 125.9375 623.03125 237.86631 623.03125 375.9375 C 623.03125 514.00869 508.86386 625.9375 368.03125 625.9375 C 227.19864 625.9375 113.03125 514.00869 113.03125 375.9375 C 113.03125 237.86631 227.19864 125.9375 368.03125 125.9375 z M 153.15625 134.34375 C 144.78635 134.34375 142.77626 139.69708 148.71875 146.125 C 155.99297 153.99347 158.90625 153.09825 158.90625 143.03125 C 158.90625 136.36747 157.56053 134.34375 153.15625 134.34375 z M 609.4375 195.53125 C 612.90486 195.54725 618.00683 196.61784 625.78125 198.25 C 642.27975 201.71368 641.62645 199.43874 634.40625 227.6875 C 632.88085 233.65557 631.3438 238.36603 631 238.1875 C 630.6562 238.00891 623.0667 236.37624 614.125 234.53125 C 605.1834 232.6862 597.91175 229.90098 597.96875 228.34375 C 598.02585 226.78653 599.1226 218.66779 600.4375 210.3125 C 602.16934 199.30696 602.81799 195.50069 609.4375 195.53125 z M 117.875 196.09375 C 119.04551 196.10675 119.87253 196.20913 120.25 196.4375 C 122.61714 197.86963 127.5395 218.68654 127.78125 228.28125 C 127.8887 232.54599 93.631566 238.629 92.40625 234.5625 C 90.822321 229.30583 85 204.25569 85 202.71875 C 85 200.649 109.68143 196.00245 117.875 196.09375 z M 43.375 261.6875 C 44.48261 261.6875 46.71349 262.96662 48.34375 264.5625 C 53.02068 269.14082 101.74584 282.13773 106.9375 280.1875 C 113.00014 277.91009 112.91201 278.8231 104.5 306.375 C 100.5877 319.18899 96.454669 341.07451 95.34375 355 C 93.680849 375.84466 92.477764 380.31135 88.4375 380.34375 C 85.73836 380.36545 80.53296 381.16537 76.875 382.125 C 73.21703 383.08461 70.21875 382.59149 70.21875 381 C 70.21875 379.40852 72.86181 377.42109 76.09375 376.59375 C 82.21509 375.02675 89.22229 361.51513 86.3125 356.90625 C 83.02509 351.69926 73.1875 354.07132 73.1875 360.0625 C 73.1875 363.24547 74.5908 365.84375 76.3125 365.84375 C 78.03421 365.84375 78.62977 367.15851 77.625 368.75 C 76.62022 370.34148 70.27615 371.625 63.5625 371.625 L 51.375 371.625 L 58 365.59375 C 61.64535 362.26919 64.1208 358.03527 63.5 356.1875 C 61.91497 351.4697 34.43158 350.06759 31.59375 354.5625 C 28.29189 359.79237 33.98302 372.17596 43.0625 379.5 C 52.26741 386.9252 49.97885 387.1857 32.59375 380.78125 L 20.0625 376.1875 L 21.65625 360.15625 C 24.62812 330.11664 25.97117 324.71444 29.75 327.65625 C 31.68614 329.16356 44.58728 331.17882 58.40625 332.125 C 72.22522 333.07126 81.81641 333.10774 79.75 332.21875 C 73.70504 329.61829 67.25 314.90538 67.25 303.71875 C 67.25 295.10046 65.89836 292.84171 59.125 290.3125 C 54.65416 288.64306 47.34584 287.80004 42.875 288.4375 C 38.40416 289.07504 34.75 289.1111 34.75 288.5 C 34.75 283.57687 41.79148 261.6875 43.375 261.6875 z M 688.25 265.1875 C 691.80257 265.2784 695.41915 267.00743 697.875 270.84375 C 700.1058 274.32843 699.90205 276.93752 697.09375 280.25 C 691.47615 286.87608 679.9511 286.08049 677.625 278.90625 C 674.98609 270.76704 681.46781 265.01402 688.25 265.1875 z M 690 296.5 C 701.9831 296.35222 707.63975 301.98147 710.15625 316.5625 C 712.85165 332.18052 704.86555 348.2041 690.96875 355 C 678.26875 361.21058 656.0452 361.57784 647.5 355.71875 C 640.4096 350.85714 635.5407 338.21389 634.25 321.3125 C 633.4063 310.26473 633.63965 309.97619 646.53125 306.25 C 662.50775 301.63215 664.86015 303.0297 654.46875 311.03125 C 645.33375 318.06535 644.30585 328.15601 652.03125 335 C 658.65725 340.87006 670.1605 341.14925 683.4375 335.71875 C 701.831 328.19549 704.68355 309.41727 688.71875 300.9375 L 680.625 296.625 L 690 296.5 z M 78.875 297 C 75.029115 297.20962 75.73983 300.38523 80.71875 307.34375 C 86.15331 314.9391 88.858457 315.34021 93.96875 309.3125 C 98.488582 303.98123 95.540881 300.47974 84.25 297.75 C 81.942588 297.19215 80.156962 296.93013 78.875 297 z M 643.6875 363.09375 C 644.86627 363.01025 646.37864 363.84467 648.25 365.65625 C 649.7944 367.15138 665.3404 368.78702 682.8125 369.28125 L 714.59375 370.1875 L 714.59375 378.15625 C 714.59875 382.53284 713.28205 386.09375 711.65625 386.09375 C 710.03055 386.09375 708.6875 384.81023 708.6875 383.21875 C 708.6875 376.97874 697.40675 380.9626 676.53125 394.5625 L 654.6875 408.78125 L 668.5625 410.8125 C 676.1907 411.93227 688.99285 412.22485 697.03125 411.46875 C 711.46085 410.11147 711.65625 410.19257 711.65625 418.34375 C 711.65625 426.81154 709.0823 428.71685 704.125 423.875 C 702.5806 422.36651 686.8849 420.73086 669.25 420.25 L 637.1875 419.375 L 638.9375 406.6875 C 639.9083 399.70155 640.71875 392.24017 640.71875 390.125 C 640.71875 388.00986 642.37405 386.88079 644.40625 387.625 C 646.43845 388.3692 652.09145 386.26191 656.96875 382.9375 L 665.84375 376.90625 L 653.28125 378.34375 C 641.04915 379.73754 640.71875 379.52803 640.71875 371.34375 C 640.71875 365.97126 641.72289 363.23291 643.6875 363.09375 z M 76.6875 389 C 89.57553 389 96.75527 398.10639 97.1875 415.03125 C 97.580855 430.43407 97.740018 431.45185 100.75 438.1875 C 104.4398 446.44444 117.51108 485.47446 116.78125 486.0625 C 114.72884 487.71626 96.884659 496.0625 95.40625 496.0625 C 94.463962 496.0625 96.539593 492.2794 100.03125 487.65625 C 110.59811 473.66514 105.02019 472.37229 76.1875 482.1875 C 59.96985 487.70833 49.33759 492.9507 48.625 495.78125 C 47.49906 500.25376 41.08684 488.76973 36.5 474.03125 C 34.85035 468.73062 35.60872 468.08523 42 469.28125 C 47.73066 470.35365 90.687987 458.03364 96.5 453.65625 C 99.547496 451.36095 89.36352 443.96875 83.15625 443.96875 C 74.56513 443.96875 74.04642 438.01133 82.03125 430.9375 C 85.37041 427.97931 87.96875 422.0509 87.96875 417.28125 C 87.96875 403.56428 78.75832 408.29436 72.59375 425.1875 C 69.6928 433.13714 65.0803 441.26065 62.3125 443.25 C 54.44488 448.90484 41.77368 447.52419 32.875 440.03125 C 25.87386 434.13607 24.56793 430.54281 23.5 414.125 C 22.13192 393.09272 20.23849 395.19872 44.34375 390.53125 C 51.65992 389.11462 50.81841 391.1919 40.65625 399.5625 C 31.87736 406.79371 29.52248 415.73733 34.40625 423.28125 C 39.49842 431.14712 47.92629 425.506 52.59375 411.09375 C 57.71724 395.27336 64.54672 389 76.6875 389 z M 638.3125 424.75 C 639.06083 424.62242 639.84389 425.25754 640.6875 426.59375 C 643.1778 430.53826 684.6821 440.81828 698.6875 440.96875 L 707.875 441.09375 L 704.84375 454.09375 C 701.91435 466.62524 698.9982 469.93671 695.625 464.59375 C 693.2383 460.81351 638.39295 449.02553 634.40625 451.4375 C 631.86805 452.97311 631.47125 450.22983 632.96875 441.0625 C 634.72732 430.29703 636.40011 425.07604 638.3125 424.75 z M 89.875 435.65625 C 89.062481 435.70995 88.206429 435.9053 87.40625 436.21875 C 85.04821 437.14245 85.74401 437.82986 89.1875 437.96875 C 92.303534 438.09439 94.044733 437.39902 93.0625 436.4375 C 92.448603 435.83663 91.229198 435.56679 89.875 435.65625 z M 613.84375 496.28125 C 617.841 496.24755 634.8125 503.13352 634.8125 505.125 C 634.8125 506.29593 630.5961 507.65754 625.4375 508.15625 C 620.279 508.65497 615.59665 510.46561 615.03125 512.15625 C 613.81375 515.79685 655.58685 542.34375 662.53125 542.34375 C 668.84715 542.34375 668.67365 543.29485 659.59375 557.375 C 653.04645 567.52803 651.43295 568.62298 649.09375 564.53125 C 645.50085 558.24639 603.54085 530.50942 601.15625 532.84375 C 598.06655 535.86829 599.1314 546.80402 602.875 550.46875 C 609.2553 556.71452 601.36605 554.08295 594.34375 547.625 C 589.47565 543.14801 587.51025 542.53602 587.53125 545.46875 C 587.56025 549.64952 626.49005 585.93426 633.96875 588.75 C 637.00985 589.89494 636.123 592.01633 630.5 597.1875 C 623.0897 604.00232 622.96875 604.02094 622.96875 598 C 622.96875 594.63355 621.9693 591.32253 620.75 590.625 C 619.5307 589.92743 606.5693 588.51265 591.9375 587.46875 L 565.34375 585.5625 L 582.46875 601.5625 C 591.89275 610.37171 601.54345 617.59375 603.90625 617.59375 C 609.75315 617.59375 609.28905 621.51594 602.78125 627.28125 C 596.23785 633.07807 593.40625 633.33989 593.40625 628.1875 C 593.40625 623.87082 556.03245 587.54606 549.09375 585.125 C 545.71455 583.94592 547.4105 580.74993 556.3125 571.65625 C 564.0878 563.71355 569.00395 560.70168 570.96875 562.625 C 575.00485 566.57596 591.3793 566.40417 588.875 562.4375 C 587.8082 560.74783 583.54945 558.1045 579.40625 556.5625 L 571.875 553.75 L 577.84375 547.34375 C 582.31985 542.53104 602.9308 512.76807 613.0625 496.5 C 613.1654 496.33477 613.43024 496.28474 613.84375 496.28125 z M 127.875 509.96875 C 129.62755 509.93775 132.10591 512.66604 136.65625 519.09375 L 145.03125 530.90625 L 139.09375 537.34375 C 128.36588 549.01459 127.98429 551.47524 137.21875 549.3125 C 141.82581 548.23354 147.30351 546.03633 149.375 544.4375 C 151.44649 542.83875 153.5128 542.03158 154 542.65625 C 165.57653 557.49913 171.8303 571.2064 165.1875 567.1875 C 163.77003 566.32992 152.80755 572.26957 140.8125 580.40625 C 128.81744 588.54293 116.91833 597.74534 114.375 600.84375 C 109.90328 606.29143 109.48914 606.07434 101.8125 594.71875 C 92.408517 580.80791 92.280638 580.20945 99.1875 580.71875 C 103.55525 581.04084 139.11786 559.64097 137.25 557.8125 C 136.93984 557.50887 128.36423 558.95873 118.21875 561.03125 C 108.07327 563.10371 99.78125 564.10156 99.78125 563.28125 C 99.78125 562.46094 103.77897 555.44697 108.65625 547.6875 C 113.53354 539.928 117.5 532.92043 117.5 532.09375 C 117.5 528.22176 82.0237 555.62389 81.9375 559.5625 C 81.86513 562.86989 80.30958 562.24598 76.03125 557.21875 C 69.88471 549.99621 68.16976 543.68298 73.1875 546.71875 C 76.50937 548.72848 121.9105 518.45047 125.8125 511.625 C 126.42753 510.54917 127.07838 509.98286 127.875 509.96875 z M 180.78125 574 C 182.36297 573.9126 186.15694 576.18895 190.28125 579.8125 L 199.53125 587.90625 L 185.125 616 C 177.20385 631.45601 170.71875 646.60616 170.71875 649.65625 C 170.71875 657.79528 167.35358 656.54206 154.46875 643.625 C 146.27221 635.40796 144.34394 632.0625 147.84375 632.0625 C 155.19159 632.0625 159.45062 622.322 156 613.4375 C 154.41424 609.35459 151.39839 606 149.28125 606 C 143.01238 606 132.28125 614.66715 132.28125 619.71875 C 132.28125 623.46658 130.82323 623.03527 124.90625 617.59375 C 117.68476 610.95255 114.60095 603.9187 120.46875 607.46875 C 123.63448 609.38403 178.38142 579.03799 180.0625 574.4375 C 180.16617 574.15378 180.41624 574.02017 180.78125 574 z M 536.75 586.375 L 544.84375 594.625 L 552.9375 602.90625 L 542.875 601.34375 C 536.6329 600.38617 530.7431 601.33775 527.3125 603.84375 C 522.5155 607.34854 522.2798 608.68965 525.6875 614.03125 C 528.614 618.61852 530.5911 619.40627 533.4375 617.09375 C 535.5367 615.38832 537.25 612.19234 537.25 610 C 537.25 603.69885 540.99965 605.64187 550.53125 616.84375 C 557.88565 625.4869 558.30195 626.6691 552.96875 623.875 C 546.09825 620.27555 537.25 622.04753 537.25 627.03125 C 537.25 632.19675 552.1107 649.40625 556.5625 649.40625 C 563.6013 649.40625 570.68985 635.89732 568.71875 626.25 C 566.05885 613.2307 570.80695 615.84483 576.34375 630.46875 L 581.21875 643.375 L 561.09375 657.96875 C 539.07645 673.94671 537.25 674.70243 537.25 668.0625 C 537.25 665.59058 530.0199 654.00389 521.1875 642.3125 C 505.7292 621.85049 498.84375 614.78533 498.84375 619.4375 C 498.84375 624.94728 520.42535 675.46875 522.78125 675.46875 C 529.75805 675.46875 524.11575 680.95007 512.78125 685.1875 C 496.83934 691.14737 496.12019 691.12338 497.90625 684.4375 C 498.71381 681.41443 496.24234 670.66918 492.4375 660.5625 C 486.37108 644.44852 485.43447 643.26267 484.75 650.875 C 484.32071 655.64945 483.21835 663.95134 482.3125 669.34375 L 480.6875 679.15625 L 467.59375 666.5625 C 460.39366 659.64513 454.5 654.92089 454.5 656.03125 C 454.5 661.90369 470.36738 695.71875 473.125 695.71875 C 475.14582 695.71875 475.31785 696.67573 473.5625 698.28125 C 472.01803 699.69385 467.56015 701.8105 463.65625 702.96875 C 458.00103 704.64664 456.89593 704.15896 458.28125 700.625 C 460.00536 696.22674 442.66957 649.13853 436.75 642.15625 C 434.42463 639.41343 436.60456 637.37694 445.625 633.84375 C 460.17038 628.14656 463.34375 628.01338 463.34375 633.0625 C 463.34375 635.20307 466.17611 639.43701 469.625 642.46875 L 475.90625 647.96875 L 474.71875 635.65625 C 473.54755 623.40859 473.61965 623.35143 486.9375 618.375 C 494.29679 615.62506 508.51035 607.298 518.53125 599.875 L 536.75 586.375 z M 174.03125 591.15625 L 167.21875 594.625 C 158.16454 599.23993 158.50469 598.74731 160.625 604.15625 C 163.16329 610.63148 163.94131 610.25816 169.34375 600.03125 L 174.03125 591.15625 z M 213.8125 597.8125 C 215.83661 597.88584 220.26102 600.50285 229.90625 606.3125 C 241.87627 613.52244 244.15347 616.10893 241.4375 619.3125 C 239.49427 621.60459 238.90018 626.58844 240.03125 631 L 242 638.6875 L 246.4375 632.46875 C 248.88067 629.05415 250.06551 624.96367 249.0625 623.375 C 246.41494 619.18146 254.06428 619.99188 260.21875 624.5625 C 264.3917 627.66156 264.64966 628.78164 261.40625 630 C 256.2987 631.91863 229.84375 675.68681 229.84375 682.21875 C 229.84375 687.70434 228.08886 687.90899 218.75 683.5 C 210.45256 679.58266 210.28527 676.6014 218.25 674.5625 C 223.91025 673.1135 224.25268 671.62791 222.34375 656.125 C 221.20277 646.85869 219.3925 634.16235 218.34375 627.90625 L 216.4375 616.53125 L 203.84375 637.875 C 196.90516 649.60696 191.87069 660.91631 192.6875 663 C 194.69077 668.11037 191.20263 667.76259 182.84375 662.03125 C 177.00681 658.02907 176.61241 656.89086 180.40625 654.8125 C 186.14211 651.67021 212.09375 608.54739 212.09375 602.15625 C 212.09375 599.57005 212.18485 598.03436 213.4375 597.84375 C 213.55193 597.82634 213.67756 597.80761 213.8125 597.8125 z M 276.59375 629.40625 C 278.62517 629.32375 282.31477 630.18849 288.96875 632 L 299.3125 634.84375 L 299.3125 672.5 L 299.3125 709.96875 C 299.3125 709.85708 292.81102 707.82302 284.875 705.4375 C 274.13823 702.21009 271.29268 700.27985 273.78125 697.84375 C 281.24825 690.53418 273.54445 672.5625 262.9375 672.5625 C 258.59348 672.5625 250.93179 687.3065 252.71875 692.21875 C 253.72648 694.98895 251.88615 695.4602 245.65625 694 C 233.02814 691.04015 231.81608 689.70881 238 685.46875 C 244.56799 680.96534 274.1875 637.71605 274.1875 632.625 C 274.1875 630.54317 274.56233 629.48878 276.59375 629.40625 z M 428.3125 639 L 432.5625 649 C 437.78173 661.22804 436.27151 663.41226 428.125 655.4375 C 417.89857 645.42669 401.70548 648.24607 406.03125 659.28125 C 408.40297 665.33153 415.04379 665.14715 418.59375 658.9375 C 420.90253 654.89892 422.04032 656.27709 424.84375 666.46875 C 428.18082 678.60037 426.95061 686.83256 423.21875 677.3125 C 422.19366 674.69749 418.17188 672.5625 414.3125 672.5625 C 407.65867 672.5625 407.41381 673.27926 409.125 686.3125 C 410.11751 693.87206 412.03535 701.25001 413.40625 702.71875 C 417.43983 707.04015 430.28798 699.62518 436.75 689.25 L 442.65625 679.8125 L 442.625 688.46875 C 442.5622 707.07005 440.47363 709.4276 422.4375 711.4375 C 413.23475 712.46303 402.22386 713.96965 397.96875 714.78125 C 390.44868 716.21564 390.22177 715.84534 389.78125 700.9375 C 389.26248 683.38343 385.30836 655.96185 382.3125 649.125 C 380.59366 645.20249 383.99926 644.06595 404.3125 641.75 L 428.3125 639 z M 341.5 641.625 C 344.77173 641.5831 348.44734 641.80537 352.59375 642.3125 L 368.78125 644.3125 L 368.6875 656.25 L 368.59375 668.21875 L 362.53125 660.28125 C 354.84879 650.20128 341.58237 649.46314 334.9375 658.75 C 323.71369 674.4364 334.74581 713.91932 348.09375 705.84375 C 352.61614 703.1077 354.74725 681.30618 350.9375 676.8125 C 347.85822 673.18044 349.54734 672.5625 362.6875 672.5625 C 377.34173 672.5625 377.93299 672.84324 375.625 679.0625 C 374.2961 682.64334 373.1875 692.42564 373.1875 700.78125 L 373.1875 715.96875 L 358.4375 715.8125 C 328.23926 715.47759 313.10687 704.39251 310.65625 680.84375 C 309.03457 665.26055 316.53683 649.58648 328.21875 644.15625 C 331.72862 642.52473 336.04711 641.69479 341.5 641.625 z M 276.28125 650.25 C 275.62828 650.246 274.46863 651.84879 272.4375 654.6875 C 268.72158 659.88089 268.51197 662.1286 271.34375 665.46875 C 276.52509 671.58025 277.125 670.86739 277.125 658.90625 C 277.125 652.90913 277.121 650.25499 276.28125 650.25 z "
     id="path7418" />
</svg>
